<?xml version="1.0" encoding="utf-8" standalone="no"?>
<!DOCTYPE svg PUBLIC "-//W3C//DTD SVG 1.1//EN"
  "http://www.w3.org/Graphics/SVG/1.1/DTD/svg11.dtd">
<svg xmlns:xlink="http://www.w3.org/1999/xlink" width="856.8pt" height="280.706pt" viewBox="0 0 856.8 280.706" xmlns="http://www.w3.org/2000/svg" version="1.1">
 <metadata>
  <rdf:RDF xmlns:dc="http://purl.org/dc/elements/1.1/" xmlns:cc="http://creativecommons.org/ns#" xmlns:rdf="http://www.w3.org/1999/02/22-rdf-syntax-ns#">
   <cc:Work>
    <dc:type rdf:resource="http://purl.org/dc/dcmitype/StillImage"/>
    <dc:date>2025-09-10T00:11:25.791791</dc:date>
    <dc:format>image/svg+xml</dc:format>
    <dc:creator>
     <cc:Agent>
      <dc:title>Matplotlib v3.6.3, https://matplotlib.org/</dc:title>
     </cc:Agent>
    </dc:creator>
   </cc:Work>
  </rdf:RDF>
 </metadata>
 <defs>
  <style type="text/css">*{stroke-linejoin: round; stroke-linecap: butt}</style>
 </defs>
 <g id="figure_1">
  <g id="patch_1">
   <path d="M 0 280.706 
L 856.8 280.706 
L 856.8 0 
L 0 0 
z
" style="fill: #ffffff"/>
  </g>
  <g id="axes_1">
   <g id="PathCollection_1">
    <defs>
     <path id="m10cb547755" d="M -2.95804 2.95804 
L 2.95804 -2.95804 
M -2.95804 -2.95804 
L 2.95804 2.95804 
" style="stroke: #e69f00; stroke-width: 1.5"/>
    </defs>
    <g clip-path="url(#p88305825b1)">
     <use xlink:href="#m10cb547755" x="26.1" y="143.531898" style="fill: #e69f00; stroke: #e69f00; stroke-width: 1.5"/>
     <use xlink:href="#m10cb547755" x="52.004843" y="100.768356" style="fill: #e69f00; stroke: #e69f00; stroke-width: 1.5"/>
     <use xlink:href="#m10cb547755" x="90.210795" y="63.120169" style="fill: #e69f00; stroke: #e69f00; stroke-width: 1.5"/>
     <use xlink:href="#m10cb547755" x="132.745616" y="53.739091" style="fill: #e69f00; stroke: #e69f00; stroke-width: 1.5"/>
     <use xlink:href="#m10cb547755" x="164.923373" y="59.638244" style="fill: #e69f00; stroke: #e69f00; stroke-width: 1.5"/>
     <use xlink:href="#m10cb547755" x="181.44987" y="114.76895" style="fill: #e69f00; stroke: #e69f00; stroke-width: 1.5"/>
     <use xlink:href="#m10cb547755" x="228.19727" y="160.036379" style="fill: #e69f00; stroke: #e69f00; stroke-width: 1.5"/>
     <use xlink:href="#m10cb547755" x="255.764126" y="217.58095" style="fill: #e69f00; stroke: #e69f00; stroke-width: 1.5"/>
     <use xlink:href="#m10cb547755" x="290.610947" y="263.040909" style="fill: #e69f00; stroke: #e69f00; stroke-width: 1.5"/>
     <use xlink:href="#m10cb547755" x="328.406772" y="236.741449" style="fill: #e69f00; stroke: #e69f00; stroke-width: 1.5"/>
     <use xlink:href="#m10cb547755" x="361.260737" y="211.848286" style="fill: #e69f00; stroke: #e69f00; stroke-width: 1.5"/>
     <use xlink:href="#m10cb547755" x="404.1" y="183.932462" style="fill: #e69f00; stroke: #e69f00; stroke-width: 1.5"/>
    </g>
   </g>
   <g id="text_1">
    <!-- Barbour: Static Nows -->
    <g style="fill: #333333" transform="translate(130.9825 19.3575) scale(0.16 -0.16)">
     <defs>
      <path id="DejaVuSans-42" d="M 1259 2228 
L 1259 519 
L 2272 519 
Q 2781 519 3026 730 
Q 3272 941 3272 1375 
Q 3272 1813 3026 2020 
Q 2781 2228 2272 2228 
L 1259 2228 
z
M 1259 4147 
L 1259 2741 
L 2194 2741 
Q 2656 2741 2882 2914 
Q 3109 3088 3109 3444 
Q 3109 3797 2882 3972 
Q 2656 4147 2194 4147 
L 1259 4147 
z
M 628 4666 
L 2241 4666 
Q 2963 4666 3353 4366 
Q 3744 4066 3744 3513 
Q 3744 3084 3544 2831 
Q 3344 2578 2956 2516 
Q 3422 2416 3680 2098 
Q 3938 1781 3938 1306 
Q 3938 681 3513 340 
Q 3088 0 2303 0 
L 628 0 
L 628 4666 
z
" transform="scale(0.015625)"/>
      <path id="DejaVuSans-61" d="M 2194 1759 
Q 1497 1759 1228 1600 
Q 959 1441 959 1056 
Q 959 750 1161 570 
Q 1363 391 1709 391 
Q 2188 391 2477 730 
Q 2766 1069 2766 1631 
L 2766 1759 
L 2194 1759 
z
M 3341 1997 
L 3341 0 
L 2766 0 
L 2766 531 
Q 2569 213 2275 61 
Q 1981 -91 1556 -91 
Q 1019 -91 701 211 
Q 384 513 384 1019 
Q 384 1609 779 1909 
Q 1175 2209 1959 2209 
L 2766 2209 
L 2766 2266 
Q 2766 2663 2505 2880 
Q 2244 3097 1772 3097 
Q 1472 3097 1187 3025 
Q 903 2953 641 2809 
L 641 3341 
Q 956 3463 1253 3523 
Q 1550 3584 1831 3584 
Q 2591 3584 2966 3190 
Q 3341 2797 3341 1997 
z
" transform="scale(0.015625)"/>
      <path id="DejaVuSans-72" d="M 2631 2963 
Q 2534 3019 2420 3045 
Q 2306 3072 2169 3072 
Q 1681 3072 1420 2755 
Q 1159 2438 1159 1844 
L 1159 0 
L 581 0 
L 581 3500 
L 1159 3500 
L 1159 2956 
Q 1341 3275 1631 3429 
Q 1922 3584 2338 3584 
Q 2397 3584 2469 3576 
Q 2541 3569 2628 3553 
L 2631 2963 
z
" transform="scale(0.015625)"/>
      <path id="DejaVuSans-62" d="M 3116 1747 
Q 3116 2381 2855 2742 
Q 2594 3103 2138 3103 
Q 1681 3103 1420 2742 
Q 1159 2381 1159 1747 
Q 1159 1113 1420 752 
Q 1681 391 2138 391 
Q 2594 391 2855 752 
Q 3116 1113 3116 1747 
z
M 1159 2969 
Q 1341 3281 1617 3432 
Q 1894 3584 2278 3584 
Q 2916 3584 3314 3078 
Q 3713 2572 3713 1747 
Q 3713 922 3314 415 
Q 2916 -91 2278 -91 
Q 1894 -91 1617 61 
Q 1341 213 1159 525 
L 1159 0 
L 581 0 
L 581 4863 
L 1159 4863 
L 1159 2969 
z
" transform="scale(0.015625)"/>
      <path id="DejaVuSans-6f" d="M 1959 3097 
Q 1497 3097 1228 2736 
Q 959 2375 959 1747 
Q 959 1119 1226 758 
Q 1494 397 1959 397 
Q 2419 397 2687 759 
Q 2956 1122 2956 1747 
Q 2956 2369 2687 2733 
Q 2419 3097 1959 3097 
z
M 1959 3584 
Q 2709 3584 3137 3096 
Q 3566 2609 3566 1747 
Q 3566 888 3137 398 
Q 2709 -91 1959 -91 
Q 1206 -91 779 398 
Q 353 888 353 1747 
Q 353 2609 779 3096 
Q 1206 3584 1959 3584 
z
" transform="scale(0.015625)"/>
      <path id="DejaVuSans-75" d="M 544 1381 
L 544 3500 
L 1119 3500 
L 1119 1403 
Q 1119 906 1312 657 
Q 1506 409 1894 409 
Q 2359 409 2629 706 
Q 2900 1003 2900 1516 
L 2900 3500 
L 3475 3500 
L 3475 0 
L 2900 0 
L 2900 538 
Q 2691 219 2414 64 
Q 2138 -91 1772 -91 
Q 1169 -91 856 284 
Q 544 659 544 1381 
z
M 1991 3584 
L 1991 3584 
z
" transform="scale(0.015625)"/>
      <path id="DejaVuSans-3a" d="M 750 794 
L 1409 794 
L 1409 0 
L 750 0 
L 750 794 
z
M 750 3309 
L 1409 3309 
L 1409 2516 
L 750 2516 
L 750 3309 
z
" transform="scale(0.015625)"/>
      <path id="DejaVuSans-20" transform="scale(0.015625)"/>
      <path id="DejaVuSans-53" d="M 3425 4513 
L 3425 3897 
Q 3066 4069 2747 4153 
Q 2428 4238 2131 4238 
Q 1616 4238 1336 4038 
Q 1056 3838 1056 3469 
Q 1056 3159 1242 3001 
Q 1428 2844 1947 2747 
L 2328 2669 
Q 3034 2534 3370 2195 
Q 3706 1856 3706 1288 
Q 3706 609 3251 259 
Q 2797 -91 1919 -91 
Q 1588 -91 1214 -16 
Q 841 59 441 206 
L 441 856 
Q 825 641 1194 531 
Q 1563 422 1919 422 
Q 2459 422 2753 634 
Q 3047 847 3047 1241 
Q 3047 1584 2836 1778 
Q 2625 1972 2144 2069 
L 1759 2144 
Q 1053 2284 737 2584 
Q 422 2884 422 3419 
Q 422 4038 858 4394 
Q 1294 4750 2059 4750 
Q 2388 4750 2728 4690 
Q 3069 4631 3425 4513 
z
" transform="scale(0.015625)"/>
      <path id="DejaVuSans-74" d="M 1172 4494 
L 1172 3500 
L 2356 3500 
L 2356 3053 
L 1172 3053 
L 1172 1153 
Q 1172 725 1289 603 
Q 1406 481 1766 481 
L 2356 481 
L 2356 0 
L 1766 0 
Q 1100 0 847 248 
Q 594 497 594 1153 
L 594 3053 
L 172 3053 
L 172 3500 
L 594 3500 
L 594 4494 
L 1172 4494 
z
" transform="scale(0.015625)"/>
      <path id="DejaVuSans-69" d="M 603 3500 
L 1178 3500 
L 1178 0 
L 603 0 
L 603 3500 
z
M 603 4863 
L 1178 4863 
L 1178 4134 
L 603 4134 
L 603 4863 
z
" transform="scale(0.015625)"/>
      <path id="DejaVuSans-63" d="M 3122 3366 
L 3122 2828 
Q 2878 2963 2633 3030 
Q 2388 3097 2138 3097 
Q 1578 3097 1268 2742 
Q 959 2388 959 1747 
Q 959 1106 1268 751 
Q 1578 397 2138 397 
Q 2388 397 2633 464 
Q 2878 531 3122 666 
L 3122 134 
Q 2881 22 2623 -34 
Q 2366 -91 2075 -91 
Q 1284 -91 818 406 
Q 353 903 353 1747 
Q 353 2603 823 3093 
Q 1294 3584 2113 3584 
Q 2378 3584 2631 3529 
Q 2884 3475 3122 3366 
z
" transform="scale(0.015625)"/>
      <path id="DejaVuSans-4e" d="M 628 4666 
L 1478 4666 
L 3547 763 
L 3547 4666 
L 4159 4666 
L 4159 0 
L 3309 0 
L 1241 3903 
L 1241 0 
L 628 0 
L 628 4666 
z
" transform="scale(0.015625)"/>
      <path id="DejaVuSans-77" d="M 269 3500 
L 844 3500 
L 1563 769 
L 2278 3500 
L 2956 3500 
L 3675 769 
L 4391 3500 
L 4966 3500 
L 4050 0 
L 3372 0 
L 2619 2869 
L 1863 0 
L 1184 0 
L 269 3500 
z
" transform="scale(0.015625)"/>
      <path id="DejaVuSans-73" d="M 2834 3397 
L 2834 2853 
Q 2591 2978 2328 3040 
Q 2066 3103 1784 3103 
Q 1356 3103 1142 2972 
Q 928 2841 928 2578 
Q 928 2378 1081 2264 
Q 1234 2150 1697 2047 
L 1894 2003 
Q 2506 1872 2764 1633 
Q 3022 1394 3022 966 
Q 3022 478 2636 193 
Q 2250 -91 1575 -91 
Q 1294 -91 989 -36 
Q 684 19 347 128 
L 347 722 
Q 666 556 975 473 
Q 1284 391 1588 391 
Q 1994 391 2212 530 
Q 2431 669 2431 922 
Q 2431 1156 2273 1281 
Q 2116 1406 1581 1522 
L 1381 1569 
Q 847 1681 609 1914 
Q 372 2147 372 2553 
Q 372 3047 722 3315 
Q 1072 3584 1716 3584 
Q 2034 3584 2315 3537 
Q 2597 3491 2834 3397 
z
" transform="scale(0.015625)"/>
     </defs>
     <use xlink:href="#DejaVuSans-42"/>
     <use xlink:href="#DejaVuSans-61" x="68.603516"/>
     <use xlink:href="#DejaVuSans-72" x="129.882812"/>
     <use xlink:href="#DejaVuSans-62" x="170.996094"/>
     <use xlink:href="#DejaVuSans-6f" x="234.472656"/>
     <use xlink:href="#DejaVuSans-75" x="295.654297"/>
     <use xlink:href="#DejaVuSans-72" x="359.033203"/>
     <use xlink:href="#DejaVuSans-3a" x="398.396484"/>
     <use xlink:href="#DejaVuSans-20" x="432.087891"/>
     <use xlink:href="#DejaVuSans-53" x="463.875"/>
     <use xlink:href="#DejaVuSans-74" x="527.351562"/>
     <use xlink:href="#DejaVuSans-61" x="566.560547"/>
     <use xlink:href="#DejaVuSans-74" x="627.839844"/>
     <use xlink:href="#DejaVuSans-69" x="667.048828"/>
     <use xlink:href="#DejaVuSans-63" x="694.832031"/>
     <use xlink:href="#DejaVuSans-20" x="749.8125"/>
     <use xlink:href="#DejaVuSans-4e" x="781.599609"/>
     <use xlink:href="#DejaVuSans-6f" x="856.404297"/>
     <use xlink:href="#DejaVuSans-77" x="917.585938"/>
     <use xlink:href="#DejaVuSans-73" x="999.373047"/>
    </g>
    <!-- (points without pulse) -->
    <g style="fill: #333333" transform="translate(127.66875 37.274) scale(0.16 -0.16)">
     <defs>
      <path id="DejaVuSans-28" d="M 1984 4856 
Q 1566 4138 1362 3434 
Q 1159 2731 1159 2009 
Q 1159 1288 1364 580 
Q 1569 -128 1984 -844 
L 1484 -844 
Q 1016 -109 783 600 
Q 550 1309 550 2009 
Q 550 2706 781 3412 
Q 1013 4119 1484 4856 
L 1984 4856 
z
" transform="scale(0.015625)"/>
      <path id="DejaVuSans-70" d="M 1159 525 
L 1159 -1331 
L 581 -1331 
L 581 3500 
L 1159 3500 
L 1159 2969 
Q 1341 3281 1617 3432 
Q 1894 3584 2278 3584 
Q 2916 3584 3314 3078 
Q 3713 2572 3713 1747 
Q 3713 922 3314 415 
Q 2916 -91 2278 -91 
Q 1894 -91 1617 61 
Q 1341 213 1159 525 
z
M 3116 1747 
Q 3116 2381 2855 2742 
Q 2594 3103 2138 3103 
Q 1681 3103 1420 2742 
Q 1159 2381 1159 1747 
Q 1159 1113 1420 752 
Q 1681 391 2138 391 
Q 2594 391 2855 752 
Q 3116 1113 3116 1747 
z
" transform="scale(0.015625)"/>
      <path id="DejaVuSans-6e" d="M 3513 2113 
L 3513 0 
L 2938 0 
L 2938 2094 
Q 2938 2591 2744 2837 
Q 2550 3084 2163 3084 
Q 1697 3084 1428 2787 
Q 1159 2491 1159 1978 
L 1159 0 
L 581 0 
L 581 3500 
L 1159 3500 
L 1159 2956 
Q 1366 3272 1645 3428 
Q 1925 3584 2291 3584 
Q 2894 3584 3203 3211 
Q 3513 2838 3513 2113 
z
" transform="scale(0.015625)"/>
      <path id="DejaVuSans-68" d="M 3513 2113 
L 3513 0 
L 2938 0 
L 2938 2094 
Q 2938 2591 2744 2837 
Q 2550 3084 2163 3084 
Q 1697 3084 1428 2787 
Q 1159 2491 1159 1978 
L 1159 0 
L 581 0 
L 581 4863 
L 1159 4863 
L 1159 2956 
Q 1366 3272 1645 3428 
Q 1925 3584 2291 3584 
Q 2894 3584 3203 3211 
Q 3513 2838 3513 2113 
z
" transform="scale(0.015625)"/>
      <path id="DejaVuSans-6c" d="M 603 4863 
L 1178 4863 
L 1178 0 
L 603 0 
L 603 4863 
z
" transform="scale(0.015625)"/>
      <path id="DejaVuSans-65" d="M 3597 1894 
L 3597 1613 
L 953 1613 
Q 991 1019 1311 708 
Q 1631 397 2203 397 
Q 2534 397 2845 478 
Q 3156 559 3463 722 
L 3463 178 
Q 3153 47 2828 -22 
Q 2503 -91 2169 -91 
Q 1331 -91 842 396 
Q 353 884 353 1716 
Q 353 2575 817 3079 
Q 1281 3584 2069 3584 
Q 2775 3584 3186 3129 
Q 3597 2675 3597 1894 
z
M 3022 2063 
Q 3016 2534 2758 2815 
Q 2500 3097 2075 3097 
Q 1594 3097 1305 2825 
Q 1016 2553 972 2059 
L 3022 2063 
z
" transform="scale(0.015625)"/>
      <path id="DejaVuSans-29" d="M 513 4856 
L 1013 4856 
Q 1481 4119 1714 3412 
Q 1947 2706 1947 2009 
Q 1947 1309 1714 600 
Q 1481 -109 1013 -844 
L 513 -844 
Q 928 -128 1133 580 
Q 1338 1288 1338 2009 
Q 1338 2731 1133 3434 
Q 928 4138 513 4856 
z
" transform="scale(0.015625)"/>
     </defs>
     <use xlink:href="#DejaVuSans-28"/>
     <use xlink:href="#DejaVuSans-70" x="39.013672"/>
     <use xlink:href="#DejaVuSans-6f" x="102.490234"/>
     <use xlink:href="#DejaVuSans-69" x="163.671875"/>
     <use xlink:href="#DejaVuSans-6e" x="191.455078"/>
     <use xlink:href="#DejaVuSans-74" x="254.833984"/>
     <use xlink:href="#DejaVuSans-73" x="294.042969"/>
     <use xlink:href="#DejaVuSans-20" x="346.142578"/>
     <use xlink:href="#DejaVuSans-77" x="377.929688"/>
     <use xlink:href="#DejaVuSans-69" x="459.716797"/>
     <use xlink:href="#DejaVuSans-74" x="487.5"/>
     <use xlink:href="#DejaVuSans-68" x="526.708984"/>
     <use xlink:href="#DejaVuSans-6f" x="590.087891"/>
     <use xlink:href="#DejaVuSans-75" x="651.269531"/>
     <use xlink:href="#DejaVuSans-74" x="714.648438"/>
     <use xlink:href="#DejaVuSans-20" x="753.857422"/>
     <use xlink:href="#DejaVuSans-70" x="785.644531"/>
     <use xlink:href="#DejaVuSans-75" x="849.121094"/>
     <use xlink:href="#DejaVuSans-6c" x="912.5"/>
     <use xlink:href="#DejaVuSans-73" x="940.283203"/>
     <use xlink:href="#DejaVuSans-65" x="992.382812"/>
     <use xlink:href="#DejaVuSans-29" x="1053.90625"/>
    </g>
   </g>
  </g>
  <g id="axes_2">
   <g id="PathCollection_2">
    <g clip-path="url(#p368ee1f58b)">
     <use xlink:href="#m10cb547755" x="672.737728" y="170.513236" style="fill: #e69f00; stroke: #e69f00; stroke-width: 1.5"/>
     <use xlink:href="#m10cb547755" x="671.181357" y="155.448591" style="fill: #e69f00; stroke: #e69f00; stroke-width: 1.5"/>
     <use xlink:href="#m10cb547755" x="631.862194" y="152.64267" style="fill: #e69f00; stroke: #e69f00; stroke-width: 1.5"/>
     <use xlink:href="#m10cb547755" x="609.621499" y="184.021365" style="fill: #e69f00; stroke: #e69f00; stroke-width: 1.5"/>
     <use xlink:href="#m10cb547755" x="661.992861" y="214.208285" style="fill: #e69f00; stroke: #e69f00; stroke-width: 1.5"/>
     <use xlink:href="#m10cb547755" x="740.710662" y="190.009673" style="fill: #e69f00; stroke: #e69f00; stroke-width: 1.5"/>
     <use xlink:href="#m10cb547755" x="730.879531" y="125.922419" style="fill: #e69f00; stroke: #e69f00; stroke-width: 1.5"/>
     <use xlink:href="#m10cb547755" x="614.881559" y="105.392422" style="fill: #e69f00; stroke: #e69f00; stroke-width: 1.5"/>
     <use xlink:href="#m10cb547755" x="531.190557" y="172.408587" style="fill: #e69f00; stroke: #e69f00; stroke-width: 1.5"/>
     <use xlink:href="#m10cb547755" x="609.316477" y="253.973847" style="fill: #e69f00; stroke: #e69f00; stroke-width: 1.5"/>
     <use xlink:href="#m10cb547755" x="777.299271" y="238.091972" style="fill: #e69f00; stroke: #e69f00; stroke-width: 1.5"/>
     <use xlink:href="#m10cb547755" x="820.0388" y="126.105475" style="fill: #e69f00; stroke: #e69f00; stroke-width: 1.5"/>
     <use xlink:href="#m10cb547755" x="654.454087" y="53.789535" style="fill: #e69f00; stroke: #e69f00; stroke-width: 1.5"/>
     <use xlink:href="#m10cb547755" x="469.813388" y="126.820563" style="fill: #e69f00; stroke: #e69f00; stroke-width: 1.5"/>
    </g>
   </g>
   <g id="line2d_1">
    <path d="M 672.737728 170.513236 
L 674.127009 169.563241 
L 675.294478 168.412649 
L 675.92132 167.544046 
L 676.40859 166.602728 
L 676.741806 165.597144 
L 676.907811 164.53669 
L 676.894924 163.431631 
L 676.693073 162.293015 
L 676.293924 161.132576 
L 675.690994 159.962637 
L 674.879742 158.795994 
L 673.857651 157.645812 
L 672.624289 156.5255 
L 671.181357 155.448591 
L 669.532712 154.428616 
L 667.684373 153.478981 
L 665.644515 152.612836 
L 663.423434 151.842951 
L 661.033502 151.181591 
L 658.489093 150.640392 
L 655.806503 150.230244 
L 653.003841 149.961174 
L 650.10091 149.842243 
L 647.119069 149.881437 
L 644.08108 150.085577 
L 641.010937 150.460234 
L 637.933691 151.009647 
L 634.875253 151.736661 
L 631.862194 152.64267 
L 628.921529 153.727568 
L 626.080503 154.98972 
L 623.366364 156.425939 
L 620.806131 158.031476 
L 618.426371 159.800025 
L 616.252961 161.723738 
L 614.310862 163.793259 
L 612.623893 165.997757 
L 611.214508 168.324991 
L 610.103587 170.761371 
L 609.310227 173.292037 
L 608.851551 175.900953 
L 608.742524 178.571006 
L 608.995785 181.284116 
L 609.621499 184.021365 
L 610.627216 186.763118 
L 612.017754 189.489167 
L 613.795105 192.178876 
L 615.958353 194.811329 
L 618.503617 197.365489 
L 621.424019 199.820355 
L 624.709668 202.155126 
L 628.347673 204.349365 
L 632.322176 206.383161 
L 636.614409 208.237292 
L 641.202771 209.893386 
L 646.062937 211.334076 
L 651.167978 212.543153 
L 656.488509 213.505711 
L 661.992861 214.208285 
L 667.647262 214.638982 
L 673.416052 214.787599 
L 679.261903 214.645735 
L 685.146062 214.206892 
L 691.028604 213.466553 
L 696.868705 212.422263 
L 702.624919 211.073684 
L 708.255471 209.422639 
L 713.718547 207.473143 
L 718.972603 205.231415 
L 723.976667 202.705878 
L 728.690644 199.907136 
L 733.075624 196.847946 
L 737.094179 193.543163 
L 738.95483 191.803873 
L 740.710662 190.009673 
L 742.357544 188.162976 
L 743.891493 186.266313 
L 745.308679 184.322329 
L 746.605437 182.333774 
L 747.778272 180.303507 
L 748.823868 178.234485 
L 749.739095 176.129762 
L 750.521018 173.992486 
L 751.166902 171.82589 
L 751.674217 169.633291 
L 752.040649 167.418084 
L 752.264102 165.183735 
L 752.342705 162.933775 
L 752.274816 160.671801 
L 752.059031 158.401461 
L 751.694183 156.126455 
L 751.179349 153.850525 
L 750.513855 151.577451 
L 749.697276 149.311046 
L 748.729441 147.055144 
L 747.610435 144.813601 
L 746.340604 142.590283 
L 744.920549 140.389061 
L 743.351137 138.213805 
L 741.633492 136.068378 
L 739.769004 133.956627 
L 737.759322 131.882376 
L 735.606359 129.849424 
L 733.312285 127.861532 
L 730.879531 125.922419 
L 728.310784 124.035757 
L 725.608984 122.205162 
L 722.777323 120.434186 
L 719.819241 118.726314 
L 716.738421 117.084956 
L 713.538785 115.513439 
L 710.224492 114.015002 
L 706.799929 112.592791 
L 703.269707 111.24985 
L 699.638655 109.989116 
L 692.094428 107.725455 
L 684.209979 105.822958 
L 676.03107 104.300712 
L 667.606226 103.175574 
L 658.986449 102.462021 
L 650.224909 102.172018 
L 641.376615 102.314891 
L 632.498072 102.897226 
L 628.065436 103.354479 
L 623.64692 103.922783 
L 619.249847 104.602153 
L 614.881559 105.392422 
L 610.549413 106.293238 
L 606.260765 107.304061 
L 602.022955 108.424164 
L 597.8433 109.652636 
L 593.729078 110.988376 
L 589.687515 112.430098 
L 585.725775 113.976331 
L 581.850947 115.62542 
L 578.070029 117.375524 
L 574.389922 119.224624 
L 570.817411 121.17052 
L 567.359157 123.210837 
L 564.021685 125.343023 
L 560.811369 127.564357 
L 557.734423 129.87195 
L 554.796889 132.262749 
L 552.004625 134.733538 
L 549.363293 137.280949 
L 546.878352 139.90146 
L 544.555042 142.591403 
L 542.398379 145.346967 
L 540.413139 148.164207 
L 538.603856 151.039046 
L 536.974806 153.967281 
L 535.530002 156.944593 
L 534.273183 159.966548 
L 533.207807 163.028608 
L 532.337045 166.126135 
L 531.663771 169.254399 
L 531.190557 172.408587 
L 530.919663 175.583805 
L 530.853039 178.775094 
L 530.99231 181.97743 
L 531.33878 185.185735 
L 531.893419 188.394886 
L 532.656866 191.599721 
L 533.629425 194.79505 
L 534.811056 197.97566 
L 536.201381 201.136327 
L 537.799678 204.271822 
L 539.604879 207.37692 
L 541.615572 210.44641 
L 543.829999 213.475103 
L 546.24606 216.45784 
L 548.86131 219.3895 
L 551.672963 222.265013 
L 554.677893 225.079364 
L 557.872639 227.827602 
L 561.253408 230.504851 
L 564.816076 233.106319 
L 568.556199 235.627302 
L 572.469011 238.063197 
L 576.549434 240.409508 
L 580.792085 242.661854 
L 585.191279 244.815977 
L 589.741041 246.867751 
L 594.43511 248.813189 
L 599.26695 250.64845 
L 604.229759 252.369845 
L 609.316477 253.973847 
L 614.519796 255.457097 
L 619.832172 256.816407 
L 625.245835 258.048772 
L 630.752799 259.151372 
L 636.344878 260.121579 
L 642.013693 260.956963 
L 647.750685 261.655294 
L 653.547135 262.214554 
L 659.394166 262.632935 
L 665.282766 262.908843 
L 671.203798 263.040909 
L 677.148015 263.027985 
L 683.106071 262.86915 
L 689.068543 262.563714 
L 695.025938 262.11122 
L 700.968714 261.511444 
L 706.887292 260.764401 
L 712.772072 259.870342 
L 718.613451 258.829758 
L 724.401834 257.643378 
L 730.127653 256.312171 
L 735.781383 254.837349 
L 741.353556 253.220358 
L 746.834778 251.462886 
L 752.215744 249.566855 
L 757.487253 247.534425 
L 762.640227 245.367987 
L 767.665721 243.070162 
L 772.554944 240.643799 
L 777.299271 238.091972 
L 781.890258 235.417974 
L 786.319657 232.625316 
L 790.579431 229.717719 
L 794.661769 226.699113 
L 798.559099 223.573628 
L 802.2641 220.345591 
L 805.769721 217.019521 
L 809.069185 213.600119 
L 812.156011 210.092264 
L 815.02402 206.501007 
L 817.667348 202.831561 
L 820.080459 199.089296 
L 822.258154 195.279729 
L 824.195582 191.408517 
L 825.888251 187.48145 
L 827.332034 183.50444 
L 828.523181 179.483512 
L 829.458326 175.424798 
L 830.134494 171.334524 
L 830.549109 167.219002 
L 830.7 163.084622 
L 830.585405 158.937839 
L 830.203981 154.785164 
L 829.5548 150.633155 
L 828.637363 146.488405 
L 827.451596 142.357532 
L 825.997853 138.24717 
L 824.276922 134.163955 
L 822.29002 130.114519 
L 820.0388 126.105475 
L 817.525345 122.143406 
L 814.75217 118.234861 
L 811.72222 114.386334 
L 808.438864 110.604262 
L 804.905899 106.895009 
L 801.12754 103.264858 
L 797.108417 99.72 
L 792.85357 96.266521 
L 788.368444 92.910398 
L 783.65888 89.65748 
L 778.731112 86.513485 
L 773.591753 83.483987 
L 768.24779 80.574406 
L 762.706576 77.790002 
L 756.975817 75.13586 
L 751.063561 72.616885 
L 744.978192 70.237793 
L 738.728411 68.003101 
L 732.323229 65.917119 
L 725.771953 63.983941 
L 719.08417 62.207442 
L 712.269737 60.591264 
L 705.338763 59.138814 
L 698.301596 57.853254 
L 691.168807 56.737498 
L 683.951173 55.794204 
L 676.659664 55.025766 
L 669.305424 54.434316 
L 661.899751 54.021711 
L 654.454087 53.789535 
L 646.979994 53.739091 
L 639.489138 53.871399 
L 631.993273 54.187194 
L 624.504217 54.686923 
L 617.033841 55.370739 
L 609.594043 56.238507 
L 602.196734 57.289796 
L 594.853816 58.523879 
L 587.577165 59.939739 
L 580.37861 61.536059 
L 573.269915 63.311233 
L 566.26276 65.26336 
L 559.36872 67.390249 
L 552.599249 69.689418 
L 545.965659 72.158101 
L 539.479099 74.793248 
L 533.150543 77.59153 
L 526.990765 80.54934 
L 521.010323 83.662802 
L 515.219542 86.927773 
L 509.628498 90.339848 
L 504.246994 93.894369 
L 499.084552 97.586427 
L 494.150387 101.410871 
L 489.453401 105.362316 
L 485.002157 109.435148 
L 480.804873 113.623534 
L 476.869399 117.921429 
L 473.203211 122.322586 
L 469.813388 126.820563 
L 466.706608 131.408736 
L 463.889129 136.080304 
L 461.366781 140.828301 
L 459.14495 145.64561 
L 457.228575 150.524968 
L 455.622128 155.45898 
L 454.329615 160.440129 
L 453.35456 165.460789 
L 452.7 170.513236 
L 452.7 170.513236 
" clip-path="url(#p368ee1f58b)" style="fill: none; stroke: #e69f00; stroke-width: 1.5; stroke-linecap: square"/>
   </g>
   <g id="text_2">
    <!-- Pulse Spirals: Pulsating traces -->
    <g style="fill: #333333" transform="translate(521.98 19.3575) scale(0.16 -0.16)">
     <defs>
      <path id="DejaVuSans-50" d="M 1259 4147 
L 1259 2394 
L 2053 2394 
Q 2494 2394 2734 2622 
Q 2975 2850 2975 3272 
Q 2975 3691 2734 3919 
Q 2494 4147 2053 4147 
L 1259 4147 
z
M 628 4666 
L 2053 4666 
Q 2838 4666 3239 4311 
Q 3641 3956 3641 3272 
Q 3641 2581 3239 2228 
Q 2838 1875 2053 1875 
L 1259 1875 
L 1259 0 
L 628 0 
L 628 4666 
z
" transform="scale(0.015625)"/>
      <path id="DejaVuSans-67" d="M 2906 1791 
Q 2906 2416 2648 2759 
Q 2391 3103 1925 3103 
Q 1463 3103 1205 2759 
Q 947 2416 947 1791 
Q 947 1169 1205 825 
Q 1463 481 1925 481 
Q 2391 481 2648 825 
Q 2906 1169 2906 1791 
z
M 3481 434 
Q 3481 -459 3084 -895 
Q 2688 -1331 1869 -1331 
Q 1566 -1331 1297 -1286 
Q 1028 -1241 775 -1147 
L 775 -588 
Q 1028 -725 1275 -790 
Q 1522 -856 1778 -856 
Q 2344 -856 2625 -561 
Q 2906 -266 2906 331 
L 2906 616 
Q 2728 306 2450 153 
Q 2172 0 1784 0 
Q 1141 0 747 490 
Q 353 981 353 1791 
Q 353 2603 747 3093 
Q 1141 3584 1784 3584 
Q 2172 3584 2450 3431 
Q 2728 3278 2906 2969 
L 2906 3500 
L 3481 3500 
L 3481 434 
z
" transform="scale(0.015625)"/>
     </defs>
     <use xlink:href="#DejaVuSans-50"/>
     <use xlink:href="#DejaVuSans-75" x="58.552734"/>
     <use xlink:href="#DejaVuSans-6c" x="121.931641"/>
     <use xlink:href="#DejaVuSans-73" x="149.714844"/>
     <use xlink:href="#DejaVuSans-65" x="201.814453"/>
     <use xlink:href="#DejaVuSans-20" x="263.337891"/>
     <use xlink:href="#DejaVuSans-53" x="295.125"/>
     <use xlink:href="#DejaVuSans-70" x="358.601562"/>
     <use xlink:href="#DejaVuSans-69" x="422.078125"/>
     <use xlink:href="#DejaVuSans-72" x="449.861328"/>
     <use xlink:href="#DejaVuSans-61" x="490.974609"/>
     <use xlink:href="#DejaVuSans-6c" x="552.253906"/>
     <use xlink:href="#DejaVuSans-73" x="580.037109"/>
     <use xlink:href="#DejaVuSans-3a" x="632.136719"/>
     <use xlink:href="#DejaVuSans-20" x="665.828125"/>
     <use xlink:href="#DejaVuSans-50" x="697.615234"/>
     <use xlink:href="#DejaVuSans-75" x="756.167969"/>
     <use xlink:href="#DejaVuSans-6c" x="819.546875"/>
     <use xlink:href="#DejaVuSans-73" x="847.330078"/>
     <use xlink:href="#DejaVuSans-61" x="899.429688"/>
     <use xlink:href="#DejaVuSans-74" x="960.708984"/>
     <use xlink:href="#DejaVuSans-69" x="999.917969"/>
     <use xlink:href="#DejaVuSans-6e" x="1027.701172"/>
     <use xlink:href="#DejaVuSans-67" x="1091.080078"/>
     <use xlink:href="#DejaVuSans-20" x="1154.556641"/>
     <use xlink:href="#DejaVuSans-74" x="1186.34375"/>
     <use xlink:href="#DejaVuSans-72" x="1225.552734"/>
     <use xlink:href="#DejaVuSans-61" x="1266.666016"/>
     <use xlink:href="#DejaVuSans-63" x="1327.945312"/>
     <use xlink:href="#DejaVuSans-65" x="1382.925781"/>
     <use xlink:href="#DejaVuSans-73" x="1444.449219"/>
    </g>
    <!-- (spiral accumulation of pulses) -->
    <g style="fill: #333333" transform="translate(518.52625 37.274) scale(0.16 -0.16)">
     <defs>
      <path id="DejaVuSans-6d" d="M 3328 2828 
Q 3544 3216 3844 3400 
Q 4144 3584 4550 3584 
Q 5097 3584 5394 3201 
Q 5691 2819 5691 2113 
L 5691 0 
L 5113 0 
L 5113 2094 
Q 5113 2597 4934 2840 
Q 4756 3084 4391 3084 
Q 3944 3084 3684 2787 
Q 3425 2491 3425 1978 
L 3425 0 
L 2847 0 
L 2847 2094 
Q 2847 2600 2669 2842 
Q 2491 3084 2119 3084 
Q 1678 3084 1418 2786 
Q 1159 2488 1159 1978 
L 1159 0 
L 581 0 
L 581 3500 
L 1159 3500 
L 1159 2956 
Q 1356 3278 1631 3431 
Q 1906 3584 2284 3584 
Q 2666 3584 2933 3390 
Q 3200 3197 3328 2828 
z
" transform="scale(0.015625)"/>
      <path id="DejaVuSans-66" d="M 2375 4863 
L 2375 4384 
L 1825 4384 
Q 1516 4384 1395 4259 
Q 1275 4134 1275 3809 
L 1275 3500 
L 2222 3500 
L 2222 3053 
L 1275 3053 
L 1275 0 
L 697 0 
L 697 3053 
L 147 3053 
L 147 3500 
L 697 3500 
L 697 3744 
Q 697 4328 969 4595 
Q 1241 4863 1831 4863 
L 2375 4863 
z
" transform="scale(0.015625)"/>
     </defs>
     <use xlink:href="#DejaVuSans-28"/>
     <use xlink:href="#DejaVuSans-73" x="39.013672"/>
     <use xlink:href="#DejaVuSans-70" x="91.113281"/>
     <use xlink:href="#DejaVuSans-69" x="154.589844"/>
     <use xlink:href="#DejaVuSans-72" x="182.373047"/>
     <use xlink:href="#DejaVuSans-61" x="223.486328"/>
     <use xlink:href="#DejaVuSans-6c" x="284.765625"/>
     <use xlink:href="#DejaVuSans-20" x="312.548828"/>
     <use xlink:href="#DejaVuSans-61" x="344.335938"/>
     <use xlink:href="#DejaVuSans-63" x="405.615234"/>
     <use xlink:href="#DejaVuSans-63" x="460.595703"/>
     <use xlink:href="#DejaVuSans-75" x="515.576172"/>
     <use xlink:href="#DejaVuSans-6d" x="578.955078"/>
     <use xlink:href="#DejaVuSans-75" x="676.367188"/>
     <use xlink:href="#DejaVuSans-6c" x="739.746094"/>
     <use xlink:href="#DejaVuSans-61" x="767.529297"/>
     <use xlink:href="#DejaVuSans-74" x="828.808594"/>
     <use xlink:href="#DejaVuSans-69" x="868.017578"/>
     <use xlink:href="#DejaVuSans-6f" x="895.800781"/>
     <use xlink:href="#DejaVuSans-6e" x="956.982422"/>
     <use xlink:href="#DejaVuSans-20" x="1020.361328"/>
     <use xlink:href="#DejaVuSans-6f" x="1052.148438"/>
     <use xlink:href="#DejaVuSans-66" x="1113.330078"/>
     <use xlink:href="#DejaVuSans-20" x="1148.535156"/>
     <use xlink:href="#DejaVuSans-70" x="1180.322266"/>
     <use xlink:href="#DejaVuSans-75" x="1243.798828"/>
     <use xlink:href="#DejaVuSans-6c" x="1307.177734"/>
     <use xlink:href="#DejaVuSans-73" x="1334.960938"/>
     <use xlink:href="#DejaVuSans-65" x="1387.060547"/>
     <use xlink:href="#DejaVuSans-73" x="1448.583984"/>
     <use xlink:href="#DejaVuSans-29" x="1500.683594"/>
    </g>
   </g>
  </g>
 </g>
 <defs>
  <clipPath id="p88305825b1">
   <rect x="7.2" y="43.274" width="415.8" height="230.232"/>
  </clipPath>
  <clipPath id="p368ee1f58b">
   <rect x="433.8" y="43.274" width="415.8" height="230.232"/>
  </clipPath>
 </defs>
</svg>
