<?xml version="1.0" encoding="utf-8" standalone="no"?>
<!DOCTYPE svg PUBLIC "-//W3C//DTD SVG 1.1//EN"
  "http://www.w3.org/Graphics/SVG/1.1/DTD/svg11.dtd">
<svg xmlns:xlink="http://www.w3.org/1999/xlink" width="856.8pt" height="208.706pt" viewBox="0 0 856.8 208.706" xmlns="http://www.w3.org/2000/svg" version="1.1">
 <metadata>
  <rdf:RDF xmlns:dc="http://purl.org/dc/elements/1.1/" xmlns:cc="http://creativecommons.org/ns#" xmlns:rdf="http://www.w3.org/1999/02/22-rdf-syntax-ns#">
   <cc:Work>
    <dc:type rdf:resource="http://purl.org/dc/dcmitype/StillImage"/>
    <dc:date>2025-09-10T00:07:41.575066</dc:date>
    <dc:format>image/svg+xml</dc:format>
    <dc:creator>
     <cc:Agent>
      <dc:title>Matplotlib v3.6.3, https://matplotlib.org/</dc:title>
     </cc:Agent>
    </dc:creator>
   </cc:Work>
  </rdf:RDF>
 </metadata>
 <defs>
  <style type="text/css">*{stroke-linejoin: round; stroke-linecap: butt}</style>
 </defs>
 <g id="figure_1">
  <g id="patch_1">
   <path d="M 0 208.706 
L 856.8 208.706 
L 856.8 0 
L 0 0 
z
" style="fill: #ffffff"/>
  </g>
  <g id="axes_1">
   <g id="line2d_1">
    <path d="M 16.404545 194.313636 
L 18.26405 192.860634 
L 20.123554 191.407631 
L 21.983058 189.954628 
L 23.842562 188.501625 
L 25.702066 187.048623 
L 27.56157 185.59562 
L 29.421074 184.142617 
L 31.280579 182.689614 
L 33.140083 181.236612 
L 34.999587 179.783609 
L 36.859091 178.330606 
L 38.718595 176.877603 
L 40.578099 175.424601 
L 42.437603 173.971598 
L 44.297107 172.518595 
L 46.156612 171.065592 
L 48.016116 169.61259 
L 49.87562 168.159587 
L 51.735124 166.706584 
L 53.594628 165.253581 
L 55.454132 163.800579 
L 57.313636 162.347576 
L 59.17314 160.894573 
L 61.032645 159.44157 
L 62.892149 157.988567 
L 64.751653 156.535565 
L 66.611157 155.082562 
L 68.470661 153.629559 
L 70.330165 152.176556 
L 72.189669 150.723554 
L 74.049174 149.270551 
L 75.908678 147.817548 
L 77.768182 146.364545 
L 79.627686 144.911543 
L 81.48719 143.45854 
L 83.346694 142.005537 
L 85.206198 140.552534 
L 87.065702 139.099532 
L 88.925207 137.646529 
L 90.784711 136.193526 
L 92.644215 134.740523 
L 94.503719 133.287521 
L 96.363223 131.834518 
L 98.222727 130.381515 
L 100.082231 128.928512 
L 101.941736 127.47551 
L 103.80124 126.022507 
L 105.660744 124.569504 
L 107.520248 123.116501 
L 109.379752 121.663499 
L 111.239256 120.210496 
L 113.09876 118.757493 
L 114.958264 117.30449 
L 116.817769 115.851488 
L 118.677273 114.398485 
L 120.536777 112.945482 
L 122.396281 111.492479 
L 124.255785 110.039477 
L 126.115289 108.586474 
L 127.974793 107.133471 
L 129.834298 105.680468 
L 131.693802 104.227466 
L 133.553306 102.774463 
L 135.41281 101.32146 
L 137.272314 99.868457 
L 139.131818 98.415455 
L 140.991322 96.962452 
L 142.850826 95.509449 
L 144.710331 94.056446 
L 146.569835 92.603444 
L 148.429339 91.150441 
L 150.288843 89.697438 
L 152.148347 88.244435 
L 154.007851 86.791433 
L 155.867355 85.33843 
L 157.72686 83.885427 
L 159.586364 82.432424 
L 161.445868 80.979421 
L 163.305372 79.526419 
L 165.164876 78.073416 
L 167.02438 76.620413 
L 168.883884 75.16741 
L 170.743388 73.714408 
L 172.602893 72.261405 
L 174.462397 70.808402 
L 176.321901 69.355399 
L 178.181405 67.902397 
L 180.040909 66.449394 
L 181.900413 64.996391 
L 183.759917 63.543388 
L 185.619421 62.090386 
L 187.478926 60.637383 
L 189.33843 59.18438 
L 191.197934 57.731377 
L 193.057438 56.278375 
L 194.916942 54.825372 
L 196.776446 53.372369 
L 198.63595 51.919366 
L 200.495455 50.466364 
" clip-path="url(#p2b1fcd03c5)" style="fill: none; stroke: #e69f00; stroke-width: 1.5; stroke-linecap: square"/>
   </g>
   <g id="text_1">
    <!-- Line -->
    <g style="fill: #333333" transform="translate(91.7775 19.3575) scale(0.16 -0.16)">
     <defs>
      <path id="DejaVuSans-4c" d="M 628 4666 
L 1259 4666 
L 1259 531 
L 3531 531 
L 3531 0 
L 628 0 
L 628 4666 
z
" transform="scale(0.015625)"/>
      <path id="DejaVuSans-69" d="M 603 3500 
L 1178 3500 
L 1178 0 
L 603 0 
L 603 3500 
z
M 603 4863 
L 1178 4863 
L 1178 4134 
L 603 4134 
L 603 4863 
z
" transform="scale(0.015625)"/>
      <path id="DejaVuSans-6e" d="M 3513 2113 
L 3513 0 
L 2938 0 
L 2938 2094 
Q 2938 2591 2744 2837 
Q 2550 3084 2163 3084 
Q 1697 3084 1428 2787 
Q 1159 2491 1159 1978 
L 1159 0 
L 581 0 
L 581 3500 
L 1159 3500 
L 1159 2956 
Q 1366 3272 1645 3428 
Q 1925 3584 2291 3584 
Q 2894 3584 3203 3211 
Q 3513 2838 3513 2113 
z
" transform="scale(0.015625)"/>
      <path id="DejaVuSans-65" d="M 3597 1894 
L 3597 1613 
L 953 1613 
Q 991 1019 1311 708 
Q 1631 397 2203 397 
Q 2534 397 2845 478 
Q 3156 559 3463 722 
L 3463 178 
Q 3153 47 2828 -22 
Q 2503 -91 2169 -91 
Q 1331 -91 842 396 
Q 353 884 353 1716 
Q 353 2575 817 3079 
Q 1281 3584 2069 3584 
Q 2775 3584 3186 3129 
Q 3597 2675 3597 1894 
z
M 3022 2063 
Q 3016 2534 2758 2815 
Q 2500 3097 2075 3097 
Q 1594 3097 1305 2825 
Q 1016 2553 972 2059 
L 3022 2063 
z
" transform="scale(0.015625)"/>
     </defs>
     <use xlink:href="#DejaVuSans-4c"/>
     <use xlink:href="#DejaVuSans-69" x="55.712891"/>
     <use xlink:href="#DejaVuSans-6e" x="83.496094"/>
     <use xlink:href="#DejaVuSans-65" x="146.875"/>
    </g>
    <!-- (Time as a straight flow) -->
    <g style="fill: #333333" transform="translate(11.0125 37.274) scale(0.16 -0.16)">
     <defs>
      <path id="DejaVuSans-28" d="M 1984 4856 
Q 1566 4138 1362 3434 
Q 1159 2731 1159 2009 
Q 1159 1288 1364 580 
Q 1569 -128 1984 -844 
L 1484 -844 
Q 1016 -109 783 600 
Q 550 1309 550 2009 
Q 550 2706 781 3412 
Q 1013 4119 1484 4856 
L 1984 4856 
z
" transform="scale(0.015625)"/>
      <path id="DejaVuSans-54" d="M -19 4666 
L 3928 4666 
L 3928 4134 
L 2272 4134 
L 2272 0 
L 1638 0 
L 1638 4134 
L -19 4134 
L -19 4666 
z
" transform="scale(0.015625)"/>
      <path id="DejaVuSans-6d" d="M 3328 2828 
Q 3544 3216 3844 3400 
Q 4144 3584 4550 3584 
Q 5097 3584 5394 3201 
Q 5691 2819 5691 2113 
L 5691 0 
L 5113 0 
L 5113 2094 
Q 5113 2597 4934 2840 
Q 4756 3084 4391 3084 
Q 3944 3084 3684 2787 
Q 3425 2491 3425 1978 
L 3425 0 
L 2847 0 
L 2847 2094 
Q 2847 2600 2669 2842 
Q 2491 3084 2119 3084 
Q 1678 3084 1418 2786 
Q 1159 2488 1159 1978 
L 1159 0 
L 581 0 
L 581 3500 
L 1159 3500 
L 1159 2956 
Q 1356 3278 1631 3431 
Q 1906 3584 2284 3584 
Q 2666 3584 2933 3390 
Q 3200 3197 3328 2828 
z
" transform="scale(0.015625)"/>
      <path id="DejaVuSans-20" transform="scale(0.015625)"/>
      <path id="DejaVuSans-61" d="M 2194 1759 
Q 1497 1759 1228 1600 
Q 959 1441 959 1056 
Q 959 750 1161 570 
Q 1363 391 1709 391 
Q 2188 391 2477 730 
Q 2766 1069 2766 1631 
L 2766 1759 
L 2194 1759 
z
M 3341 1997 
L 3341 0 
L 2766 0 
L 2766 531 
Q 2569 213 2275 61 
Q 1981 -91 1556 -91 
Q 1019 -91 701 211 
Q 384 513 384 1019 
Q 384 1609 779 1909 
Q 1175 2209 1959 2209 
L 2766 2209 
L 2766 2266 
Q 2766 2663 2505 2880 
Q 2244 3097 1772 3097 
Q 1472 3097 1187 3025 
Q 903 2953 641 2809 
L 641 3341 
Q 956 3463 1253 3523 
Q 1550 3584 1831 3584 
Q 2591 3584 2966 3190 
Q 3341 2797 3341 1997 
z
" transform="scale(0.015625)"/>
      <path id="DejaVuSans-73" d="M 2834 3397 
L 2834 2853 
Q 2591 2978 2328 3040 
Q 2066 3103 1784 3103 
Q 1356 3103 1142 2972 
Q 928 2841 928 2578 
Q 928 2378 1081 2264 
Q 1234 2150 1697 2047 
L 1894 2003 
Q 2506 1872 2764 1633 
Q 3022 1394 3022 966 
Q 3022 478 2636 193 
Q 2250 -91 1575 -91 
Q 1294 -91 989 -36 
Q 684 19 347 128 
L 347 722 
Q 666 556 975 473 
Q 1284 391 1588 391 
Q 1994 391 2212 530 
Q 2431 669 2431 922 
Q 2431 1156 2273 1281 
Q 2116 1406 1581 1522 
L 1381 1569 
Q 847 1681 609 1914 
Q 372 2147 372 2553 
Q 372 3047 722 3315 
Q 1072 3584 1716 3584 
Q 2034 3584 2315 3537 
Q 2597 3491 2834 3397 
z
" transform="scale(0.015625)"/>
      <path id="DejaVuSans-74" d="M 1172 4494 
L 1172 3500 
L 2356 3500 
L 2356 3053 
L 1172 3053 
L 1172 1153 
Q 1172 725 1289 603 
Q 1406 481 1766 481 
L 2356 481 
L 2356 0 
L 1766 0 
Q 1100 0 847 248 
Q 594 497 594 1153 
L 594 3053 
L 172 3053 
L 172 3500 
L 594 3500 
L 594 4494 
L 1172 4494 
z
" transform="scale(0.015625)"/>
      <path id="DejaVuSans-72" d="M 2631 2963 
Q 2534 3019 2420 3045 
Q 2306 3072 2169 3072 
Q 1681 3072 1420 2755 
Q 1159 2438 1159 1844 
L 1159 0 
L 581 0 
L 581 3500 
L 1159 3500 
L 1159 2956 
Q 1341 3275 1631 3429 
Q 1922 3584 2338 3584 
Q 2397 3584 2469 3576 
Q 2541 3569 2628 3553 
L 2631 2963 
z
" transform="scale(0.015625)"/>
      <path id="DejaVuSans-67" d="M 2906 1791 
Q 2906 2416 2648 2759 
Q 2391 3103 1925 3103 
Q 1463 3103 1205 2759 
Q 947 2416 947 1791 
Q 947 1169 1205 825 
Q 1463 481 1925 481 
Q 2391 481 2648 825 
Q 2906 1169 2906 1791 
z
M 3481 434 
Q 3481 -459 3084 -895 
Q 2688 -1331 1869 -1331 
Q 1566 -1331 1297 -1286 
Q 1028 -1241 775 -1147 
L 775 -588 
Q 1028 -725 1275 -790 
Q 1522 -856 1778 -856 
Q 2344 -856 2625 -561 
Q 2906 -266 2906 331 
L 2906 616 
Q 2728 306 2450 153 
Q 2172 0 1784 0 
Q 1141 0 747 490 
Q 353 981 353 1791 
Q 353 2603 747 3093 
Q 1141 3584 1784 3584 
Q 2172 3584 2450 3431 
Q 2728 3278 2906 2969 
L 2906 3500 
L 3481 3500 
L 3481 434 
z
" transform="scale(0.015625)"/>
      <path id="DejaVuSans-68" d="M 3513 2113 
L 3513 0 
L 2938 0 
L 2938 2094 
Q 2938 2591 2744 2837 
Q 2550 3084 2163 3084 
Q 1697 3084 1428 2787 
Q 1159 2491 1159 1978 
L 1159 0 
L 581 0 
L 581 4863 
L 1159 4863 
L 1159 2956 
Q 1366 3272 1645 3428 
Q 1925 3584 2291 3584 
Q 2894 3584 3203 3211 
Q 3513 2838 3513 2113 
z
" transform="scale(0.015625)"/>
      <path id="DejaVuSans-66" d="M 2375 4863 
L 2375 4384 
L 1825 4384 
Q 1516 4384 1395 4259 
Q 1275 4134 1275 3809 
L 1275 3500 
L 2222 3500 
L 2222 3053 
L 1275 3053 
L 1275 0 
L 697 0 
L 697 3053 
L 147 3053 
L 147 3500 
L 697 3500 
L 697 3744 
Q 697 4328 969 4595 
Q 1241 4863 1831 4863 
L 2375 4863 
z
" transform="scale(0.015625)"/>
      <path id="DejaVuSans-6c" d="M 603 4863 
L 1178 4863 
L 1178 0 
L 603 0 
L 603 4863 
z
" transform="scale(0.015625)"/>
      <path id="DejaVuSans-6f" d="M 1959 3097 
Q 1497 3097 1228 2736 
Q 959 2375 959 1747 
Q 959 1119 1226 758 
Q 1494 397 1959 397 
Q 2419 397 2687 759 
Q 2956 1122 2956 1747 
Q 2956 2369 2687 2733 
Q 2419 3097 1959 3097 
z
M 1959 3584 
Q 2709 3584 3137 3096 
Q 3566 2609 3566 1747 
Q 3566 888 3137 398 
Q 2709 -91 1959 -91 
Q 1206 -91 779 398 
Q 353 888 353 1747 
Q 353 2609 779 3096 
Q 1206 3584 1959 3584 
z
" transform="scale(0.015625)"/>
      <path id="DejaVuSans-77" d="M 269 3500 
L 844 3500 
L 1563 769 
L 2278 3500 
L 2956 3500 
L 3675 769 
L 4391 3500 
L 4966 3500 
L 4050 0 
L 3372 0 
L 2619 2869 
L 1863 0 
L 1184 0 
L 269 3500 
z
" transform="scale(0.015625)"/>
      <path id="DejaVuSans-29" d="M 513 4856 
L 1013 4856 
Q 1481 4119 1714 3412 
Q 1947 2706 1947 2009 
Q 1947 1309 1714 600 
Q 1481 -109 1013 -844 
L 513 -844 
Q 928 -128 1133 580 
Q 1338 1288 1338 2009 
Q 1338 2731 1133 3434 
Q 928 4138 513 4856 
z
" transform="scale(0.015625)"/>
     </defs>
     <use xlink:href="#DejaVuSans-28"/>
     <use xlink:href="#DejaVuSans-54" x="39.013672"/>
     <use xlink:href="#DejaVuSans-69" x="96.972656"/>
     <use xlink:href="#DejaVuSans-6d" x="124.755859"/>
     <use xlink:href="#DejaVuSans-65" x="222.167969"/>
     <use xlink:href="#DejaVuSans-20" x="283.691406"/>
     <use xlink:href="#DejaVuSans-61" x="315.478516"/>
     <use xlink:href="#DejaVuSans-73" x="376.757812"/>
     <use xlink:href="#DejaVuSans-20" x="428.857422"/>
     <use xlink:href="#DejaVuSans-61" x="460.644531"/>
     <use xlink:href="#DejaVuSans-20" x="521.923828"/>
     <use xlink:href="#DejaVuSans-73" x="553.710938"/>
     <use xlink:href="#DejaVuSans-74" x="605.810547"/>
     <use xlink:href="#DejaVuSans-72" x="645.019531"/>
     <use xlink:href="#DejaVuSans-61" x="686.132812"/>
     <use xlink:href="#DejaVuSans-69" x="747.412109"/>
     <use xlink:href="#DejaVuSans-67" x="775.195312"/>
     <use xlink:href="#DejaVuSans-68" x="838.671875"/>
     <use xlink:href="#DejaVuSans-74" x="902.050781"/>
     <use xlink:href="#DejaVuSans-20" x="941.259766"/>
     <use xlink:href="#DejaVuSans-66" x="973.046875"/>
     <use xlink:href="#DejaVuSans-6c" x="1008.251953"/>
     <use xlink:href="#DejaVuSans-6f" x="1036.035156"/>
     <use xlink:href="#DejaVuSans-77" x="1097.216797"/>
     <use xlink:href="#DejaVuSans-29" x="1179.003906"/>
    </g>
   </g>
  </g>
  <g id="axes_2">
   <g id="line2d_2">
    <path d="M 413.795455 122.39 
L 413.610091 117.827747 
L 413.054745 113.283864 
L 412.131654 108.776649 
L 410.844535 104.32425 
L 409.198571 99.944595 
L 407.200388 95.65532 
L 404.858034 91.473696 
L 402.180939 87.416561 
L 399.179885 83.500251 
L 395.866954 79.740537 
L 392.255487 76.152558 
L 388.360026 72.75076 
L 384.196256 69.548842 
L 379.780944 66.559696 
L 375.131869 63.79536 
L 370.267751 61.266963 
L 365.208175 58.984688 
L 359.973515 56.957723 
L 354.584849 55.194231 
L 349.063876 53.701312 
L 343.432826 52.484979 
L 337.714374 51.550129 
L 331.931545 50.900525 
L 326.107626 50.538785 
L 320.266066 50.466364 
L 314.430389 50.683554 
L 308.624091 51.18948 
L 302.870554 51.982106 
L 297.192944 53.05824 
L 291.614124 54.413548 
L 286.156557 56.042574 
L 280.842219 57.938757 
L 275.692508 60.094462 
L 270.728162 62.50101 
L 265.969169 65.14871 
L 261.434692 68.0269 
L 257.142991 71.123991 
L 253.111346 74.427512 
L 249.355991 77.924161 
L 245.892049 81.599858 
L 242.733466 85.439803 
L 239.892961 89.428533 
L 237.381972 93.549988 
L 235.210611 97.787571 
L 233.387619 102.124219 
L 231.920339 106.542471 
L 230.814677 111.024534 
L 230.075087 115.552363 
L 229.704545 120.107724 
L 229.704545 124.672276 
L 230.075087 129.227637 
L 230.814677 133.755466 
L 231.920339 138.237529 
L 233.387619 142.655781 
L 235.210611 146.992429 
L 237.381972 151.230012 
L 239.892961 155.351467 
L 242.733466 159.340197 
L 245.892049 163.180142 
L 249.355991 166.855839 
L 253.111346 170.352488 
L 257.142991 173.656009 
L 261.434692 176.7531 
L 265.969169 179.63129 
L 270.728162 182.27899 
L 275.692508 184.685538 
L 280.842219 186.841243 
L 286.156557 188.737426 
L 291.614124 190.366452 
L 297.192944 191.72176 
L 302.870554 192.797894 
L 308.624091 193.59052 
L 314.430389 194.096446 
L 320.266066 194.313636 
L 326.107626 194.241215 
L 331.931545 193.879475 
L 337.714374 193.229871 
L 343.432826 192.295021 
L 349.063876 191.078688 
L 354.584849 189.585769 
L 359.973515 187.822277 
L 365.208175 185.795312 
L 370.267751 183.513037 
L 375.131869 180.98464 
L 379.780944 178.220304 
L 384.196256 175.231158 
L 388.360026 172.02924 
L 392.255487 168.627442 
L 395.866954 165.039463 
L 399.179885 161.279749 
L 402.180939 157.363439 
L 404.858034 153.306304 
L 407.200388 149.12468 
L 409.198571 144.835405 
L 410.844535 140.45575 
L 412.131654 136.003351 
L 413.054745 131.496136 
L 413.610091 126.952253 
L 413.795455 122.39 
" clip-path="url(#pfdaa1a7d12)" style="fill: none; stroke: #e69f00; stroke-width: 1.5; stroke-linecap: square"/>
   </g>
   <g id="text_2">
    <!-- Cycle -->
    <g style="fill: #333333" transform="translate(299.885 19.3575) scale(0.16 -0.16)">
     <defs>
      <path id="DejaVuSans-43" d="M 4122 4306 
L 4122 3641 
Q 3803 3938 3442 4084 
Q 3081 4231 2675 4231 
Q 1875 4231 1450 3742 
Q 1025 3253 1025 2328 
Q 1025 1406 1450 917 
Q 1875 428 2675 428 
Q 3081 428 3442 575 
Q 3803 722 4122 1019 
L 4122 359 
Q 3791 134 3420 21 
Q 3050 -91 2638 -91 
Q 1578 -91 968 557 
Q 359 1206 359 2328 
Q 359 3453 968 4101 
Q 1578 4750 2638 4750 
Q 3056 4750 3426 4639 
Q 3797 4528 4122 4306 
z
" transform="scale(0.015625)"/>
      <path id="DejaVuSans-79" d="M 2059 -325 
Q 1816 -950 1584 -1140 
Q 1353 -1331 966 -1331 
L 506 -1331 
L 506 -850 
L 844 -850 
Q 1081 -850 1212 -737 
Q 1344 -625 1503 -206 
L 1606 56 
L 191 3500 
L 800 3500 
L 1894 763 
L 2988 3500 
L 3597 3500 
L 2059 -325 
z
" transform="scale(0.015625)"/>
      <path id="DejaVuSans-63" d="M 3122 3366 
L 3122 2828 
Q 2878 2963 2633 3030 
Q 2388 3097 2138 3097 
Q 1578 3097 1268 2742 
Q 959 2388 959 1747 
Q 959 1106 1268 751 
Q 1578 397 2138 397 
Q 2388 397 2633 464 
Q 2878 531 3122 666 
L 3122 134 
Q 2881 22 2623 -34 
Q 2366 -91 2075 -91 
Q 1284 -91 818 406 
Q 353 903 353 1747 
Q 353 2603 823 3093 
Q 1294 3584 2113 3584 
Q 2378 3584 2631 3529 
Q 2884 3475 3122 3366 
z
" transform="scale(0.015625)"/>
     </defs>
     <use xlink:href="#DejaVuSans-43"/>
     <use xlink:href="#DejaVuSans-79" x="69.824219"/>
     <use xlink:href="#DejaVuSans-63" x="129.003906"/>
     <use xlink:href="#DejaVuSans-6c" x="183.984375"/>
     <use xlink:href="#DejaVuSans-65" x="211.767578"/>
    </g>
    <!-- (Time as repetition) -->
    <g style="fill: #333333" transform="translate(243.06375 37.274) scale(0.16 -0.16)">
     <defs>
      <path id="DejaVuSans-70" d="M 1159 525 
L 1159 -1331 
L 581 -1331 
L 581 3500 
L 1159 3500 
L 1159 2969 
Q 1341 3281 1617 3432 
Q 1894 3584 2278 3584 
Q 2916 3584 3314 3078 
Q 3713 2572 3713 1747 
Q 3713 922 3314 415 
Q 2916 -91 2278 -91 
Q 1894 -91 1617 61 
Q 1341 213 1159 525 
z
M 3116 1747 
Q 3116 2381 2855 2742 
Q 2594 3103 2138 3103 
Q 1681 3103 1420 2742 
Q 1159 2381 1159 1747 
Q 1159 1113 1420 752 
Q 1681 391 2138 391 
Q 2594 391 2855 752 
Q 3116 1113 3116 1747 
z
" transform="scale(0.015625)"/>
     </defs>
     <use xlink:href="#DejaVuSans-28"/>
     <use xlink:href="#DejaVuSans-54" x="39.013672"/>
     <use xlink:href="#DejaVuSans-69" x="96.972656"/>
     <use xlink:href="#DejaVuSans-6d" x="124.755859"/>
     <use xlink:href="#DejaVuSans-65" x="222.167969"/>
     <use xlink:href="#DejaVuSans-20" x="283.691406"/>
     <use xlink:href="#DejaVuSans-61" x="315.478516"/>
     <use xlink:href="#DejaVuSans-73" x="376.757812"/>
     <use xlink:href="#DejaVuSans-20" x="428.857422"/>
     <use xlink:href="#DejaVuSans-72" x="460.644531"/>
     <use xlink:href="#DejaVuSans-65" x="499.507812"/>
     <use xlink:href="#DejaVuSans-70" x="561.03125"/>
     <use xlink:href="#DejaVuSans-65" x="624.507812"/>
     <use xlink:href="#DejaVuSans-74" x="686.03125"/>
     <use xlink:href="#DejaVuSans-69" x="725.240234"/>
     <use xlink:href="#DejaVuSans-74" x="753.023438"/>
     <use xlink:href="#DejaVuSans-69" x="792.232422"/>
     <use xlink:href="#DejaVuSans-6f" x="820.015625"/>
     <use xlink:href="#DejaVuSans-6e" x="881.197266"/>
     <use xlink:href="#DejaVuSans-29" x="944.576172"/>
    </g>
   </g>
  </g>
  <g id="axes_3">
   <g id="line2d_3">
    <path d="M 443.004545 133.594751 
L 447.062662 112.892837 
L 450.014019 98.969995 
L 452.596457 87.86197 
L 454.809974 79.291213 
L 456.654573 72.898406 
L 458.499171 67.241287 
L 460.343769 62.362008 
L 461.819448 59.041444 
L 463.295127 56.25342 
L 464.770805 54.007406 
L 465.877564 52.682234 
L 466.984323 51.666421 
L 468.091082 50.959954 
L 469.197841 50.561699 
L 470.3046 50.469417 
L 471.411359 50.679785 
L 472.518118 51.188423 
L 473.624877 51.989921 
L 474.731636 53.077871 
L 475.838395 54.444903 
L 477.314074 56.687275 
L 478.789752 59.38886 
L 480.265431 62.524972 
L 482.110029 67.014682 
L 483.954627 72.083186 
L 486.168145 78.841355 
L 488.750583 87.511727 
L 491.70194 98.219462 
L 496.128976 115.243039 
L 503.13845 142.294842 
L 506.458727 154.2048 
L 509.041164 162.734517 
L 511.254682 169.409179 
L 513.4682 175.409135 
L 515.312798 179.842517 
L 517.157397 183.724021 
L 519.001995 187.025661 
L 520.477674 189.23473 
L 521.953352 191.050639 
L 523.429031 192.467955 
L 524.53579 193.267594 
L 525.642549 193.841205 
L 526.749308 194.189409 
L 527.856067 194.313636 
L 528.962826 194.216114 
L 530.069585 193.899845 
L 531.176344 193.368592 
L 532.283103 192.626852 
L 533.758781 191.319538 
L 535.23446 189.661573 
L 536.710138 187.669204 
L 538.554737 184.736287 
L 540.399335 181.348555 
L 542.612853 176.74371 
L 544.826371 171.626479 
L 547.408809 165.12364 
L 550.729085 156.14134 
L 557.00072 138.319456 
L 561.796675 125.020104 
L 565.116952 116.494704 
L 567.69939 110.441397 
L 569.912908 105.743171 
L 572.126426 101.55794 
L 573.971024 98.497111 
L 575.815622 95.849079 
L 577.66022 93.632216 
L 579.135899 92.178521 
L 580.611578 91.014448 
L 582.087256 90.14288 
L 583.562935 89.564774 
L 585.038614 89.279182 
L 586.514292 89.28329 
L 587.989971 89.572463 
L 589.465649 90.140309 
L 590.941328 90.978739 
L 592.417007 92.078057 
L 593.892685 93.427038 
L 595.737284 95.444954 
L 597.581882 97.805518 
L 599.7954 101.047396 
L 602.008918 104.68127 
L 604.591355 109.333749 
L 607.911632 115.808941 
L 613.076508 126.477813 
L 618.979222 138.578624 
L 622.299499 144.906784 
L 625.250856 150.043324 
L 627.095455 152.96505 
L 627.095455 152.96505 
" clip-path="url(#p146022cf5d)" style="fill: none; stroke: #e69f00; stroke-width: 1.5; stroke-linecap: square"/>
   </g>
   <g id="text_3">
    <!-- Non-linear -->
    <g style="fill: #333333" transform="translate(493.585 19.3575) scale(0.16 -0.16)">
     <defs>
      <path id="DejaVuSans-4e" d="M 628 4666 
L 1478 4666 
L 3547 763 
L 3547 4666 
L 4159 4666 
L 4159 0 
L 3309 0 
L 1241 3903 
L 1241 0 
L 628 0 
L 628 4666 
z
" transform="scale(0.015625)"/>
      <path id="DejaVuSans-2d" d="M 313 2009 
L 1997 2009 
L 1997 1497 
L 313 1497 
L 313 2009 
z
" transform="scale(0.015625)"/>
     </defs>
     <use xlink:href="#DejaVuSans-4e"/>
     <use xlink:href="#DejaVuSans-6f" x="74.804688"/>
     <use xlink:href="#DejaVuSans-6e" x="135.986328"/>
     <use xlink:href="#DejaVuSans-2d" x="199.365234"/>
     <use xlink:href="#DejaVuSans-6c" x="235.449219"/>
     <use xlink:href="#DejaVuSans-69" x="263.232422"/>
     <use xlink:href="#DejaVuSans-6e" x="291.015625"/>
     <use xlink:href="#DejaVuSans-65" x="354.394531"/>
     <use xlink:href="#DejaVuSans-61" x="415.917969"/>
     <use xlink:href="#DejaVuSans-72" x="477.197266"/>
    </g>
    <!-- (Time as complexity) -->
    <g style="fill: #333333" transform="translate(451.08 37.274) scale(0.16 -0.16)">
     <defs>
      <path id="DejaVuSans-78" d="M 3513 3500 
L 2247 1797 
L 3578 0 
L 2900 0 
L 1881 1375 
L 863 0 
L 184 0 
L 1544 1831 
L 300 3500 
L 978 3500 
L 1906 2253 
L 2834 3500 
L 3513 3500 
z
" transform="scale(0.015625)"/>
     </defs>
     <use xlink:href="#DejaVuSans-28"/>
     <use xlink:href="#DejaVuSans-54" x="39.013672"/>
     <use xlink:href="#DejaVuSans-69" x="96.972656"/>
     <use xlink:href="#DejaVuSans-6d" x="124.755859"/>
     <use xlink:href="#DejaVuSans-65" x="222.167969"/>
     <use xlink:href="#DejaVuSans-20" x="283.691406"/>
     <use xlink:href="#DejaVuSans-61" x="315.478516"/>
     <use xlink:href="#DejaVuSans-73" x="376.757812"/>
     <use xlink:href="#DejaVuSans-20" x="428.857422"/>
     <use xlink:href="#DejaVuSans-63" x="460.644531"/>
     <use xlink:href="#DejaVuSans-6f" x="515.625"/>
     <use xlink:href="#DejaVuSans-6d" x="576.806641"/>
     <use xlink:href="#DejaVuSans-70" x="674.21875"/>
     <use xlink:href="#DejaVuSans-6c" x="737.695312"/>
     <use xlink:href="#DejaVuSans-65" x="765.478516"/>
     <use xlink:href="#DejaVuSans-78" x="825.251953"/>
     <use xlink:href="#DejaVuSans-69" x="884.431641"/>
     <use xlink:href="#DejaVuSans-74" x="912.214844"/>
     <use xlink:href="#DejaVuSans-79" x="951.423828"/>
     <use xlink:href="#DejaVuSans-29" x="1010.603516"/>
    </g>
   </g>
  </g>
  <g id="axes_4">
   <g id="PathCollection_1">
    <defs>
     <path id="m36eb2ca0ff" d="M -3 3 
L 3 -3 
M -3 -3 
L 3 3 
" style="stroke: #e69f00; stroke-width: 1.5"/>
    </defs>
    <g clip-path="url(#pcb21f5a585)">
     <use xlink:href="#m36eb2ca0ff" x="743.331139" y="111.560178" style="fill: #e69f00; stroke: #e69f00; stroke-width: 1.5"/>
     <use xlink:href="#m36eb2ca0ff" x="741.454637" y="97.278119" style="fill: #e69f00; stroke: #e69f00; stroke-width: 1.5"/>
     <use xlink:href="#m36eb2ca0ff" x="714.810076" y="97.845767" style="fill: #e69f00; stroke: #e69f00; stroke-width: 1.5"/>
     <use xlink:href="#m36eb2ca0ff" x="707.520849" y="131.162342" style="fill: #e69f00; stroke: #e69f00; stroke-width: 1.5"/>
     <use xlink:href="#m36eb2ca0ff" x="751.697834" y="150.473675" style="fill: #e69f00; stroke: #e69f00; stroke-width: 1.5"/>
     <use xlink:href="#m36eb2ca0ff" x="792.079411" y="109.980857" style="fill: #e69f00; stroke: #e69f00; stroke-width: 1.5"/>
     <use xlink:href="#m36eb2ca0ff" x="754.25468" y="55.00073" style="fill: #e69f00; stroke: #e69f00; stroke-width: 1.5"/>
     <use xlink:href="#m36eb2ca0ff" x="673.649742" y="74.309401" style="fill: #e69f00; stroke: #e69f00; stroke-width: 1.5"/>
     <use xlink:href="#m36eb2ca0ff" x="670.26175" y="159.47407" style="fill: #e69f00; stroke: #e69f00; stroke-width: 1.5"/>
     <use xlink:href="#m36eb2ca0ff" x="770.74142" y="190.842754" style="fill: #e69f00; stroke: #e69f00; stroke-width: 1.5"/>
    </g>
   </g>
   <g id="line2d_4">
    <path d="M 743.331139 111.560178 
L 744.24367 110.665586 
L 745.00027 109.56631 
L 745.558424 108.285105 
L 745.879759 106.85103 
L 745.93112 105.298843 
L 745.685548 103.668261 
L 745.123125 102.003088 
L 744.23167 100.350231 
L 743.007271 98.75863 
L 741.454637 97.278119 
L 739.587254 95.958239 
L 737.427354 94.847041 
L 735.00568 93.989883 
L 732.361051 93.428273 
L 729.539744 93.198759 
L 726.594689 93.331912 
L 723.584498 93.851407 
L 720.572347 94.773236 
L 717.624723 96.105068 
L 714.810076 97.845767 
L 713.474194 98.866603 
L 712.197382 99.985095 
L 710.988101 101.198523 
L 709.854659 102.503593 
L 708.805162 103.896443 
L 707.847468 105.372659 
L 706.989143 106.92728 
L 706.237413 108.554821 
L 705.599123 110.249288 
L 705.080692 112.004202 
L 704.688073 113.812622 
L 704.426712 115.667175 
L 704.301516 117.560082 
L 704.316811 119.483195 
L 704.476316 121.428028 
L 704.783106 123.385799 
L 705.239593 125.347462 
L 705.847496 127.303755 
L 706.607822 129.245239 
L 707.520849 131.162342 
L 708.58611 133.045407 
L 709.802384 134.884736 
L 711.167688 136.670637 
L 712.679272 138.393475 
L 714.333622 140.04372 
L 716.126463 141.61199 
L 718.052766 143.089108 
L 720.10676 144.466145 
L 722.281947 145.734468 
L 724.571123 146.885789 
L 726.966398 147.912209 
L 729.459225 148.806264 
L 732.040429 149.560967 
L 734.70024 150.16985 
L 737.428332 150.627006 
L 740.21386 150.92712 
L 743.045506 151.065513 
L 745.911523 151.038165 
L 748.799784 150.841754 
L 751.697834 150.473675 
L 754.592943 149.932069 
L 757.472162 149.215843 
L 760.322377 148.324685 
L 763.130373 147.259079 
L 765.88289 146.020318 
L 768.566687 144.610505 
L 771.1686 143.032562 
L 773.675609 141.290223 
L 776.074896 139.388037 
L 778.353912 137.331351 
L 780.500434 135.126303 
L 782.50263 132.779804 
L 784.349117 130.29952 
L 786.029022 127.693844 
L 787.532036 124.971872 
L 788.848474 122.143371 
L 789.969323 119.218744 
L 790.886301 116.208991 
L 791.591894 113.125672 
L 792.079411 109.980857 
L 792.343022 106.787081 
L 792.377798 103.557297 
L 792.179743 100.304819 
L 791.74583 97.04327 
L 791.074026 93.786523 
L 790.163313 90.548644 
L 789.013712 87.343833 
L 787.62629 84.186357 
L 786.003179 81.090492 
L 784.147571 78.070458 
L 782.063728 75.140354 
L 779.756969 72.314094 
L 777.233667 69.605344 
L 774.501231 67.027457 
L 771.56809 64.593406 
L 768.443666 62.315729 
L 765.138347 60.206462 
L 761.663457 58.27708 
L 758.031211 56.538442 
L 754.25468 55.00073 
L 750.347741 53.673401 
L 746.325025 52.565133 
L 742.201868 51.683776 
L 737.994246 51.03631 
L 733.718717 50.628801 
L 729.392355 50.466364 
L 725.032683 50.553127 
L 720.657599 50.892204 
L 716.285305 51.485667 
L 711.934233 52.334521 
L 707.622963 53.438693 
L 703.370146 54.797013 
L 699.194427 56.40721 
L 695.114358 58.265906 
L 691.148322 60.368619 
L 687.314448 62.709767 
L 683.63053 65.282682 
L 680.113946 68.079624 
L 676.781581 71.091803 
L 673.649742 74.309401 
L 670.734089 77.72161 
L 668.04955 81.316658 
L 665.610259 85.081856 
L 663.429478 89.003638 
L 661.519533 93.067609 
L 659.891752 97.258601 
L 658.556402 101.560727 
L 657.522634 105.95744 
L 656.798432 110.431598 
L 656.390565 114.965531 
L 656.304545 119.541111 
L 656.544591 124.139823 
L 657.113592 128.74284 
L 658.013087 133.331102 
L 659.243236 137.885394 
L 660.802811 142.386425 
L 662.689183 146.81491 
L 664.898319 151.151654 
L 667.424784 155.377631 
L 670.26175 159.47407 
L 673.401007 163.422538 
L 676.832988 167.205019 
L 680.546793 170.803994 
L 684.530222 174.202528 
L 688.769812 177.384337 
L 693.250882 180.333874 
L 697.957583 183.036395 
L 702.872954 185.478033 
L 707.978978 187.645867 
L 713.256653 189.527981 
L 718.686061 191.113531 
L 724.24644 192.392796 
L 729.916266 193.357235 
L 735.673335 193.999531 
L 741.494852 194.313636 
L 747.357518 194.294809 
L 753.237626 193.939646 
L 759.111156 193.246114 
L 764.953871 192.213564 
L 770.74142 190.842754 
L 776.44944 189.135859 
L 782.053652 187.096471 
L 787.529972 184.7296 
L 792.854608 182.041669 
L 798.004167 179.040495 
L 802.955751 175.735275 
L 807.687065 172.136555 
L 812.176511 168.256204 
L 816.403287 164.107373 
L 820.347479 159.70445 
L 823.990157 155.063018 
L 827.313461 150.199793 
L 830.300683 145.132569 
L 832.936352 139.880154 
L 835.206307 134.462296 
L 837.097767 128.899615 
L 838.599401 123.213519 
L 839.701384 117.426127 
L 840.395455 111.560178 
L 840.395455 111.560178 
" clip-path="url(#pcb21f5a585)" style="fill: none; stroke: #e69f00; stroke-width: 1.5; stroke-linecap: square"/>
   </g>
   <g id="text_4">
    <!-- Pulse Spirals -->
    <g style="fill: #333333" transform="translate(697.78 19.3575) scale(0.16 -0.16)">
     <defs>
      <path id="DejaVuSans-50" d="M 1259 4147 
L 1259 2394 
L 2053 2394 
Q 2494 2394 2734 2622 
Q 2975 2850 2975 3272 
Q 2975 3691 2734 3919 
Q 2494 4147 2053 4147 
L 1259 4147 
z
M 628 4666 
L 2053 4666 
Q 2838 4666 3239 4311 
Q 3641 3956 3641 3272 
Q 3641 2581 3239 2228 
Q 2838 1875 2053 1875 
L 1259 1875 
L 1259 0 
L 628 0 
L 628 4666 
z
" transform="scale(0.015625)"/>
      <path id="DejaVuSans-75" d="M 544 1381 
L 544 3500 
L 1119 3500 
L 1119 1403 
Q 1119 906 1312 657 
Q 1506 409 1894 409 
Q 2359 409 2629 706 
Q 2900 1003 2900 1516 
L 2900 3500 
L 3475 3500 
L 3475 0 
L 2900 0 
L 2900 538 
Q 2691 219 2414 64 
Q 2138 -91 1772 -91 
Q 1169 -91 856 284 
Q 544 659 544 1381 
z
M 1991 3584 
L 1991 3584 
z
" transform="scale(0.015625)"/>
      <path id="DejaVuSans-53" d="M 3425 4513 
L 3425 3897 
Q 3066 4069 2747 4153 
Q 2428 4238 2131 4238 
Q 1616 4238 1336 4038 
Q 1056 3838 1056 3469 
Q 1056 3159 1242 3001 
Q 1428 2844 1947 2747 
L 2328 2669 
Q 3034 2534 3370 2195 
Q 3706 1856 3706 1288 
Q 3706 609 3251 259 
Q 2797 -91 1919 -91 
Q 1588 -91 1214 -16 
Q 841 59 441 206 
L 441 856 
Q 825 641 1194 531 
Q 1563 422 1919 422 
Q 2459 422 2753 634 
Q 3047 847 3047 1241 
Q 3047 1584 2836 1778 
Q 2625 1972 2144 2069 
L 1759 2144 
Q 1053 2284 737 2584 
Q 422 2884 422 3419 
Q 422 4038 858 4394 
Q 1294 4750 2059 4750 
Q 2388 4750 2728 4690 
Q 3069 4631 3425 4513 
z
" transform="scale(0.015625)"/>
     </defs>
     <use xlink:href="#DejaVuSans-50"/>
     <use xlink:href="#DejaVuSans-75" x="58.552734"/>
     <use xlink:href="#DejaVuSans-6c" x="121.931641"/>
     <use xlink:href="#DejaVuSans-73" x="149.714844"/>
     <use xlink:href="#DejaVuSans-65" x="201.814453"/>
     <use xlink:href="#DejaVuSans-20" x="263.337891"/>
     <use xlink:href="#DejaVuSans-53" x="295.125"/>
     <use xlink:href="#DejaVuSans-70" x="358.601562"/>
     <use xlink:href="#DejaVuSans-69" x="422.078125"/>
     <use xlink:href="#DejaVuSans-72" x="449.861328"/>
     <use xlink:href="#DejaVuSans-61" x="490.974609"/>
     <use xlink:href="#DejaVuSans-6c" x="552.253906"/>
     <use xlink:href="#DejaVuSans-73" x="580.037109"/>
    </g>
    <!-- (Time as genesis) -->
    <g style="fill: #333333" transform="translate(677.8275 37.274) scale(0.16 -0.16)">
     <use xlink:href="#DejaVuSans-28"/>
     <use xlink:href="#DejaVuSans-54" x="39.013672"/>
     <use xlink:href="#DejaVuSans-69" x="96.972656"/>
     <use xlink:href="#DejaVuSans-6d" x="124.755859"/>
     <use xlink:href="#DejaVuSans-65" x="222.167969"/>
     <use xlink:href="#DejaVuSans-20" x="283.691406"/>
     <use xlink:href="#DejaVuSans-61" x="315.478516"/>
     <use xlink:href="#DejaVuSans-73" x="376.757812"/>
     <use xlink:href="#DejaVuSans-20" x="428.857422"/>
     <use xlink:href="#DejaVuSans-67" x="460.644531"/>
     <use xlink:href="#DejaVuSans-65" x="524.121094"/>
     <use xlink:href="#DejaVuSans-6e" x="585.644531"/>
     <use xlink:href="#DejaVuSans-65" x="649.023438"/>
     <use xlink:href="#DejaVuSans-73" x="710.546875"/>
     <use xlink:href="#DejaVuSans-69" x="762.646484"/>
     <use xlink:href="#DejaVuSans-73" x="790.429688"/>
     <use xlink:href="#DejaVuSans-29" x="842.529297"/>
    </g>
   </g>
  </g>
 </g>
 <defs>
  <clipPath id="p2b1fcd03c5">
   <rect x="7.2" y="43.274" width="202.5" height="158.232"/>
  </clipPath>
  <clipPath id="pfdaa1a7d12">
   <rect x="220.5" y="43.274" width="202.5" height="158.232"/>
  </clipPath>
  <clipPath id="p146022cf5d">
   <rect x="433.8" y="43.274" width="202.5" height="158.232"/>
  </clipPath>
  <clipPath id="pcb21f5a585">
   <rect x="647.1" y="43.274" width="202.5" height="158.232"/>
  </clipPath>
 </defs>
</svg>
