<?xml version="1.0" encoding="utf-8" standalone="no"?>
<!DOCTYPE svg PUBLIC "-//W3C//DTD SVG 1.1//EN"
  "http://www.w3.org/Graphics/SVG/1.1/DTD/svg11.dtd">
<svg xmlns:xlink="http://www.w3.org/1999/xlink" width="548.800889pt" height="572.453829pt" viewBox="0 0 548.800889 572.453829" xmlns="http://www.w3.org/2000/svg" version="1.1">
 <metadata>
  <rdf:RDF xmlns:dc="http://purl.org/dc/elements/1.1/" xmlns:cc="http://creativecommons.org/ns#" xmlns:rdf="http://www.w3.org/1999/02/22-rdf-syntax-ns#">
   <cc:Work>
    <dc:type rdf:resource="http://purl.org/dc/dcmitype/StillImage"/>
    <dc:date>2025-09-10T00:16:52.175138</dc:date>
    <dc:format>image/svg+xml</dc:format>
    <dc:creator>
     <cc:Agent>
      <dc:title>Matplotlib v3.6.3, https://matplotlib.org/</dc:title>
     </cc:Agent>
    </dc:creator>
   </cc:Work>
  </rdf:RDF>
 </metadata>
 <defs>
  <style type="text/css">*{stroke-linejoin: round; stroke-linecap: butt}</style>
 </defs>
 <g id="figure_1">
  <g id="patch_1">
   <path d="M 0 572.453829 
L 548.800889 572.453829 
L 548.800889 0 
L 0 0 
z
" style="fill: #ffffff"/>
  </g>
  <g id="axes_1">
   <g id="PathCollection_1">
    <defs>
     <path id="md9fa87044a" d="M 0 2.645751 
C 0.701661 2.645751 1.374679 2.366978 1.870829 1.870829 
C 2.366978 1.374679 2.645751 0.701661 2.645751 0 
C 2.645751 -0.701661 2.366978 -1.374679 1.870829 -1.870829 
C 1.374679 -2.366978 0.701661 -2.645751 0 -2.645751 
C -0.701661 -2.645751 -1.374679 -2.366978 -1.870829 -1.870829 
C -2.366978 -1.374679 -2.645751 -0.701661 -2.645751 0 
C -2.645751 0.701661 -2.366978 1.374679 -1.870829 1.870829 
C -1.374679 2.366978 -0.701661 2.645751 0 2.645751 
z
" style="stroke: #e69f00"/>
    </defs>
    <g clip-path="url(#p6b23ed4fbe)">
     <use xlink:href="#md9fa87044a" x="285.692317" y="304.263915" style="fill: #e69f00; stroke: #e69f00"/>
     <use xlink:href="#md9fa87044a" x="282.53299" y="277.079597" style="fill: #e69f00; stroke: #e69f00"/>
     <use xlink:href="#md9fa87044a" x="242.74288" y="268.750415" style="fill: #e69f00; stroke: #e69f00"/>
     <use xlink:href="#md9fa87044a" x="211.955257" y="313.579342" style="fill: #e69f00; stroke: #e69f00"/>
     <use xlink:href="#md9fa87044a" x="247.276121" y="372.026343" style="fill: #e69f00; stroke: #e69f00"/>
     <use xlink:href="#md9fa87044a" x="329.123544" y="363.544475" style="fill: #e69f00; stroke: #e69f00"/>
     <use xlink:href="#md9fa87044a" x="361.750355" y="272.907925" style="fill: #e69f00; stroke: #e69f00"/>
     <use xlink:href="#md9fa87044a" x="284.7969" y="193.740813" style="fill: #e69f00; stroke: #e69f00"/>
     <use xlink:href="#md9fa87044a" x="166.372693" y="232.159147" style="fill: #e69f00; stroke: #e69f00"/>
     <use xlink:href="#md9fa87044a" x="146.175125" y="369.288786" style="fill: #e69f00; stroke: #e69f00"/>
     <use xlink:href="#md9fa87044a" x="271.539928" y="456.521729" style="fill: #e69f00; stroke: #e69f00"/>
     <use xlink:href="#md9fa87044a" x="417.978598" y="376.54486" style="fill: #e69f00; stroke: #e69f00"/>
     <use xlink:href="#md9fa87044a" x="411.485217" y="195.673896" style="fill: #e69f00; stroke: #e69f00"/>
     <use xlink:href="#md9fa87044a" x="234.033742" y="114.528642" style="fill: #e69f00; stroke: #e69f00"/>
     <use xlink:href="#md9fa87044a" x="70.855428" y="245.542945" style="fill: #e69f00; stroke: #e69f00"/>
     <use xlink:href="#md9fa87044a" x="117.556447" y="464.016006" style="fill: #e69f00; stroke: #e69f00"/>
     <use xlink:href="#md9fa87044a" x="347.385389" y="524.106752" style="fill: #e69f00; stroke: #e69f00"/>
     <use xlink:href="#md9fa87044a" x="513.808928" y="335.274962" style="fill: #e69f00; stroke: #e69f00"/>
    </g>
   </g>
   <g id="line2d_1">
    <path d="M 285.692317 304.263915 
L 286.771707 302.556998 
L 287.669939 300.647557 
L 288.35858 298.55551 
L 288.811432 296.304315 
L 289.004938 293.920715 
L 288.918572 291.434445 
L 288.535185 288.877888 
L 287.841316 286.285696 
L 286.827469 283.694377 
L 285.488328 281.141849 
L 283.822941 278.66697 
L 282.53299 277.079597 
L 281.101683 275.555862 
L 279.532092 274.107342 
L 277.828191 272.745468 
L 275.994845 271.48146 
L 274.037807 270.326255 
L 271.963692 269.290442 
L 269.779959 268.384199 
L 267.494889 267.617224 
L 265.117544 266.998675 
L 262.657739 266.537111 
L 260.125999 266.240429 
L 257.533514 266.115815 
L 254.892089 266.169686 
L 252.214094 266.407644 
L 249.512405 266.834433 
L 246.800345 267.453891 
L 244.09162 268.26892 
L 241.400254 269.28145 
L 238.740522 270.492409 
L 236.126874 271.901706 
L 233.573868 273.508206 
L 231.096092 275.30972 
L 228.708089 277.302996 
L 226.424283 279.483721 
L 224.2589 281.846515 
L 222.225892 284.38495 
L 220.338858 287.091554 
L 218.610974 289.957837 
L 217.054911 292.974314 
L 215.682768 296.130534 
L 214.505997 299.415116 
L 213.535334 302.815792 
L 212.780735 306.319448 
L 212.251308 309.91218 
L 211.955257 313.579342 
L 211.899824 317.305615 
L 212.091234 321.075063 
L 212.53465 324.871203 
L 213.234128 328.67708 
L 214.192574 332.475335 
L 215.411719 336.24829 
L 216.892079 339.978022 
L 218.632942 343.646452 
L 220.632344 347.235424 
L 222.887059 350.726795 
L 225.392595 354.10252 
L 228.14319 357.344742 
L 231.131824 360.435881 
L 234.350227 363.35872 
L 237.788898 366.096493 
L 241.437133 368.632976 
L 245.283053 370.952566 
L 249.313641 373.040372 
L 253.514786 374.882291 
L 257.871331 376.465088 
L 262.367126 377.776475 
L 266.98509 378.80518 
L 271.707274 379.541018 
L 276.514932 379.974954 
L 281.388593 380.099163 
L 286.308142 379.907087 
L 291.252905 379.393482 
L 296.201728 378.554467 
L 301.133076 377.387557 
L 306.02512 375.891702 
L 310.855836 374.067307 
L 315.603098 371.916259 
L 320.244785 369.441937 
L 324.758873 366.649216 
L 329.123544 363.544475 
L 333.317285 360.135584 
L 337.318987 356.431891 
L 341.108054 352.444205 
L 344.664494 348.184765 
L 347.969026 343.667206 
L 351.003172 338.90652 
L 353.749354 333.919004 
L 356.190984 328.722212 
L 358.312554 323.334887 
L 360.099719 317.7769 
L 361.539377 312.069172 
L 362.619747 306.233601 
L 363.330438 300.292971 
L 363.662514 294.270871 
L 363.608557 288.191596 
L 363.162715 282.08005 
L 362.320753 275.961645 
L 361.080092 269.862196 
L 359.439846 263.807809 
L 357.400841 257.824776 
L 354.965645 251.939456 
L 352.138567 246.178162 
L 348.925673 240.567048 
L 345.334774 235.131985 
L 341.375417 229.898454 
L 337.058869 224.891418 
L 332.398083 220.135217 
L 327.407671 215.653446 
L 322.103855 211.468849 
L 316.50442 207.603202 
L 310.628654 204.077212 
L 304.497288 200.910413 
L 298.132416 198.121063 
L 294.869675 196.873266 
L 291.557424 195.726052 
L 288.198772 194.681306 
L 284.7969 193.740813 
L 281.355054 192.90626 
L 277.876544 192.179232 
L 274.364741 191.561213 
L 270.823071 191.053577 
L 267.255014 190.657593 
L 263.664103 190.374418 
L 260.053915 190.205099 
L 256.428071 190.150566 
L 252.790231 190.211637 
L 249.144091 190.389011 
L 245.49338 190.683268 
L 241.841854 191.094871 
L 238.193295 191.624158 
L 234.551503 192.271347 
L 230.920297 193.036535 
L 227.303507 193.919691 
L 223.704973 194.920662 
L 220.128539 196.039169 
L 216.578047 197.274809 
L 213.057339 198.62705 
L 209.570247 200.095238 
L 206.120592 201.678589 
L 202.712177 203.376196 
L 199.348787 205.187025 
L 196.034182 207.109916 
L 192.772093 209.143587 
L 189.566218 211.286628 
L 186.420218 213.537509 
L 183.337715 215.894576 
L 180.322284 218.356054 
L 177.377452 220.920047 
L 174.506691 223.584542 
L 171.713418 226.347407 
L 169.000989 229.206396 
L 166.372693 232.159147 
L 163.831752 235.203188 
L 161.381315 238.335934 
L 159.024454 241.554696 
L 156.764162 244.856676 
L 154.603347 248.238974 
L 152.544832 251.69859 
L 150.591346 255.232424 
L 148.745526 258.837281 
L 147.009912 262.509874 
L 145.386944 266.246828 
L 143.878955 270.044677 
L 142.488174 273.899877 
L 141.216719 277.808799 
L 140.066598 281.767742 
L 139.039701 285.772928 
L 138.1378 289.820513 
L 137.362549 293.906583 
L 136.715477 298.027165 
L 136.197989 302.178228 
L 135.811363 306.355685 
L 135.556747 310.5554 
L 135.43516 314.77319 
L 135.447484 319.00483 
L 135.59447 323.246059 
L 135.876733 327.492581 
L 136.294749 331.740071 
L 136.848857 335.984179 
L 137.539254 340.220536 
L 138.365998 344.444756 
L 139.329007 348.652443 
L 140.428054 352.839193 
L 141.662772 357.000601 
L 143.03265 361.132265 
L 144.537033 365.229787 
L 146.175125 369.288786 
L 147.945986 373.304892 
L 149.848533 377.273761 
L 151.88154 381.191072 
L 154.043641 385.052535 
L 156.333328 388.853897 
L 158.748952 392.590941 
L 161.288727 396.259498 
L 163.950725 399.855447 
L 166.732887 403.37472 
L 169.633013 406.813308 
L 172.648774 410.167262 
L 175.777705 413.432705 
L 179.017216 416.605827 
L 182.364585 419.682895 
L 185.816966 422.660257 
L 189.371389 425.534346 
L 193.024765 428.30168 
L 196.773885 430.958873 
L 200.615426 433.502634 
L 204.545951 435.929772 
L 208.561915 438.237202 
L 212.659666 440.421945 
L 216.835448 442.481135 
L 221.085409 444.41202 
L 225.405598 446.211968 
L 229.791971 447.878467 
L 234.240397 449.409132 
L 238.746662 450.801704 
L 243.306467 452.054058 
L 247.91544 453.164202 
L 252.569135 454.130278 
L 257.263038 454.950572 
L 261.992572 455.623507 
L 266.753099 456.147654 
L 271.539928 456.521729 
L 276.348317 456.744594 
L 281.173479 456.815265 
L 286.010586 456.732908 
L 290.854774 456.496841 
L 295.701149 456.106539 
L 300.544789 455.561634 
L 305.380754 454.861912 
L 310.204084 454.007319 
L 315.009812 452.997962 
L 319.792964 451.834105 
L 324.548563 450.516172 
L 329.27164 449.04475 
L 333.957234 447.420584 
L 338.600399 445.644581 
L 343.196209 443.717808 
L 347.739763 441.641491 
L 352.226191 439.417017 
L 356.65066 437.04593 
L 361.008374 434.529934 
L 365.294587 431.870889 
L 369.504603 429.070808 
L 373.63378 426.131863 
L 377.677541 423.056373 
L 381.631372 419.846814 
L 385.490833 416.505805 
L 389.251558 413.036117 
L 392.909263 409.440663 
L 396.459751 405.722499 
L 399.898913 401.884822 
L 403.222737 397.930964 
L 406.427311 393.864392 
L 409.508827 389.688707 
L 412.463584 385.407635 
L 415.287998 381.025028 
L 417.978598 376.54486 
L 420.532036 371.971222 
L 422.945091 367.308321 
L 425.214668 362.560472 
L 427.337807 357.732099 
L 429.311684 352.827726 
L 431.133615 347.851976 
L 432.801061 342.809565 
L 434.311627 337.705301 
L 435.66307 332.544074 
L 436.853299 327.330855 
L 437.880378 322.070688 
L 438.742531 316.768692 
L 439.43814 311.430048 
L 439.965754 306.059997 
L 440.324083 300.663837 
L 440.512009 295.246915 
L 440.528578 289.814623 
L 440.373012 284.372392 
L 440.044702 278.925687 
L 439.543215 273.480001 
L 438.86829 268.040851 
L 438.019846 262.613769 
L 436.997977 257.204301 
L 435.802952 251.817998 
L 434.435223 246.46041 
L 432.895416 241.137084 
L 431.184336 235.853555 
L 429.302969 230.615339 
L 427.252476 225.427932 
L 425.034197 220.296801 
L 422.649647 215.227377 
L 420.10052 210.225054 
L 417.388684 205.295179 
L 414.516178 200.443046 
L 411.485217 195.673896 
L 408.298186 190.992903 
L 404.957638 186.405177 
L 401.466294 181.915751 
L 397.82704 177.529582 
L 394.042926 173.251539 
L 390.117159 169.086405 
L 386.053107 165.038864 
L 381.854292 161.113502 
L 377.524387 157.314799 
L 373.067214 153.647125 
L 368.486741 150.114734 
L 363.787076 146.72176 
L 358.972469 143.472211 
L 354.047301 140.369967 
L 349.016085 137.418773 
L 343.88346 134.622237 
L 338.654186 131.983822 
L 333.333144 129.506846 
L 327.925324 127.194475 
L 322.435828 125.049721 
L 316.86986 123.075437 
L 311.232722 121.274316 
L 305.529813 119.648885 
L 299.766617 118.201499 
L 293.948703 116.934347 
L 288.081718 115.84944 
L 282.171381 114.948612 
L 276.223478 114.233519 
L 270.243856 113.705632 
L 264.238419 113.366241 
L 258.213119 113.216446 
L 252.173952 113.257161 
L 246.126952 113.489109 
L 240.078185 113.912823 
L 234.033742 114.528642 
L 227.999734 115.336711 
L 221.982285 116.336981 
L 215.987528 117.529207 
L 210.021595 118.912949 
L 204.090611 120.487571 
L 198.200694 122.252238 
L 192.357941 124.205922 
L 186.568424 126.347398 
L 180.838186 128.675246 
L 175.173234 131.18785 
L 169.57953 133.883402 
L 164.062988 136.759901 
L 158.629465 139.815153 
L 153.284758 143.046777 
L 148.034594 146.452202 
L 142.884629 150.02867 
L 137.840435 153.773243 
L 132.907501 157.682797 
L 128.091223 161.754031 
L 123.396899 165.983468 
L 118.829724 170.367455 
L 114.394782 174.90217 
L 110.097045 179.583625 
L 105.941362 184.407667 
L 101.932458 189.369982 
L 98.074925 194.466101 
L 94.373221 199.691403 
L 90.831661 205.041117 
L 87.454415 210.510329 
L 84.245501 216.093987 
L 81.208783 221.786903 
L 78.347963 227.583759 
L 75.666579 233.479112 
L 73.168002 239.4674 
L 70.855428 245.542945 
L 68.731877 251.699961 
L 66.800189 257.932557 
L 65.063022 264.234745 
L 63.522843 270.600445 
L 62.181931 277.023488 
L 61.042372 283.497627 
L 60.106054 290.01654 
L 59.374668 296.573836 
L 58.849702 303.163062 
L 58.532441 309.77771 
L 58.423966 316.411221 
L 58.525148 323.056996 
L 58.836652 329.708398 
L 59.358929 336.358761 
L 60.092222 343.001395 
L 61.03656 349.629595 
L 62.191757 356.236647 
L 63.557415 362.815833 
L 65.132922 369.360441 
L 66.91745 375.863767 
L 68.909958 382.319129 
L 71.109191 388.719867 
L 73.513678 395.059353 
L 76.12174 401.330998 
L 78.931483 407.528259 
L 81.940802 413.644643 
L 85.147384 419.673718 
L 88.54871 425.609118 
L 92.142052 431.444546 
L 95.924481 437.173788 
L 99.892867 442.790714 
L 104.043879 448.289284 
L 108.37399 453.663561 
L 112.879483 458.907709 
L 117.556447 464.016006 
L 122.400787 468.982844 
L 127.408223 473.802743 
L 132.574297 478.470348 
L 137.894373 482.980443 
L 143.363647 487.327952 
L 148.977146 491.507944 
L 154.729733 495.515642 
L 160.616114 499.346426 
L 166.630844 502.99584 
L 172.768327 506.459595 
L 179.022824 509.733574 
L 185.388461 512.813839 
L 191.859229 515.696633 
L 198.428995 518.378387 
L 205.091502 520.855722 
L 211.840383 523.125453 
L 218.669158 525.184595 
L 225.571246 527.030365 
L 232.539971 528.660187 
L 239.568567 530.071693 
L 246.650183 531.262726 
L 253.777895 532.231348 
L 260.944706 532.975836 
L 268.143558 533.494688 
L 275.367337 533.786625 
L 282.60888 533.850592 
L 289.860984 533.685761 
L 297.116408 533.291532 
L 304.367886 532.667533 
L 311.608132 531.813625 
L 318.829848 530.729898 
L 326.025728 529.416676 
L 333.188471 527.874513 
L 340.310783 526.104198 
L 347.385389 524.106752 
L 354.405037 521.883427 
L 361.362507 519.435708 
L 368.250619 516.76531 
L 375.062238 513.874181 
L 381.790284 510.764493 
L 388.427738 507.43865 
L 394.96765 503.899278 
L 401.403144 500.149228 
L 407.72743 496.191573 
L 413.933806 492.029605 
L 420.015668 487.666832 
L 425.966516 483.106976 
L 431.77996 478.353967 
L 437.449731 473.411947 
L 442.969682 468.285258 
L 448.333798 462.978442 
L 453.536202 457.496238 
L 458.571161 451.843577 
L 463.433093 446.025577 
L 468.116571 440.047537 
L 472.616333 433.914937 
L 476.927283 427.633428 
L 481.0445 421.208828 
L 484.963242 414.64712 
L 488.678953 407.954442 
L 492.187267 401.137083 
L 495.484012 394.201478 
L 498.565216 387.154201 
L 501.427113 380.00196 
L 504.066143 372.751588 
L 506.478964 365.410038 
L 508.662446 357.984378 
L 510.613685 350.48178 
L 512.329996 342.90952 
L 513.808928 335.274962 
L 515.048258 327.585558 
L 516.045997 319.848838 
L 516.800395 312.072402 
L 517.309939 304.263915 
L 517.309939 304.263915 
" clip-path="url(#p6b23ed4fbe)" style="fill: none; stroke: #e69f00; stroke-width: 1.5; stroke-linecap: square"/>
   </g>
   <g id="line2d_2">
    <path d="M 302.639948 304.263915 
L 302.520276 301.418169 
L 302.162107 298.592517 
L 301.567969 295.806913 
L 300.742057 293.081026 
L 299.690204 290.434103 
L 298.419837 287.884837 
L 296.939926 285.451227 
L 295.260922 283.150459 
L 293.394679 280.998778 
L 291.354377 279.011378 
L 289.154423 277.202292 
L 286.81035 275.584295 
L 284.338711 274.168813 
L 281.756958 272.965839 
L 279.083323 271.983869 
L 276.336684 271.229836 
L 273.536436 270.709065 
L 270.702352 270.425234 
L 267.854444 270.380346 
L 265.012823 270.574718 
L 262.197554 271.006978 
L 259.428515 271.674074 
L 256.72526 272.571294 
L 254.106878 273.692304 
L 251.591856 275.029188 
L 249.197955 276.572506 
L 246.942079 278.31136 
L 244.840156 280.233471 
L 242.907029 282.325267 
L 241.156348 284.571978 
L 239.600475 286.957738 
L 238.250397 289.465701 
L 237.115646 292.078159 
L 236.204237 294.776663 
L 235.522603 297.542158 
L 235.075559 300.355118 
L 234.866261 303.195679 
L 234.896187 306.043783 
L 235.165126 308.879319 
L 235.671179 311.682264 
L 236.410772 314.432827 
L 237.378682 317.111584 
L 238.568076 319.69962 
L 239.970555 322.178662 
L 241.576215 324.531202 
L 243.373718 326.740631 
L 245.350372 328.791345 
L 247.492219 330.668866 
L 249.784135 332.359934 
L 252.209937 333.852609 
L 254.752494 335.136351 
L 257.393854 336.202095 
L 260.115364 337.042316 
L 262.897809 337.65108 
L 265.72154 338.024089 
L 268.566618 338.158709 
L 271.412953 338.053989 
L 274.240447 337.710669 
L 277.029134 337.131173 
L 279.759323 336.319593 
L 282.411735 335.28166 
L 284.96764 334.024703 
L 287.40899 332.557598 
L 289.718548 330.890704 
L 291.880003 329.035791 
L 293.878095 327.005958 
L 295.698713 324.815538 
L 297.329002 322.479997 
L 298.75745 320.015828 
L 299.97397 317.440431 
L 300.969972 314.771991 
L 301.738424 312.029352 
L 302.273899 309.231878 
L 302.572615 306.399324 
L 302.639948 304.263915 
L 302.639948 304.263915 
" clip-path="url(#p6b23ed4fbe)" style="fill: none; stroke-dasharray: 2.22,0.96; stroke-dashoffset: 0; stroke: #56b4e9; stroke-width: 0.6"/>
   </g>
   <g id="line2d_3">
    <path d="M 343.314262 304.263915 
L 343.16613 299.566013 
L 342.722324 294.886776 
L 341.984606 290.244795 
L 340.955908 285.658511 
L 339.640316 281.146146 
L 338.043058 276.725627 
L 336.170479 272.414517 
L 334.030018 268.229944 
L 331.630181 264.188533 
L 328.980501 260.306341 
L 326.091505 256.598791 
L 322.974672 253.080614 
L 319.642384 249.765787 
L 316.107881 246.667479 
L 312.385205 243.798001 
L 308.489147 241.168752 
L 304.435184 238.790179 
L 300.239424 236.671732 
L 295.918536 234.821827 
L 291.489687 233.247814 
L 286.970473 231.955946 
L 282.378848 230.951356 
L 277.733055 230.238035 
L 273.051551 229.818817 
L 268.352936 229.695368 
L 263.655878 229.868177 
L 258.979037 230.33656 
L 254.340995 231.098654 
L 249.760179 232.151432 
L 245.254787 233.490711 
L 240.842721 235.11117 
L 236.541508 237.006372 
L 232.368238 239.168787 
L 228.33949 241.589822 
L 224.471271 244.259861 
L 220.77895 247.168294 
L 217.277195 250.303567 
L 213.97992 253.653223 
L 210.900224 257.203954 
L 208.050342 260.941653 
L 205.441598 264.851471 
L 203.084355 268.917873 
L 200.987979 273.124705 
L 199.160799 277.455251 
L 197.610075 281.892308 
L 196.341966 286.418247 
L 195.361512 291.015086 
L 194.672607 295.664563 
L 194.277989 300.348204 
L 194.179226 305.047403 
L 194.376709 309.743488 
L 194.869655 314.417804 
L 195.656104 319.051778 
L 196.732933 323.627001 
L 198.095862 328.125294 
L 199.739478 332.528787 
L 201.65725 336.819984 
L 203.841559 340.981836 
L 206.283726 344.997809 
L 208.974049 348.851948 
L 211.90184 352.528939 
L 215.055466 356.014174 
L 218.422398 359.293807 
L 221.989259 362.354807 
L 225.741879 365.185013 
L 229.665347 367.773181 
L 233.744077 370.109029 
L 237.961864 372.183275 
L 242.30195 373.987679 
L 246.747092 375.515073 
L 251.27963 376.759387 
L 255.881557 377.715678 
L 260.534588 378.380147 
L 265.220238 378.750155 
L 269.919891 378.82423 
L 274.614874 378.602078 
L 279.286536 378.084583 
L 283.916314 377.2738 
L 288.485817 376.17295 
L 292.976888 374.786408 
L 297.371685 373.119681 
L 301.652748 371.179392 
L 305.803068 368.973249 
L 309.806156 366.510018 
L 313.646107 363.799484 
L 317.307666 360.852417 
L 320.776286 357.680525 
L 324.038185 354.29641 
L 327.080405 350.713517 
L 329.890858 346.946081 
L 332.458378 343.009069 
L 334.772766 338.918124 
L 336.824826 334.689499 
L 338.606405 330.339994 
L 340.110424 325.886889 
L 341.33091 321.347876 
L 342.263012 316.740989 
L 342.903027 312.084531 
L 343.248413 307.397002 
L 343.314262 304.263915 
L 343.314262 304.263915 
" clip-path="url(#p6b23ed4fbe)" style="fill: none; stroke-dasharray: 2.22,0.96; stroke-dashoffset: 0; stroke: #009e73; stroke-width: 0.6"/>
   </g>
   <g id="line2d_4">
    <path d="M 383.988576 304.263915 
L 383.88681 299.421871 
L 383.581693 294.588378 
L 383.073763 289.771974 
L 382.363917 284.981163 
L 381.453409 280.224408 
L 380.343847 275.510109 
L 379.037191 270.846591 
L 377.535748 266.242092 
L 375.84217 261.704742 
L 373.959448 257.242557 
L 371.890906 252.863415 
L 369.6402 248.575051 
L 367.211302 244.385039 
L 364.608503 240.300778 
L 361.8364 236.329483 
L 358.899888 232.478166 
L 355.804154 228.753629 
L 352.554664 225.16245 
L 349.157159 221.710972 
L 345.617638 218.405289 
L 341.942351 215.251241 
L 338.137792 212.254398 
L 334.210677 209.420052 
L 330.167944 206.753209 
L 326.016731 204.258579 
L 321.76437 201.940568 
L 317.418372 199.803269 
L 312.986412 197.850457 
L 308.476317 196.085582 
L 303.896052 194.511759 
L 299.253706 193.131768 
L 294.557479 191.948048 
L 289.815664 190.962687 
L 285.036635 190.177427 
L 280.228834 189.593654 
L 275.40075 189.2124 
L 270.560912 189.034337 
L 265.717865 189.05978 
L 260.880165 189.288684 
L 256.056353 189.720646 
L 251.254951 190.354901 
L 246.484437 191.19033 
L 241.753236 192.225457 
L 237.069705 193.458455 
L 232.442115 194.887145 
L 227.878639 196.509005 
L 223.387336 198.32117 
L 218.976138 200.32044 
L 214.652836 202.503283 
L 210.425065 204.865846 
L 206.300292 207.403954 
L 202.285802 210.113126 
L 198.388684 212.988577 
L 194.615821 216.025228 
L 190.973877 219.217718 
L 187.469283 222.560407 
L 184.10823 226.047391 
L 180.896651 229.672514 
L 177.840221 233.429371 
L 174.944336 237.311329 
L 172.214112 241.311531 
L 169.654369 245.422914 
L 167.269629 249.638214 
L 165.064103 253.949989 
L 163.041687 258.350623 
L 161.205952 262.832344 
L 159.560141 267.387237 
L 158.107159 272.007258 
L 156.849573 276.684246 
L 155.789605 281.409943 
L 154.929126 286.176003 
L 154.269655 290.974007 
L 153.812358 295.795482 
L 153.558042 300.631914 
L 153.507157 305.47476 
L 153.659791 310.315467 
L 154.015676 315.145487 
L 154.574183 319.956289 
L 155.334326 324.739377 
L 156.294762 329.486303 
L 157.453795 334.188684 
L 158.809378 338.838215 
L 160.359116 343.426685 
L 162.100274 347.94599 
L 164.029776 352.388148 
L 166.144213 356.745314 
L 168.439853 361.009794 
L 170.91264 365.174055 
L 173.558208 369.230743 
L 176.371884 373.172693 
L 179.348699 376.992944 
L 182.483395 380.684749 
L 185.770437 384.241588 
L 189.204019 387.657179 
L 192.778077 390.92549 
L 196.486299 394.040748 
L 200.322136 396.997452 
L 204.278814 399.79038 
L 208.349344 402.4146 
L 212.526538 404.865476 
L 216.803019 407.138681 
L 221.171233 409.230199 
L 225.623467 411.136337 
L 230.151856 412.853729 
L 234.748404 414.379341 
L 239.404993 415.710479 
L 244.113398 416.844792 
L 248.865305 417.780277 
L 253.65232 418.515281 
L 258.465989 419.048507 
L 263.297812 419.379013 
L 268.139255 419.506214 
L 272.981767 419.429888 
L 277.816795 419.150167 
L 282.635802 418.667547 
L 287.430275 417.98288 
L 292.191748 417.097374 
L 296.911811 416.012594 
L 301.582129 414.730455 
L 306.194453 413.253222 
L 310.740637 411.583504 
L 315.212652 409.72425 
L 319.6026 407.678743 
L 323.902729 405.450596 
L 328.105443 403.043744 
L 332.203321 400.462438 
L 336.189125 397.711236 
L 340.055816 394.794997 
L 343.796565 391.718873 
L 347.404765 388.488294 
L 350.874045 385.108968 
L 354.198276 381.586862 
L 357.371588 377.928196 
L 360.388377 374.139433 
L 363.243315 370.227262 
L 365.93136 366.198595 
L 368.447764 362.060545 
L 370.788083 357.820421 
L 372.948184 353.485711 
L 374.924252 349.064071 
L 376.712797 344.56331 
L 378.31066 339.991376 
L 379.71502 335.356344 
L 380.923396 330.6664 
L 381.933654 325.929827 
L 382.744009 321.15499 
L 383.353032 316.350322 
L 383.759645 311.524308 
L 383.963132 306.685471 
L 383.988576 304.263915 
L 383.988576 304.263915 
" clip-path="url(#p6b23ed4fbe)" style="fill: none; stroke-dasharray: 2.22,0.96; stroke-dashoffset: 0; stroke: #f0e442; stroke-width: 0.6"/>
   </g>
   <g id="line2d_5">
    <path d="M 424.66289 304.263915 
L 424.525207 297.712914 
L 424.112401 291.173483 
L 423.425202 284.657171 
L 422.464822 278.175486 
L 421.232959 271.739876 
L 419.731787 265.361706 
L 417.963958 259.052242 
L 415.932593 252.822625 
L 413.641282 246.683858 
L 411.09407 240.646783 
L 408.295455 234.722062 
L 405.250381 228.920158 
L 401.964225 223.251318 
L 398.442791 217.725554 
L 394.692299 212.352624 
L 390.719371 207.142019 
L 386.531025 202.102939 
L 382.134657 197.244286 
L 377.538032 192.574639 
L 372.749268 188.102245 
L 367.776822 183.835004 
L 362.629476 179.780451 
L 357.316321 175.945748 
L 351.84674 172.337666 
L 346.230394 168.962579 
L 340.4772 165.826446 
L 334.597321 162.934806 
L 328.601139 160.292766 
L 322.499245 157.904993 
L 316.302416 155.775704 
L 310.021596 153.908658 
L 303.667877 152.307154 
L 297.25248 150.974019 
L 290.786735 149.911608 
L 284.282063 149.121798 
L 277.74995 148.605983 
L 271.201933 148.365074 
L 264.649576 148.399497 
L 258.104451 148.709191 
L 251.578118 149.29361 
L 245.082103 150.151719 
L 238.627878 151.282006 
L 232.226842 152.682472 
L 225.890301 154.350646 
L 219.629443 156.28358 
L 213.455328 158.477861 
L 207.37886 160.929614 
L 201.410768 163.634508 
L 195.561595 166.587767 
L 189.84167 169.784174 
L 184.261095 173.218085 
L 178.829725 176.883436 
L 173.557154 180.773752 
L 168.452693 184.882163 
L 163.525357 189.201413 
L 158.783847 193.723874 
L 154.236539 198.441559 
L 149.891463 203.346137 
L 145.756292 208.428944 
L 141.838331 213.681005 
L 138.144497 219.093043 
L 134.681316 224.655502 
L 131.454903 230.358556 
L 128.470957 236.192133 
L 125.734746 242.145932 
L 123.251105 248.209437 
L 121.024419 254.371939 
L 119.05862 260.622555 
L 117.357181 266.950246 
L 115.923106 273.343836 
L 114.758928 279.792034 
L 113.866703 286.283451 
L 113.248007 292.806624 
L 112.903933 299.350031 
L 112.835088 305.902117 
L 113.041593 312.451309 
L 113.523085 318.986042 
L 114.278712 325.494774 
L 115.30714 331.96601 
L 116.606553 338.388322 
L 118.174657 344.750367 
L 120.008681 351.04091 
L 122.105386 357.24884 
L 124.46107 363.363193 
L 127.071572 369.373172 
L 129.932282 375.268161 
L 133.038148 381.037751 
L 136.383683 386.671751 
L 139.962981 392.160211 
L 143.769719 397.493438 
L 147.797174 402.662014 
L 152.038234 407.656809 
L 156.485408 412.469002 
L 161.130842 417.090096 
L 165.966333 421.511928 
L 170.983339 425.726689 
L 176.173001 429.726936 
L 181.526153 433.505603 
L 187.033342 437.056018 
L 192.684839 440.371909 
L 198.470666 443.447422 
L 204.380603 446.277123 
L 210.404213 448.856016 
L 216.530858 451.179546 
L 222.749717 453.243609 
L 229.049807 455.04456 
L 235.420003 456.579219 
L 241.849052 457.844875 
L 248.325602 458.839293 
L 254.838214 459.560716 
L 261.375386 460.007871 
L 267.925573 460.179967 
L 274.477207 460.076702 
L 281.018716 459.698257 
L 287.538548 459.0453 
L 294.025189 458.118985 
L 300.467182 456.920948 
L 306.85315 455.453304 
L 313.171815 453.718646 
L 319.412017 451.720037 
L 325.562737 449.461007 
L 331.61311 446.945545 
L 337.552452 444.178094 
L 343.370273 441.163543 
L 349.056299 437.907213 
L 354.600486 434.414858 
L 359.993045 430.692643 
L 365.22445 426.747144 
L 370.285463 422.585328 
L 375.167146 418.214546 
L 379.860877 413.642516 
L 384.358367 408.877314 
L 388.651672 403.927354 
L 392.73321 398.80138 
L 396.595773 393.508444 
L 400.232539 388.057894 
L 403.637085 382.459356 
L 406.803399 376.722717 
L 409.725889 370.85811 
L 412.399393 364.875891 
L 414.819189 358.786625 
L 416.981004 352.601068 
L 418.88102 346.330143 
L 420.515882 339.984925 
L 421.882701 333.57662 
L 422.979065 327.116546 
L 423.803036 320.616112 
L 424.35316 314.086799 
L 424.628466 307.540138 
L 424.66289 304.263915 
L 424.66289 304.263915 
" clip-path="url(#p6b23ed4fbe)" style="fill: none; stroke-dasharray: 2.22,0.96; stroke-dashoffset: 0; stroke: #0072b2; stroke-width: 0.6"/>
   </g>
   <g id="line2d_6">
    <path d="M 465.337204 304.263915 
L 465.163604 296.003957 
L 464.64311 287.758588 
L 463.776641 279.542368 
L 462.565727 271.369809 
L 461.012508 263.255344 
L 459.119726 255.213304 
L 456.890724 247.257892 
L 454.329439 239.403158 
L 451.440394 231.662974 
L 448.228691 224.05101 
L 444.700003 216.580709 
L 440.860562 209.265265 
L 436.717148 202.117597 
L 432.27708 195.150329 
L 427.548198 188.375766 
L 422.538854 181.805872 
L 417.257896 175.45225 
L 411.714649 169.326122 
L 405.918905 163.438306 
L 399.880898 157.799201 
L 393.611292 152.418766 
L 387.12116 147.306504 
L 380.421965 142.471444 
L 373.525537 137.922123 
L 366.444057 133.666578 
L 359.19003 129.712323 
L 351.776269 126.066343 
L 344.215866 122.735076 
L 336.522174 119.724405 
L 328.708781 117.039649 
L 320.789485 114.685548 
L 312.778274 112.666259 
L 304.689295 110.98535 
L 296.536835 109.645789 
L 288.335292 108.649941 
L 280.099149 107.999566 
L 271.842953 107.695812 
L 263.581286 107.739215 
L 255.328738 108.129698 
L 247.099883 108.866573 
L 238.909255 109.948538 
L 230.77132 111.373682 
L 222.700449 113.139487 
L 214.710896 115.242837 
L 206.816772 117.680014 
L 199.032018 120.446716 
L 191.370383 123.538057 
L 183.845399 126.948576 
L 176.470354 130.67225 
L 169.258274 134.702503 
L 162.221897 139.032217 
L 155.373649 143.653746 
L 148.725624 148.558927 
L 142.289564 153.739097 
L 136.076836 159.185108 
L 130.098411 164.887342 
L 124.364849 170.835728 
L 118.886274 177.01976 
L 113.672364 183.428517 
L 108.732325 190.05068 
L 104.074883 196.874555 
L 99.708263 203.888089 
L 95.640177 211.078897 
L 91.87781 218.434277 
L 88.427806 225.941241 
L 85.296258 233.58653 
L 82.488697 241.356641 
L 80.010081 249.237853 
L 77.864788 257.216245 
L 76.056607 265.277729 
L 74.58873 273.408065 
L 73.463751 281.592896 
L 72.683656 289.817766 
L 72.249823 298.068149 
L 72.163019 306.329474 
L 72.423395 314.587151 
L 73.030493 322.826597 
L 73.98324 331.033259 
L 75.279954 339.192644 
L 76.918345 347.290342 
L 78.895519 355.312051 
L 81.207984 363.243604 
L 83.851656 371.070994 
L 86.821866 378.780396 
L 90.113369 386.358195 
L 93.720351 393.791009 
L 97.636442 401.065709 
L 101.854726 408.169448 
L 106.367754 415.08968 
L 111.167554 421.814184 
L 116.245649 428.331083 
L 121.593072 434.628868 
L 127.200379 440.696417 
L 133.057666 446.523013 
L 139.154588 452.098366 
L 145.480379 457.41263 
L 152.023866 462.45642 
L 158.773493 467.220826 
L 165.717339 471.697436 
L 172.84314 475.878343 
L 180.138313 479.756163 
L 187.589973 483.324047 
L 195.18496 486.575694 
L 202.909859 489.505362 
L 210.751029 492.107877 
L 218.694622 494.378642 
L 226.726607 496.313646 
L 234.8328 497.909473 
L 242.998885 499.163304 
L 251.210439 500.072925 
L 259.45296 500.636729 
L 267.711892 500.85372 
L 275.972647 500.723516 
L 284.220637 500.246346 
L 292.441295 499.423052 
L 300.620103 498.25509 
L 308.742616 496.744521 
L 316.794488 494.894014 
L 324.761501 492.706836 
L 332.629582 490.186851 
L 340.384837 487.338509 
L 348.013569 484.16684 
L 355.502304 480.677446 
L 362.837818 476.876489 
L 370.007154 472.770683 
L 376.997652 468.367277 
L 383.796965 463.674051 
L 390.393084 458.699291 
L 396.774362 453.451784 
L 402.929527 447.940798 
L 408.84771 442.176064 
L 414.518457 436.167766 
L 419.931755 429.926512 
L 425.078042 423.463328 
L 429.94823 416.789626 
L 434.533718 409.917193 
L 438.826407 402.858166 
L 442.818716 395.625013 
L 446.503594 388.230508 
L 449.874534 380.687711 
L 452.925581 373.009941 
L 455.651348 365.21076 
L 458.047021 357.303941 
L 460.108368 349.303449 
L 461.831749 341.223412 
L 463.21412 333.078102 
L 464.253041 324.881903 
L 464.946676 316.649291 
L 465.2938 308.394805 
L 465.337204 304.263915 
L 465.337204 304.263915 
" clip-path="url(#p6b23ed4fbe)" style="fill: none; stroke-dasharray: 2.22,0.96; stroke-dashoffset: 0; stroke: #d55e00; stroke-width: 0.6"/>
   </g>
   <g id="line2d_7">
    <path d="M 506.011519 304.263915 
L 505.802001 294.295001 
L 505.173818 284.343693 
L 504.12808 274.427566 
L 502.666633 264.564132 
L 500.792058 254.770813 
L 498.507666 245.064902 
L 495.817491 235.463543 
L 492.726285 225.983691 
L 489.239506 216.64209 
L 485.363313 207.455236 
L 481.104552 198.439356 
L 476.470744 189.610372 
L 471.470072 180.983876 
L 466.111368 172.575105 
L 460.404097 164.398908 
L 454.358337 156.469725 
L 447.984767 148.801561 
L 441.294642 141.407958 
L 434.299777 134.301973 
L 427.012528 127.496157 
L 419.445762 121.002529 
L 411.612845 114.832557 
L 403.527609 108.997139 
L 395.204334 103.50658 
L 386.65772 98.370577 
L 377.90286 93.598201 
L 368.955217 89.19788 
L 359.830593 85.177385 
L 350.545103 81.543817 
L 341.115145 78.303594 
L 331.557375 75.462437 
L 321.888672 73.025365 
L 312.126111 70.996682 
L 302.286935 69.37997 
L 292.38852 68.178085 
L 282.448348 67.393149 
L 272.483974 67.026549 
L 262.512997 67.078932 
L 252.553024 67.550205 
L 242.621648 68.439537 
L 232.736408 69.745357 
L 222.914761 71.465358 
L 213.174055 73.596503 
L 203.531491 76.135027 
L 194.0041 79.076449 
L 184.608707 82.415572 
L 175.361907 86.1465 
L 166.280029 90.262643 
L 157.379113 94.756733 
L 148.674879 99.620831 
L 140.182699 104.846349 
L 131.917572 110.424055 
L 123.894094 116.344102 
L 116.126436 122.596031 
L 108.628315 129.168803 
L 101.412975 136.05081 
L 94.493158 143.229896 
L 87.881086 150.693383 
L 81.588435 158.42809 
L 75.626319 166.420356 
L 70.005269 174.656067 
L 64.73521 183.120677 
L 59.825451 191.799238 
L 55.284663 200.676421 
L 51.120865 209.73655 
L 47.341411 218.963622 
L 43.952975 228.341343 
L 40.961542 237.85315 
L 38.372396 247.482245 
L 36.190108 257.211621 
L 34.418533 267.024096 
L 33.060799 276.90234 
L 32.119306 286.828907 
L 31.595714 296.786266 
L 31.490949 306.756831 
L 31.805197 316.722993 
L 32.537901 326.667152 
L 33.687769 336.571744 
L 35.252769 346.419278 
L 37.230137 356.192361 
L 39.616381 365.873734 
L 42.407287 375.446299 
L 45.597925 384.893148 
L 49.182662 394.197599 
L 53.155165 403.343219 
L 57.508419 412.313856 
L 62.234736 421.093666 
L 67.325769 429.667144 
L 72.772526 438.019149 
L 78.565388 446.134929 
L 84.694125 454.000152 
L 91.147911 461.600927 
L 97.91535 468.923831 
L 104.984489 475.95593 
L 112.342844 482.684804 
L 119.977419 489.098572 
L 127.874731 495.185903 
L 136.020832 500.93605 
L 144.401336 506.338854 
L 153.001441 511.384776 
L 161.80596 516.064904 
L 170.799343 520.370971 
L 179.965706 524.295373 
L 189.288861 527.831179 
L 198.752342 530.972145 
L 208.339436 533.712723 
L 218.033212 536.048074 
L 227.816548 537.974072 
L 237.672168 539.487316 
L 247.582664 540.585134 
L 257.530535 541.265587 
L 267.49821 541.527473 
L 277.468087 541.37033 
L 287.422558 540.794435 
L 297.344042 539.800805 
L 307.215017 538.391195 
L 317.01805 536.568095 
L 326.735827 534.334724 
L 336.351187 531.695027 
L 345.847147 528.653666 
L 355.206937 525.216011 
L 364.414027 521.388135 
L 373.452157 517.176797 
L 382.305363 512.589435 
L 390.95801 507.634152 
L 399.394817 502.319697 
L 407.600884 496.655458 
L 415.561719 490.651438 
L 423.263261 484.31824 
L 430.691908 477.667049 
L 437.834542 470.709613 
L 444.678548 463.458218 
L 451.211838 455.925671 
L 457.422874 448.125275 
L 463.300688 440.070807 
L 468.834897 431.776492 
L 474.015729 423.256977 
L 478.834033 414.52731 
L 483.281299 405.602907 
L 487.349675 396.49953 
L 491.031973 387.233257 
L 494.321692 377.820452 
L 497.213021 368.27774 
L 499.700854 358.621973 
L 501.780796 348.870205 
L 503.449176 339.039658 
L 504.703045 329.147694 
L 505.540191 319.211783 
L 505.959133 309.249472 
L 506.011519 304.263915 
L 506.011519 304.263915 
" clip-path="url(#p6b23ed4fbe)" style="fill: none; stroke-dasharray: 2.22,0.96; stroke-dashoffset: 0; stroke: #cc79a7; stroke-width: 0.6"/>
   </g>
   <g id="text_1">
    <!-- P1 -->
    <g style="fill: #333333" transform="translate(286.539698 304.263915) scale(0.09 -0.09)">
     <defs>
      <path id="DejaVuSans-50" d="M 1259 4147 
L 1259 2394 
L 2053 2394 
Q 2494 2394 2734 2622 
Q 2975 2850 2975 3272 
Q 2975 3691 2734 3919 
Q 2494 4147 2053 4147 
L 1259 4147 
z
M 628 4666 
L 2053 4666 
Q 2838 4666 3239 4311 
Q 3641 3956 3641 3272 
Q 3641 2581 3239 2228 
Q 2838 1875 2053 1875 
L 1259 1875 
L 1259 0 
L 628 0 
L 628 4666 
z
" transform="scale(0.015625)"/>
      <path id="DejaVuSans-31" d="M 794 531 
L 1825 531 
L 1825 4091 
L 703 3866 
L 703 4441 
L 1819 4666 
L 2450 4666 
L 2450 531 
L 3481 531 
L 3481 0 
L 794 0 
L 794 531 
z
" transform="scale(0.015625)"/>
     </defs>
     <use xlink:href="#DejaVuSans-50"/>
     <use xlink:href="#DejaVuSans-31" x="60.302734"/>
    </g>
   </g>
   <g id="text_2">
    <!-- P2 -->
    <g style="fill: #333333" transform="translate(366.400639 271.340125) scale(0.09 -0.09)">
     <defs>
      <path id="DejaVuSans-32" d="M 1228 531 
L 3431 531 
L 3431 0 
L 469 0 
L 469 531 
Q 828 903 1448 1529 
Q 2069 2156 2228 2338 
Q 2531 2678 2651 2914 
Q 2772 3150 2772 3378 
Q 2772 3750 2511 3984 
Q 2250 4219 1831 4219 
Q 1534 4219 1204 4116 
Q 875 4013 500 3803 
L 500 4441 
Q 881 4594 1212 4672 
Q 1544 4750 1819 4750 
Q 2544 4750 2975 4387 
Q 3406 4025 3406 3419 
Q 3406 3131 3298 2873 
Q 3191 2616 2906 2266 
Q 2828 2175 2409 1742 
Q 1991 1309 1228 531 
z
" transform="scale(0.015625)"/>
     </defs>
     <use xlink:href="#DejaVuSans-50"/>
     <use xlink:href="#DejaVuSans-32" x="60.302734"/>
    </g>
   </g>
   <g id="text_3">
    <!-- P3 -->
    <g style="fill: #333333" transform="translate(418.622244 190.244395) scale(0.09 -0.09)">
     <defs>
      <path id="DejaVuSans-33" d="M 2597 2516 
Q 3050 2419 3304 2112 
Q 3559 1806 3559 1356 
Q 3559 666 3084 287 
Q 2609 -91 1734 -91 
Q 1441 -91 1130 -33 
Q 819 25 488 141 
L 488 750 
Q 750 597 1062 519 
Q 1375 441 1716 441 
Q 2309 441 2620 675 
Q 2931 909 2931 1356 
Q 2931 1769 2642 2001 
Q 2353 2234 1838 2234 
L 1294 2234 
L 1294 2753 
L 1863 2753 
Q 2328 2753 2575 2939 
Q 2822 3125 2822 3475 
Q 2822 3834 2567 4026 
Q 2313 4219 1838 4219 
Q 1578 4219 1281 4162 
Q 984 4106 628 3988 
L 628 4550 
Q 988 4650 1302 4700 
Q 1616 4750 1894 4750 
Q 2613 4750 3031 4423 
Q 3450 4097 3450 3541 
Q 3450 3153 3228 2886 
Q 3006 2619 2597 2516 
z
" transform="scale(0.015625)"/>
     </defs>
     <use xlink:href="#DejaVuSans-50"/>
     <use xlink:href="#DejaVuSans-33" x="60.302734"/>
    </g>
   </g>
   <g id="text_4">
    <!-- Pulse Spiral Timeline -->
    <g style="fill: #333333" transform="translate(191.444194 19.3575) scale(0.16 -0.16)">
     <defs>
      <path id="DejaVuSans-75" d="M 544 1381 
L 544 3500 
L 1119 3500 
L 1119 1403 
Q 1119 906 1312 657 
Q 1506 409 1894 409 
Q 2359 409 2629 706 
Q 2900 1003 2900 1516 
L 2900 3500 
L 3475 3500 
L 3475 0 
L 2900 0 
L 2900 538 
Q 2691 219 2414 64 
Q 2138 -91 1772 -91 
Q 1169 -91 856 284 
Q 544 659 544 1381 
z
M 1991 3584 
L 1991 3584 
z
" transform="scale(0.015625)"/>
      <path id="DejaVuSans-6c" d="M 603 4863 
L 1178 4863 
L 1178 0 
L 603 0 
L 603 4863 
z
" transform="scale(0.015625)"/>
      <path id="DejaVuSans-73" d="M 2834 3397 
L 2834 2853 
Q 2591 2978 2328 3040 
Q 2066 3103 1784 3103 
Q 1356 3103 1142 2972 
Q 928 2841 928 2578 
Q 928 2378 1081 2264 
Q 1234 2150 1697 2047 
L 1894 2003 
Q 2506 1872 2764 1633 
Q 3022 1394 3022 966 
Q 3022 478 2636 193 
Q 2250 -91 1575 -91 
Q 1294 -91 989 -36 
Q 684 19 347 128 
L 347 722 
Q 666 556 975 473 
Q 1284 391 1588 391 
Q 1994 391 2212 530 
Q 2431 669 2431 922 
Q 2431 1156 2273 1281 
Q 2116 1406 1581 1522 
L 1381 1569 
Q 847 1681 609 1914 
Q 372 2147 372 2553 
Q 372 3047 722 3315 
Q 1072 3584 1716 3584 
Q 2034 3584 2315 3537 
Q 2597 3491 2834 3397 
z
" transform="scale(0.015625)"/>
      <path id="DejaVuSans-65" d="M 3597 1894 
L 3597 1613 
L 953 1613 
Q 991 1019 1311 708 
Q 1631 397 2203 397 
Q 2534 397 2845 478 
Q 3156 559 3463 722 
L 3463 178 
Q 3153 47 2828 -22 
Q 2503 -91 2169 -91 
Q 1331 -91 842 396 
Q 353 884 353 1716 
Q 353 2575 817 3079 
Q 1281 3584 2069 3584 
Q 2775 3584 3186 3129 
Q 3597 2675 3597 1894 
z
M 3022 2063 
Q 3016 2534 2758 2815 
Q 2500 3097 2075 3097 
Q 1594 3097 1305 2825 
Q 1016 2553 972 2059 
L 3022 2063 
z
" transform="scale(0.015625)"/>
      <path id="DejaVuSans-20" transform="scale(0.015625)"/>
      <path id="DejaVuSans-53" d="M 3425 4513 
L 3425 3897 
Q 3066 4069 2747 4153 
Q 2428 4238 2131 4238 
Q 1616 4238 1336 4038 
Q 1056 3838 1056 3469 
Q 1056 3159 1242 3001 
Q 1428 2844 1947 2747 
L 2328 2669 
Q 3034 2534 3370 2195 
Q 3706 1856 3706 1288 
Q 3706 609 3251 259 
Q 2797 -91 1919 -91 
Q 1588 -91 1214 -16 
Q 841 59 441 206 
L 441 856 
Q 825 641 1194 531 
Q 1563 422 1919 422 
Q 2459 422 2753 634 
Q 3047 847 3047 1241 
Q 3047 1584 2836 1778 
Q 2625 1972 2144 2069 
L 1759 2144 
Q 1053 2284 737 2584 
Q 422 2884 422 3419 
Q 422 4038 858 4394 
Q 1294 4750 2059 4750 
Q 2388 4750 2728 4690 
Q 3069 4631 3425 4513 
z
" transform="scale(0.015625)"/>
      <path id="DejaVuSans-70" d="M 1159 525 
L 1159 -1331 
L 581 -1331 
L 581 3500 
L 1159 3500 
L 1159 2969 
Q 1341 3281 1617 3432 
Q 1894 3584 2278 3584 
Q 2916 3584 3314 3078 
Q 3713 2572 3713 1747 
Q 3713 922 3314 415 
Q 2916 -91 2278 -91 
Q 1894 -91 1617 61 
Q 1341 213 1159 525 
z
M 3116 1747 
Q 3116 2381 2855 2742 
Q 2594 3103 2138 3103 
Q 1681 3103 1420 2742 
Q 1159 2381 1159 1747 
Q 1159 1113 1420 752 
Q 1681 391 2138 391 
Q 2594 391 2855 752 
Q 3116 1113 3116 1747 
z
" transform="scale(0.015625)"/>
      <path id="DejaVuSans-69" d="M 603 3500 
L 1178 3500 
L 1178 0 
L 603 0 
L 603 3500 
z
M 603 4863 
L 1178 4863 
L 1178 4134 
L 603 4134 
L 603 4863 
z
" transform="scale(0.015625)"/>
      <path id="DejaVuSans-72" d="M 2631 2963 
Q 2534 3019 2420 3045 
Q 2306 3072 2169 3072 
Q 1681 3072 1420 2755 
Q 1159 2438 1159 1844 
L 1159 0 
L 581 0 
L 581 3500 
L 1159 3500 
L 1159 2956 
Q 1341 3275 1631 3429 
Q 1922 3584 2338 3584 
Q 2397 3584 2469 3576 
Q 2541 3569 2628 3553 
L 2631 2963 
z
" transform="scale(0.015625)"/>
      <path id="DejaVuSans-61" d="M 2194 1759 
Q 1497 1759 1228 1600 
Q 959 1441 959 1056 
Q 959 750 1161 570 
Q 1363 391 1709 391 
Q 2188 391 2477 730 
Q 2766 1069 2766 1631 
L 2766 1759 
L 2194 1759 
z
M 3341 1997 
L 3341 0 
L 2766 0 
L 2766 531 
Q 2569 213 2275 61 
Q 1981 -91 1556 -91 
Q 1019 -91 701 211 
Q 384 513 384 1019 
Q 384 1609 779 1909 
Q 1175 2209 1959 2209 
L 2766 2209 
L 2766 2266 
Q 2766 2663 2505 2880 
Q 2244 3097 1772 3097 
Q 1472 3097 1187 3025 
Q 903 2953 641 2809 
L 641 3341 
Q 956 3463 1253 3523 
Q 1550 3584 1831 3584 
Q 2591 3584 2966 3190 
Q 3341 2797 3341 1997 
z
" transform="scale(0.015625)"/>
      <path id="DejaVuSans-54" d="M -19 4666 
L 3928 4666 
L 3928 4134 
L 2272 4134 
L 2272 0 
L 1638 0 
L 1638 4134 
L -19 4134 
L -19 4666 
z
" transform="scale(0.015625)"/>
      <path id="DejaVuSans-6d" d="M 3328 2828 
Q 3544 3216 3844 3400 
Q 4144 3584 4550 3584 
Q 5097 3584 5394 3201 
Q 5691 2819 5691 2113 
L 5691 0 
L 5113 0 
L 5113 2094 
Q 5113 2597 4934 2840 
Q 4756 3084 4391 3084 
Q 3944 3084 3684 2787 
Q 3425 2491 3425 1978 
L 3425 0 
L 2847 0 
L 2847 2094 
Q 2847 2600 2669 2842 
Q 2491 3084 2119 3084 
Q 1678 3084 1418 2786 
Q 1159 2488 1159 1978 
L 1159 0 
L 581 0 
L 581 3500 
L 1159 3500 
L 1159 2956 
Q 1356 3278 1631 3431 
Q 1906 3584 2284 3584 
Q 2666 3584 2933 3390 
Q 3200 3197 3328 2828 
z
" transform="scale(0.015625)"/>
      <path id="DejaVuSans-6e" d="M 3513 2113 
L 3513 0 
L 2938 0 
L 2938 2094 
Q 2938 2591 2744 2837 
Q 2550 3084 2163 3084 
Q 1697 3084 1428 2787 
Q 1159 2491 1159 1978 
L 1159 0 
L 581 0 
L 581 3500 
L 1159 3500 
L 1159 2956 
Q 1366 3272 1645 3428 
Q 1925 3584 2291 3584 
Q 2894 3584 3203 3211 
Q 3513 2838 3513 2113 
z
" transform="scale(0.015625)"/>
     </defs>
     <use xlink:href="#DejaVuSans-50"/>
     <use xlink:href="#DejaVuSans-75" x="58.552734"/>
     <use xlink:href="#DejaVuSans-6c" x="121.931641"/>
     <use xlink:href="#DejaVuSans-73" x="149.714844"/>
     <use xlink:href="#DejaVuSans-65" x="201.814453"/>
     <use xlink:href="#DejaVuSans-20" x="263.337891"/>
     <use xlink:href="#DejaVuSans-53" x="295.125"/>
     <use xlink:href="#DejaVuSans-70" x="358.601562"/>
     <use xlink:href="#DejaVuSans-69" x="422.078125"/>
     <use xlink:href="#DejaVuSans-72" x="449.861328"/>
     <use xlink:href="#DejaVuSans-61" x="490.974609"/>
     <use xlink:href="#DejaVuSans-6c" x="552.253906"/>
     <use xlink:href="#DejaVuSans-20" x="580.037109"/>
     <use xlink:href="#DejaVuSans-54" x="611.824219"/>
     <use xlink:href="#DejaVuSans-69" x="669.783203"/>
     <use xlink:href="#DejaVuSans-6d" x="697.566406"/>
     <use xlink:href="#DejaVuSans-65" x="794.978516"/>
     <use xlink:href="#DejaVuSans-6c" x="856.501953"/>
     <use xlink:href="#DejaVuSans-69" x="884.285156"/>
     <use xlink:href="#DejaVuSans-6e" x="912.068359"/>
     <use xlink:href="#DejaVuSans-65" x="975.447266"/>
    </g>
    <!-- (pulses, traces, and layered history) -->
    <g style="fill: #333333" transform="translate(129.999194 37.274) scale(0.16 -0.16)">
     <defs>
      <path id="DejaVuSans-28" d="M 1984 4856 
Q 1566 4138 1362 3434 
Q 1159 2731 1159 2009 
Q 1159 1288 1364 580 
Q 1569 -128 1984 -844 
L 1484 -844 
Q 1016 -109 783 600 
Q 550 1309 550 2009 
Q 550 2706 781 3412 
Q 1013 4119 1484 4856 
L 1984 4856 
z
" transform="scale(0.015625)"/>
      <path id="DejaVuSans-2c" d="M 750 794 
L 1409 794 
L 1409 256 
L 897 -744 
L 494 -744 
L 750 256 
L 750 794 
z
" transform="scale(0.015625)"/>
      <path id="DejaVuSans-74" d="M 1172 4494 
L 1172 3500 
L 2356 3500 
L 2356 3053 
L 1172 3053 
L 1172 1153 
Q 1172 725 1289 603 
Q 1406 481 1766 481 
L 2356 481 
L 2356 0 
L 1766 0 
Q 1100 0 847 248 
Q 594 497 594 1153 
L 594 3053 
L 172 3053 
L 172 3500 
L 594 3500 
L 594 4494 
L 1172 4494 
z
" transform="scale(0.015625)"/>
      <path id="DejaVuSans-63" d="M 3122 3366 
L 3122 2828 
Q 2878 2963 2633 3030 
Q 2388 3097 2138 3097 
Q 1578 3097 1268 2742 
Q 959 2388 959 1747 
Q 959 1106 1268 751 
Q 1578 397 2138 397 
Q 2388 397 2633 464 
Q 2878 531 3122 666 
L 3122 134 
Q 2881 22 2623 -34 
Q 2366 -91 2075 -91 
Q 1284 -91 818 406 
Q 353 903 353 1747 
Q 353 2603 823 3093 
Q 1294 3584 2113 3584 
Q 2378 3584 2631 3529 
Q 2884 3475 3122 3366 
z
" transform="scale(0.015625)"/>
      <path id="DejaVuSans-64" d="M 2906 2969 
L 2906 4863 
L 3481 4863 
L 3481 0 
L 2906 0 
L 2906 525 
Q 2725 213 2448 61 
Q 2172 -91 1784 -91 
Q 1150 -91 751 415 
Q 353 922 353 1747 
Q 353 2572 751 3078 
Q 1150 3584 1784 3584 
Q 2172 3584 2448 3432 
Q 2725 3281 2906 2969 
z
M 947 1747 
Q 947 1113 1208 752 
Q 1469 391 1925 391 
Q 2381 391 2643 752 
Q 2906 1113 2906 1747 
Q 2906 2381 2643 2742 
Q 2381 3103 1925 3103 
Q 1469 3103 1208 2742 
Q 947 2381 947 1747 
z
" transform="scale(0.015625)"/>
      <path id="DejaVuSans-79" d="M 2059 -325 
Q 1816 -950 1584 -1140 
Q 1353 -1331 966 -1331 
L 506 -1331 
L 506 -850 
L 844 -850 
Q 1081 -850 1212 -737 
Q 1344 -625 1503 -206 
L 1606 56 
L 191 3500 
L 800 3500 
L 1894 763 
L 2988 3500 
L 3597 3500 
L 2059 -325 
z
" transform="scale(0.015625)"/>
      <path id="DejaVuSans-68" d="M 3513 2113 
L 3513 0 
L 2938 0 
L 2938 2094 
Q 2938 2591 2744 2837 
Q 2550 3084 2163 3084 
Q 1697 3084 1428 2787 
Q 1159 2491 1159 1978 
L 1159 0 
L 581 0 
L 581 4863 
L 1159 4863 
L 1159 2956 
Q 1366 3272 1645 3428 
Q 1925 3584 2291 3584 
Q 2894 3584 3203 3211 
Q 3513 2838 3513 2113 
z
" transform="scale(0.015625)"/>
      <path id="DejaVuSans-6f" d="M 1959 3097 
Q 1497 3097 1228 2736 
Q 959 2375 959 1747 
Q 959 1119 1226 758 
Q 1494 397 1959 397 
Q 2419 397 2687 759 
Q 2956 1122 2956 1747 
Q 2956 2369 2687 2733 
Q 2419 3097 1959 3097 
z
M 1959 3584 
Q 2709 3584 3137 3096 
Q 3566 2609 3566 1747 
Q 3566 888 3137 398 
Q 2709 -91 1959 -91 
Q 1206 -91 779 398 
Q 353 888 353 1747 
Q 353 2609 779 3096 
Q 1206 3584 1959 3584 
z
" transform="scale(0.015625)"/>
      <path id="DejaVuSans-29" d="M 513 4856 
L 1013 4856 
Q 1481 4119 1714 3412 
Q 1947 2706 1947 2009 
Q 1947 1309 1714 600 
Q 1481 -109 1013 -844 
L 513 -844 
Q 928 -128 1133 580 
Q 1338 1288 1338 2009 
Q 1338 2731 1133 3434 
Q 928 4138 513 4856 
z
" transform="scale(0.015625)"/>
     </defs>
     <use xlink:href="#DejaVuSans-28"/>
     <use xlink:href="#DejaVuSans-70" x="39.013672"/>
     <use xlink:href="#DejaVuSans-75" x="102.490234"/>
     <use xlink:href="#DejaVuSans-6c" x="165.869141"/>
     <use xlink:href="#DejaVuSans-73" x="193.652344"/>
     <use xlink:href="#DejaVuSans-65" x="245.751953"/>
     <use xlink:href="#DejaVuSans-73" x="307.275391"/>
     <use xlink:href="#DejaVuSans-2c" x="359.375"/>
     <use xlink:href="#DejaVuSans-20" x="391.162109"/>
     <use xlink:href="#DejaVuSans-74" x="422.949219"/>
     <use xlink:href="#DejaVuSans-72" x="462.158203"/>
     <use xlink:href="#DejaVuSans-61" x="503.271484"/>
     <use xlink:href="#DejaVuSans-63" x="564.550781"/>
     <use xlink:href="#DejaVuSans-65" x="619.53125"/>
     <use xlink:href="#DejaVuSans-73" x="681.054688"/>
     <use xlink:href="#DejaVuSans-2c" x="733.154297"/>
     <use xlink:href="#DejaVuSans-20" x="764.941406"/>
     <use xlink:href="#DejaVuSans-61" x="796.728516"/>
     <use xlink:href="#DejaVuSans-6e" x="858.007812"/>
     <use xlink:href="#DejaVuSans-64" x="921.386719"/>
     <use xlink:href="#DejaVuSans-20" x="984.863281"/>
     <use xlink:href="#DejaVuSans-6c" x="1016.650391"/>
     <use xlink:href="#DejaVuSans-61" x="1044.433594"/>
     <use xlink:href="#DejaVuSans-79" x="1105.712891"/>
     <use xlink:href="#DejaVuSans-65" x="1164.892578"/>
     <use xlink:href="#DejaVuSans-72" x="1226.416016"/>
     <use xlink:href="#DejaVuSans-65" x="1265.279297"/>
     <use xlink:href="#DejaVuSans-64" x="1326.802734"/>
     <use xlink:href="#DejaVuSans-20" x="1390.279297"/>
     <use xlink:href="#DejaVuSans-68" x="1422.066406"/>
     <use xlink:href="#DejaVuSans-69" x="1485.445312"/>
     <use xlink:href="#DejaVuSans-73" x="1513.228516"/>
     <use xlink:href="#DejaVuSans-74" x="1565.328125"/>
     <use xlink:href="#DejaVuSans-6f" x="1604.537109"/>
     <use xlink:href="#DejaVuSans-72" x="1665.71875"/>
     <use xlink:href="#DejaVuSans-79" x="1706.832031"/>
     <use xlink:href="#DejaVuSans-29" x="1766.011719"/>
    </g>
   </g>
  </g>
 </g>
 <defs>
  <clipPath id="p6b23ed4fbe">
   <rect x="7.2" y="43.274" width="534.400889" height="521.979829"/>
  </clipPath>
 </defs>
</svg>
