<?xml version="1.0" encoding="utf-8" standalone="no"?>
<!DOCTYPE svg PUBLIC "-//W3C//DTD SVG 1.1//EN"
  "http://www.w3.org/Graphics/SVG/1.1/DTD/svg11.dtd">
<svg xmlns:xlink="http://www.w3.org/1999/xlink" width="550.8pt" height="539.28pt" viewBox="0 0 550.8 539.28" xmlns="http://www.w3.org/2000/svg" version="1.1">
 <metadata>
  <rdf:RDF xmlns:dc="http://purl.org/dc/elements/1.1/" xmlns:cc="http://creativecommons.org/ns#" xmlns:rdf="http://www.w3.org/1999/02/22-rdf-syntax-ns#">
   <cc:Work>
    <dc:type rdf:resource="http://purl.org/dc/dcmitype/StillImage"/>
    <dc:date>2025-09-10T00:18:45.894548</dc:date>
    <dc:format>image/svg+xml</dc:format>
    <dc:creator>
     <cc:Agent>
      <dc:title>Matplotlib v3.6.3, https://matplotlib.org/</dc:title>
     </cc:Agent>
    </dc:creator>
   </cc:Work>
  </rdf:RDF>
 </metadata>
 <defs>
  <style type="text/css">*{stroke-linejoin: round; stroke-linecap: butt}</style>
 </defs>
 <g id="figure_1">
  <g id="patch_1">
   <path d="M 0 539.28 
L 550.8 539.28 
L 550.8 0 
L 0 0 
z
" style="fill: #ffffff"/>
  </g>
  <g id="axes_1">
   <g id="PathCollection_1">
    <defs>
     <path id="m3f6ed734cc" d="M -3.872983 3.872983 
L 3.872983 -3.872983 
M -3.872983 -3.872983 
L 3.872983 3.872983 
" style="stroke: #e69f00; stroke-width: 1.5"/>
    </defs>
    <g clip-path="url(#p780f6ed728)">
     <use xlink:href="#m3f6ed734cc" x="116.4" y="143.28" style="fill: #e69f00; stroke: #e69f00; stroke-width: 1.5"/>
    </g>
   </g>
  </g>
  <g id="axes_2">
   <g id="PathCollection_2">
    <g clip-path="url(#p3eaa5db90b)">
     <use xlink:href="#m3f6ed734cc" x="289.44" y="143.28" style="fill: #e69f00; stroke: #e69f00; stroke-width: 1.5"/>
    </g>
   </g>
  </g>
  <g id="axes_3">
   <g id="PathCollection_3">
    <g clip-path="url(#p39ae366f47)">
     <use xlink:href="#m3f6ed734cc" x="462.48" y="143.28" style="fill: #e69f00; stroke: #e69f00; stroke-width: 1.5"/>
    </g>
   </g>
  </g>
  <g id="axes_4">
   <g id="line2d_1">
    <path d="M 190.145455 300.96 
L 189.996944 296.725055 
L 189.552009 292.507163 
L 188.812443 288.323308 
L 187.781222 284.190336 
L 186.462499 280.12489 
L 184.861585 276.143339 
L 182.984925 272.261716 
L 180.840077 268.495652 
L 178.435676 264.860309 
L 175.781405 261.370327 
L 172.887951 258.039759 
L 169.766966 254.882016 
L 166.431015 251.909812 
L 162.893533 249.135116 
L 159.168763 246.569101 
L 155.271703 244.222099 
L 151.218046 242.10356 
L 147.024114 240.222015 
L 142.706795 238.585041 
L 138.283473 237.199228 
L 133.771959 236.070158 
L 129.19042 235.202376 
L 124.557303 234.599377 
L 119.891265 234.263589 
L 115.211094 234.196364 
L 110.535636 234.397972 
L 105.883716 234.867602 
L 101.274068 235.603363 
L 96.725251 236.602292 
L 92.255583 237.860366 
L 87.883061 239.372521 
L 83.625292 241.132667 
L 79.49942 243.133716 
L 75.522059 245.367611 
L 71.709225 247.825358 
L 68.076269 250.497058 
L 64.637822 253.371955 
L 61.407727 256.438473 
L 58.398993 259.684263 
L 55.623733 263.096255 
L 53.093123 266.660712 
L 50.817353 270.36328 
L 48.805586 274.18905 
L 47.065923 278.122617 
L 45.60537 282.148142 
L 44.429806 286.249416 
L 43.543967 290.409924 
L 42.951418 294.612914 
L 42.654545 298.841461 
L 42.654545 303.078539 
L 42.951418 307.307086 
L 43.543967 311.510076 
L 44.429806 315.670584 
L 45.60537 319.771858 
L 47.065923 323.797383 
L 48.805586 327.73095 
L 50.817353 331.55672 
L 53.093123 335.259288 
L 55.623733 338.823745 
L 58.398993 342.235737 
L 61.407727 345.481527 
L 64.637822 348.548045 
L 68.076269 351.422942 
L 71.709225 354.094642 
L 75.522059 356.552389 
L 79.49942 358.786284 
L 83.625292 360.787333 
L 87.883061 362.547479 
L 92.255583 364.059634 
L 96.725251 365.317708 
L 101.274068 366.316637 
L 105.883716 367.052398 
L 110.535636 367.522028 
L 115.211094 367.723636 
L 119.891265 367.656411 
L 124.557303 367.320623 
L 129.19042 366.717624 
L 133.771959 365.849842 
L 138.283473 364.720772 
L 142.706795 363.334959 
L 147.024114 361.697985 
L 151.218046 359.81644 
L 155.271703 357.697901 
L 159.168763 355.350899 
L 162.893533 352.784884 
L 166.431015 350.010188 
L 169.766966 347.037984 
L 172.887951 343.880241 
L 175.781405 340.549673 
L 178.435676 337.059691 
L 180.840077 333.424348 
L 182.984925 329.658284 
L 184.861585 325.776661 
L 186.462499 321.79511 
L 187.781222 317.729664 
L 188.812443 313.596692 
L 189.552009 309.412837 
L 189.996944 305.194945 
L 190.145455 300.96 
" clip-path="url(#p7c35b0d687)" style="fill: none; stroke: #e69f00; stroke-width: 1.5; stroke-linecap: square"/>
   </g>
  </g>
  <g id="axes_5">
   <g id="line2d_2">
    <path d="M 363.185455 300.96 
L 363.036944 296.725055 
L 362.592009 292.507163 
L 361.852443 288.323308 
L 360.821222 284.190336 
L 359.502499 280.12489 
L 357.901585 276.143339 
L 356.024925 272.261716 
L 353.880077 268.495652 
L 351.475676 264.860309 
L 348.821405 261.370327 
L 345.927951 258.039759 
L 342.806966 254.882016 
L 339.471015 251.909812 
L 335.933533 249.135116 
L 332.208763 246.569101 
L 328.311703 244.222099 
L 324.258046 242.10356 
L 320.064114 240.222015 
L 315.746795 238.585041 
L 311.323473 237.199228 
L 306.811959 236.070158 
L 302.23042 235.202376 
L 297.597303 234.599377 
L 292.931265 234.263589 
L 288.251094 234.196364 
L 283.575636 234.397972 
L 278.923716 234.867602 
L 274.314068 235.603363 
L 269.765251 236.602292 
L 265.295583 237.860366 
L 260.923061 239.372521 
L 256.665292 241.132667 
L 252.53942 243.133716 
L 248.562059 245.367611 
L 244.749225 247.825358 
L 241.116269 250.497058 
L 237.677822 253.371955 
L 234.447727 256.438473 
L 231.438993 259.684263 
L 228.663733 263.096255 
L 226.133123 266.660712 
L 223.857353 270.36328 
L 221.845586 274.18905 
L 220.105923 278.122617 
L 218.64537 282.148142 
L 217.469806 286.249416 
L 216.583967 290.409924 
L 215.991418 294.612914 
L 215.694545 298.841461 
L 215.694545 303.078539 
L 215.991418 307.307086 
L 216.583967 311.510076 
L 217.469806 315.670584 
L 218.64537 319.771858 
L 220.105923 323.797383 
L 221.845586 327.73095 
L 223.857353 331.55672 
L 226.133123 335.259288 
L 228.663733 338.823745 
L 231.438993 342.235737 
L 234.447727 345.481527 
L 237.677822 348.548045 
L 241.116269 351.422942 
L 244.749225 354.094642 
L 248.562059 356.552389 
L 252.53942 358.786284 
L 256.665292 360.787333 
L 260.923061 362.547479 
L 265.295583 364.059634 
L 269.765251 365.317708 
L 274.314068 366.316637 
L 278.923716 367.052398 
L 283.575636 367.522028 
L 288.251094 367.723636 
L 292.931265 367.656411 
L 297.597303 367.320623 
L 302.23042 366.717624 
L 306.811959 365.849842 
L 311.323473 364.720772 
L 315.746795 363.334959 
L 320.064114 361.697985 
L 324.258046 359.81644 
L 328.311703 357.697901 
L 332.208763 355.350899 
L 335.933533 352.784884 
L 339.471015 350.010188 
L 342.806966 347.037984 
L 345.927951 343.880241 
L 348.821405 340.549673 
L 351.475676 337.059691 
L 353.880077 333.424348 
L 356.024925 329.658284 
L 357.901585 325.776661 
L 359.502499 321.79511 
L 360.821222 317.729664 
L 361.852443 313.596692 
L 362.592009 309.412837 
L 363.036944 305.194945 
L 363.185455 300.96 
" clip-path="url(#pe27e59dd92)" style="fill: none; stroke: #e69f00; stroke-width: 1.5; stroke-linecap: square"/>
   </g>
  </g>
  <g id="axes_6">
   <g id="line2d_3">
    <path d="M 536.225455 300.96 
L 536.076944 296.725055 
L 535.632009 292.507163 
L 534.892443 288.323308 
L 533.861222 284.190336 
L 532.542499 280.12489 
L 530.941585 276.143339 
L 529.064925 272.261716 
L 526.920077 268.495652 
L 524.515676 264.860309 
L 521.861405 261.370327 
L 518.967951 258.039759 
L 515.846966 254.882016 
L 512.511015 251.909812 
L 508.973533 249.135116 
L 505.248763 246.569101 
L 501.351703 244.222099 
L 497.298046 242.10356 
L 493.104114 240.222015 
L 488.786795 238.585041 
L 484.363473 237.199228 
L 479.851959 236.070158 
L 475.27042 235.202376 
L 470.637303 234.599377 
L 465.971265 234.263589 
L 461.291094 234.196364 
L 456.615636 234.397972 
L 451.963716 234.867602 
L 447.354068 235.603363 
L 442.805251 236.602292 
L 438.335583 237.860366 
L 433.963061 239.372521 
L 429.705292 241.132667 
L 425.57942 243.133716 
L 421.602059 245.367611 
L 417.789225 247.825358 
L 414.156269 250.497058 
L 410.717822 253.371955 
L 407.487727 256.438473 
L 404.478993 259.684263 
L 401.703733 263.096255 
L 399.173123 266.660712 
L 396.897353 270.36328 
L 394.885586 274.18905 
L 393.145923 278.122617 
L 391.68537 282.148142 
L 390.509806 286.249416 
L 389.623967 290.409924 
L 389.031418 294.612914 
L 388.734545 298.841461 
L 388.734545 303.078539 
L 389.031418 307.307086 
L 389.623967 311.510076 
L 390.509806 315.670584 
L 391.68537 319.771858 
L 393.145923 323.797383 
L 394.885586 327.73095 
L 396.897353 331.55672 
L 399.173123 335.259288 
L 401.703733 338.823745 
L 404.478993 342.235737 
L 407.487727 345.481527 
L 410.717822 348.548045 
L 414.156269 351.422942 
L 417.789225 354.094642 
L 421.602059 356.552389 
L 425.57942 358.786284 
L 429.705292 360.787333 
L 433.963061 362.547479 
L 438.335583 364.059634 
L 442.805251 365.317708 
L 447.354068 366.316637 
L 451.963716 367.052398 
L 456.615636 367.522028 
L 461.291094 367.723636 
L 465.971265 367.656411 
L 470.637303 367.320623 
L 475.27042 366.717624 
L 479.851959 365.849842 
L 484.363473 364.720772 
L 488.786795 363.334959 
L 493.104114 361.697985 
L 497.298046 359.81644 
L 501.351703 357.697901 
L 505.248763 355.350899 
L 508.973533 352.784884 
L 512.511015 350.010188 
L 515.846966 347.037984 
L 518.967951 343.880241 
L 521.861405 340.549673 
L 524.515676 337.059691 
L 526.920077 333.424348 
L 529.064925 329.658284 
L 530.941585 325.776661 
L 532.542499 321.79511 
L 533.861222 317.729664 
L 534.892443 313.596692 
L 535.632009 309.412837 
L 536.076944 305.194945 
L 536.225455 300.96 
" clip-path="url(#p6cbf513564)" style="fill: none; stroke: #e69f00; stroke-width: 1.5; stroke-linecap: square"/>
   </g>
  </g>
  <g id="axes_7">
   <g id="line2d_4">
    <path d="M 131.438131 442.371896 
L 132.187614 439.161517 
L 132.651376 435.792837 
L 132.809567 432.29858 
L 132.645358 428.714245 
L 132.349956 426.293288 
L 131.902052 423.860867 
L 131.299246 421.429087 
L 130.539901 419.01034 
L 129.623164 416.617248 
L 128.548982 414.262598 
L 127.318124 411.959282 
L 125.932184 409.720228 
L 124.393592 407.558335 
L 122.705617 405.486405 
L 120.872364 403.517079 
L 118.898769 401.662763 
L 116.790588 399.935564 
L 114.554383 398.347224 
L 112.197502 396.90905 
L 109.728059 395.631853 
L 107.154902 394.525883 
L 104.487587 393.600767 
L 101.736338 392.865451 
L 98.912012 392.328142 
L 96.026052 391.996255 
L 93.090445 391.876364 
L 90.117668 391.974151 
L 87.120639 392.294368 
L 84.112658 392.840791 
L 81.107352 393.616191 
L 78.11861 394.6223 
L 75.160524 395.859784 
L 72.247322 397.328224 
L 69.393301 399.0261 
L 66.612761 400.950777 
L 63.919937 403.098501 
L 61.328927 405.464398 
L 58.853622 408.042479 
L 56.507642 410.825649 
L 54.30426 413.805724 
L 52.256337 416.973452 
L 50.376255 420.318537 
L 48.675848 423.829675 
L 47.166341 427.494587 
L 45.858283 431.300063 
L 44.761492 435.232008 
L 43.884995 439.275497 
L 43.236973 443.414827 
L 42.82471 447.633581 
L 42.654545 451.914691 
L 42.731831 456.24051 
L 43.060889 460.592882 
L 43.64498 464.953219 
L 44.486265 469.30258 
L 45.585786 473.621753 
L 46.943443 477.891337 
L 48.557971 482.091833 
L 50.426938 486.203725 
L 52.546731 490.207575 
L 54.91256 494.084108 
L 57.51846 497.814305 
L 60.3573 501.379491 
L 63.420803 504.761427 
L 66.699561 507.942395 
L 70.183067 510.90529 
L 73.859742 513.633703 
L 77.716975 516.112005 
L 81.741162 518.32543 
L 85.917758 520.260148 
L 90.231324 521.90335 
L 94.665588 523.243309 
L 99.203501 524.269454 
L 103.827308 524.972429 
L 108.518614 525.344155 
L 113.258459 525.37788 
L 118.027393 525.068229 
L 122.805556 524.411246 
L 127.572763 523.404429 
L 132.308585 522.046761 
L 136.992439 520.338736 
L 141.603677 518.282375 
L 146.121674 515.881237 
L 150.52592 513.140422 
L 154.796114 510.066572 
L 158.912252 506.667859 
L 162.854722 502.953969 
L 166.604393 498.936079 
L 170.142704 494.626828 
L 173.451758 490.040278 
L 176.514399 485.191871 
L 179.314305 480.098381 
L 181.836066 474.777854 
L 184.065259 469.249547 
L 185.988531 463.533858 
L 187.593661 457.652254 
L 188.869634 451.627185 
L 189.806699 445.482006 
L 190.145455 442.371896 
L 190.145455 442.371896 
" clip-path="url(#pf21437dce3)" style="fill: none; stroke: #e69f00; stroke-width: 1.5; stroke-linecap: square"/>
   </g>
  </g>
  <g id="axes_8">
   <g id="line2d_5">
    <path d="M 294.678885 449.921602 
L 295.252784 448.06858 
L 295.577441 446.069165 
L 295.626185 443.959421 
L 295.377432 441.779904 
L 294.815356 439.574905 
L 293.930461 437.391594 
L 292.720024 435.279076 
L 291.188406 433.287378 
L 289.347221 431.466394 
L 287.215356 429.864802 
L 284.818833 428.52897 
L 282.190524 427.501891 
L 279.369709 426.82215 
L 276.401495 426.522952 
L 273.336092 426.631244 
L 270.227969 427.166925 
L 267.134892 428.14219 
L 265.612693 428.796237 
L 264.116877 429.561001 
L 262.655112 430.435629 
L 261.235062 431.418717 
L 259.864352 432.508305 
L 258.550524 433.70188 
L 257.301004 434.996374 
L 256.123061 436.388174 
L 255.023771 437.873127 
L 254.009977 439.446554 
L 253.088251 441.10326 
L 252.264862 442.837555 
L 251.545738 444.643268 
L 250.936431 446.513774 
L 250.442084 448.442012 
L 250.067404 450.420518 
L 249.816627 452.441449 
L 249.693493 454.496616 
L 249.701218 456.577517 
L 249.842475 458.675372 
L 250.119367 460.781162 
L 250.53341 462.885663 
L 251.085519 464.979489 
L 251.775991 467.053135 
L 252.604494 469.097016 
L 253.570061 471.101513 
L 254.671082 473.057016 
L 255.905303 474.953968 
L 257.269826 476.782912 
L 258.761114 478.534536 
L 260.374994 480.199718 
L 262.106669 481.769567 
L 263.950731 483.235476 
L 265.901176 484.589157 
L 267.951421 485.822688 
L 270.094329 486.928556 
L 272.32223 487.899692 
L 274.626948 488.729516 
L 276.999836 489.411969 
L 279.4318 489.941552 
L 281.91334 490.313357 
L 284.434587 490.523096 
L 286.985339 490.567134 
L 289.555102 490.44251 
L 292.133139 490.146963 
L 294.708508 489.678949 
L 297.270111 489.037662 
L 299.806743 488.223045 
L 302.307137 487.2358 
L 304.760019 486.077397 
L 307.154151 484.75008 
L 309.478389 483.256862 
L 311.721728 481.601528 
L 313.873355 479.788623 
L 315.922701 477.823447 
L 317.85949 475.712039 
L 319.673786 473.461159 
L 321.356045 471.078271 
L 322.89716 468.571516 
L 324.288509 465.949688 
L 325.521997 463.2222 
L 326.590099 460.399054 
L 327.4859 457.490803 
L 328.203137 454.508512 
L 328.736228 451.463717 
L 329.08031 448.368377 
L 329.231269 445.234831 
L 329.185766 442.075749 
L 328.94126 438.904075 
L 328.496031 435.732982 
L 327.849199 432.575811 
L 327.000734 429.446018 
L 325.95147 426.357117 
L 324.70311 423.322622 
L 323.25823 420.355985 
L 321.620277 417.470542 
L 319.793566 414.679451 
L 317.783272 411.995633 
L 315.595416 409.431714 
L 313.23685 406.999968 
L 310.715236 404.712255 
L 308.039024 402.579973 
L 305.217424 400.613997 
L 302.260376 398.824629 
L 299.178512 397.221545 
L 295.983125 395.813751 
L 292.68612 394.60953 
L 289.299975 393.616404 
L 285.837694 392.84109 
L 282.312754 392.289464 
L 278.739055 391.966524 
L 275.130864 391.876364 
L 271.50276 392.022138 
L 267.869572 392.406047 
L 264.246321 393.029308 
L 260.648157 393.892149 
L 257.090295 394.993787 
L 253.587953 396.332429 
L 250.156286 397.905265 
L 246.810319 399.708467 
L 243.564886 401.737199 
L 240.43456 403.985625 
L 237.433592 406.446923 
L 234.575846 409.113302 
L 231.874736 411.976029 
L 229.343165 415.025452 
L 226.993463 418.251037 
L 224.837333 421.641396 
L 222.88579 425.184333 
L 221.149111 428.866885 
L 219.636784 432.675367 
L 218.357459 436.595428 
L 217.318901 440.612097 
L 216.527953 444.709848 
L 215.990494 448.872655 
L 215.711406 453.084058 
L 215.694545 457.327223 
L 215.942714 461.585016 
L 216.457638 465.840066 
L 217.23995 470.07484 
L 218.289177 474.271714 
L 219.60373 478.413043 
L 221.180901 482.481243 
L 223.016864 486.458855 
L 225.10668 490.328628 
L 227.444306 494.07359 
L 230.022612 497.67712 
L 232.833401 501.123026 
L 235.867429 504.395611 
L 239.11444 507.479748 
L 242.563197 510.360945 
L 246.201517 513.025416 
L 250.01632 515.46014 
L 253.993667 517.652926 
L 258.11882 519.592471 
L 262.376287 521.268413 
L 266.749888 522.671385 
L 271.22281 523.793064 
L 275.777675 524.626213 
L 280.396608 525.16472 
L 285.061304 525.403636 
L 289.753103 525.339206 
L 294.453066 524.968892 
L 299.142045 524.291398 
L 303.80077 523.306683 
L 308.409922 522.015974 
L 312.950213 520.421772 
L 317.402469 518.527851 
L 321.747712 516.339256 
L 325.967235 513.86229 
L 330.042687 511.104498 
L 333.956151 508.074652 
L 337.690222 504.782716 
L 341.228082 501.239823 
L 344.553577 497.458234 
L 347.651289 493.451296 
L 350.506605 489.2334 
L 353.105785 484.819925 
L 355.436028 480.227185 
L 357.485529 475.472369 
L 359.243538 470.573477 
L 360.700414 465.549251 
L 361.847674 460.419103 
L 362.678034 455.203045 
L 363.185455 449.921602 
L 363.185455 449.921602 
" clip-path="url(#p7f80b3e2da)" style="fill: none; stroke: #e69f00; stroke-width: 1.5; stroke-linecap: square"/>
   </g>
  </g>
  <g id="axes_9">
   <g id="line2d_6">
    <path d="M 465.454209 452.850688 
L 465.994484 451.081631 
L 466.148447 449.117283 
L 466.062922 448.087658 
L 465.861947 447.041893 
L 465.541796 445.992478 
L 465.100141 444.952439 
L 464.536113 443.935182 
L 463.850353 442.954341 
L 463.04505 442.023613 
L 462.123953 441.156593 
L 461.092371 440.366603 
L 459.957149 439.666524 
L 458.72663 439.068627 
L 457.410599 438.584414 
L 456.020202 438.224452 
L 454.567853 437.998229 
L 453.067127 437.914011 
L 451.532627 437.978712 
L 449.979849 438.197773 
L 448.425024 438.575067 
L 446.884951 439.112804 
L 445.376823 439.811467 
L 443.918044 440.669756 
L 442.526031 441.684558 
L 441.218029 442.850932 
L 440.010905 444.162116 
L 438.920956 445.609558 
L 437.963711 447.182959 
L 437.153741 448.870342 
L 436.504476 450.658145 
L 436.028027 452.531324 
L 435.735022 454.473479 
L 435.634456 456.467002 
L 435.733548 458.49323 
L 436.037626 460.532624 
L 436.550017 462.564958 
L 437.271968 464.569511 
L 438.202582 466.525282 
L 439.338771 468.411203 
L 440.675243 470.206357 
L 442.204503 471.890206 
L 443.916879 473.442811 
L 445.800572 474.845058 
L 447.841734 476.078872 
L 450.024559 477.127431 
L 452.331409 477.975368 
L 454.742947 478.608962 
L 457.238307 479.016315 
L 459.795267 479.187517 
L 462.390451 479.114786 
L 464.99954 478.792601 
L 467.597503 478.2178 
L 470.158833 477.389667 
L 472.657795 476.309988 
L 475.068685 474.983089 
L 477.366089 473.41584 
L 479.525141 471.617646 
L 481.521789 469.600398 
L 483.333052 467.378404 
L 484.937268 464.968301 
L 486.314342 462.388928 
L 487.445973 459.661188 
L 488.315874 456.807875 
L 488.909971 453.85349 
L 489.21659 450.824025 
L 489.226611 447.74674 
L 488.933614 444.649914 
L 488.33399 441.562589 
L 487.42703 438.514292 
L 486.214985 435.534761 
L 484.703099 432.653651 
L 482.899614 429.900247 
L 480.81574 427.303163 
L 478.465605 424.890058 
L 475.866161 422.687346 
L 473.037077 420.719914 
L 470.000591 419.010856 
L 466.781337 417.581215 
L 463.406152 416.449744 
L 459.903851 415.632685 
L 456.304981 415.143567 
L 452.641557 414.993032 
L 448.946774 415.18868 
L 445.254709 415.734949 
L 441.600007 416.633014 
L 438.017554 417.880728 
L 434.542148 419.472584 
L 431.208161 421.399717 
L 428.049203 423.649931 
L 425.097787 426.207766 
L 422.385002 429.054593 
L 419.940188 432.168742 
L 417.790633 435.525664 
L 415.961277 439.098118 
L 414.474439 442.856391 
L 413.349563 446.768543 
L 412.60299 450.80068 
L 412.247754 454.917244 
L 412.293411 459.081328 
L 412.745891 463.255008 
L 413.607394 467.399684 
L 414.87631 471.476443 
L 416.547181 475.44642 
L 418.610695 479.271167 
L 421.053721 482.913022 
L 423.859376 486.335483 
L 427.007132 489.50356 
L 430.47296 492.384139 
L 434.229508 494.94631 
L 438.24631 497.161697 
L 442.490033 499.004758 
L 446.92475 500.453066 
L 451.512247 501.487562 
L 456.212345 502.09278 
L 460.983259 502.257043 
L 465.781962 501.972623 
L 470.564582 501.235865 
L 475.286793 500.047276 
L 479.904235 498.411578 
L 484.372921 496.337714 
L 488.649661 493.838823 
L 492.692476 490.932168 
L 496.461003 487.639031 
L 499.916899 483.984561 
L 503.024224 479.997593 
L 505.749804 475.710417 
L 508.063582 471.158528 
L 509.938935 466.380327 
L 511.352962 461.416803 
L 512.286752 456.311181 
L 512.7256 451.108544 
L 512.659205 445.855437 
L 512.081811 440.599451 
L 510.992321 435.388789 
L 509.394361 430.271827 
L 507.296303 425.296665 
L 504.711243 420.510674 
L 501.656936 415.96005 
L 498.155684 411.689365 
L 494.234181 407.741139 
L 489.923319 404.155417 
L 485.257945 400.969372 
L 480.276587 398.216923 
L 475.021133 395.928384 
L 469.536487 394.130143 
L 463.87018 392.844371 
L 458.071962 392.088772 
L 452.193365 391.876364 
L 446.287243 392.21531 
L 440.407299 393.10879 
L 434.607598 394.554911 
L 428.942066 396.546675 
L 423.463992 399.071986 
L 418.22553 402.113704 
L 413.277197 405.649756 
L 408.667397 409.653281 
L 404.441944 414.092829 
L 400.643616 418.932607 
L 397.311723 424.132757 
L 394.481712 429.649688 
L 392.184796 435.436437 
L 390.447621 441.443067 
L 389.291978 447.617099 
L 388.734545 453.903968 
L 388.786688 460.247507 
L 389.454296 466.59045 
L 390.737674 472.874943 
L 392.631483 479.04308 
L 395.124733 485.037429 
L 398.20083 490.80157 
L 401.837669 496.280624 
L 406.007785 501.421772 
L 410.678554 506.174765 
L 415.812441 510.492409 
L 421.3673 514.331028 
L 427.296716 517.650907 
L 433.550388 520.416685 
L 440.07456 522.597732 
L 446.812476 524.168471 
L 453.704878 525.108661 
L 460.690525 525.403636 
L 467.706739 525.044491 
L 474.689962 524.028217 
L 481.576338 522.357787 
L 488.302294 520.042181 
L 494.805126 517.096361 
L 501.023584 513.54119 
L 506.898446 509.403289 
L 512.37308 504.714855 
L 517.393991 499.513407 
L 521.911334 493.841496 
L 525.87941 487.746357 
L 529.257119 481.279519 
L 532.008377 474.496372 
L 534.102497 467.455692 
L 535.514511 460.219133 
L 536.225455 452.850688 
L 536.225455 452.850688 
" clip-path="url(#p5314e23156)" style="fill: none; stroke: #e69f00; stroke-width: 1.5; stroke-linecap: square"/>
   </g>
  </g>
  <g id="text_1">
   <!-- Pulse -->
   <g style="fill: #333333" transform="translate(15.558281 108.083047) rotate(-90) scale(0.11 -0.11)">
    <defs>
     <path id="DejaVuSans-50" d="M 1259 4147 
L 1259 2394 
L 2053 2394 
Q 2494 2394 2734 2622 
Q 2975 2850 2975 3272 
Q 2975 3691 2734 3919 
Q 2494 4147 2053 4147 
L 1259 4147 
z
M 628 4666 
L 2053 4666 
Q 2838 4666 3239 4311 
Q 3641 3956 3641 3272 
Q 3641 2581 3239 2228 
Q 2838 1875 2053 1875 
L 1259 1875 
L 1259 0 
L 628 0 
L 628 4666 
z
" transform="scale(0.015625)"/>
     <path id="DejaVuSans-75" d="M 544 1381 
L 544 3500 
L 1119 3500 
L 1119 1403 
Q 1119 906 1312 657 
Q 1506 409 1894 409 
Q 2359 409 2629 706 
Q 2900 1003 2900 1516 
L 2900 3500 
L 3475 3500 
L 3475 0 
L 2900 0 
L 2900 538 
Q 2691 219 2414 64 
Q 2138 -91 1772 -91 
Q 1169 -91 856 284 
Q 544 659 544 1381 
z
M 1991 3584 
L 1991 3584 
z
" transform="scale(0.015625)"/>
     <path id="DejaVuSans-6c" d="M 603 4863 
L 1178 4863 
L 1178 0 
L 603 0 
L 603 4863 
z
" transform="scale(0.015625)"/>
     <path id="DejaVuSans-73" d="M 2834 3397 
L 2834 2853 
Q 2591 2978 2328 3040 
Q 2066 3103 1784 3103 
Q 1356 3103 1142 2972 
Q 928 2841 928 2578 
Q 928 2378 1081 2264 
Q 1234 2150 1697 2047 
L 1894 2003 
Q 2506 1872 2764 1633 
Q 3022 1394 3022 966 
Q 3022 478 2636 193 
Q 2250 -91 1575 -91 
Q 1294 -91 989 -36 
Q 684 19 347 128 
L 347 722 
Q 666 556 975 473 
Q 1284 391 1588 391 
Q 1994 391 2212 530 
Q 2431 669 2431 922 
Q 2431 1156 2273 1281 
Q 2116 1406 1581 1522 
L 1381 1569 
Q 847 1681 609 1914 
Q 372 2147 372 2553 
Q 372 3047 722 3315 
Q 1072 3584 1716 3584 
Q 2034 3584 2315 3537 
Q 2597 3491 2834 3397 
z
" transform="scale(0.015625)"/>
     <path id="DejaVuSans-65" d="M 3597 1894 
L 3597 1613 
L 953 1613 
Q 991 1019 1311 708 
Q 1631 397 2203 397 
Q 2534 397 2845 478 
Q 3156 559 3463 722 
L 3463 178 
Q 3153 47 2828 -22 
Q 2503 -91 2169 -91 
Q 1331 -91 842 396 
Q 353 884 353 1716 
Q 353 2575 817 3079 
Q 1281 3584 2069 3584 
Q 2775 3584 3186 3129 
Q 3597 2675 3597 1894 
z
M 3022 2063 
Q 3016 2534 2758 2815 
Q 2500 3097 2075 3097 
Q 1594 3097 1305 2825 
Q 1016 2553 972 2059 
L 3022 2063 
z
" transform="scale(0.015625)"/>
    </defs>
    <use xlink:href="#DejaVuSans-50"/>
    <use xlink:href="#DejaVuSans-75" x="58.552734"/>
    <use xlink:href="#DejaVuSans-6c" x="121.931641"/>
    <use xlink:href="#DejaVuSans-73" x="149.714844"/>
    <use xlink:href="#DejaVuSans-65" x="201.814453"/>
   </g>
  </g>
  <g id="text_2">
   <!-- Trace -->
   <g style="fill: #333333" transform="translate(15.558281 298.267891) rotate(-90) scale(0.11 -0.11)">
    <defs>
     <path id="DejaVuSans-54" d="M -19 4666 
L 3928 4666 
L 3928 4134 
L 2272 4134 
L 2272 0 
L 1638 0 
L 1638 4134 
L -19 4134 
L -19 4666 
z
" transform="scale(0.015625)"/>
     <path id="DejaVuSans-72" d="M 2631 2963 
Q 2534 3019 2420 3045 
Q 2306 3072 2169 3072 
Q 1681 3072 1420 2755 
Q 1159 2438 1159 1844 
L 1159 0 
L 581 0 
L 581 3500 
L 1159 3500 
L 1159 2956 
Q 1341 3275 1631 3429 
Q 1922 3584 2338 3584 
Q 2397 3584 2469 3576 
Q 2541 3569 2628 3553 
L 2631 2963 
z
" transform="scale(0.015625)"/>
     <path id="DejaVuSans-61" d="M 2194 1759 
Q 1497 1759 1228 1600 
Q 959 1441 959 1056 
Q 959 750 1161 570 
Q 1363 391 1709 391 
Q 2188 391 2477 730 
Q 2766 1069 2766 1631 
L 2766 1759 
L 2194 1759 
z
M 3341 1997 
L 3341 0 
L 2766 0 
L 2766 531 
Q 2569 213 2275 61 
Q 1981 -91 1556 -91 
Q 1019 -91 701 211 
Q 384 513 384 1019 
Q 384 1609 779 1909 
Q 1175 2209 1959 2209 
L 2766 2209 
L 2766 2266 
Q 2766 2663 2505 2880 
Q 2244 3097 1772 3097 
Q 1472 3097 1187 3025 
Q 903 2953 641 2809 
L 641 3341 
Q 956 3463 1253 3523 
Q 1550 3584 1831 3584 
Q 2591 3584 2966 3190 
Q 3341 2797 3341 1997 
z
" transform="scale(0.015625)"/>
     <path id="DejaVuSans-63" d="M 3122 3366 
L 3122 2828 
Q 2878 2963 2633 3030 
Q 2388 3097 2138 3097 
Q 1578 3097 1268 2742 
Q 959 2388 959 1747 
Q 959 1106 1268 751 
Q 1578 397 2138 397 
Q 2388 397 2633 464 
Q 2878 531 3122 666 
L 3122 134 
Q 2881 22 2623 -34 
Q 2366 -91 2075 -91 
Q 1284 -91 818 406 
Q 353 903 353 1747 
Q 353 2603 823 3093 
Q 1294 3584 2113 3584 
Q 2378 3584 2631 3529 
Q 2884 3475 3122 3366 
z
" transform="scale(0.015625)"/>
    </defs>
    <use xlink:href="#DejaVuSans-54"/>
    <use xlink:href="#DejaVuSans-72" x="46.333984"/>
    <use xlink:href="#DejaVuSans-61" x="87.447266"/>
    <use xlink:href="#DejaVuSans-63" x="148.726562"/>
    <use xlink:href="#DejaVuSans-65" x="203.707031"/>
   </g>
  </g>
  <g id="text_3">
   <!-- Spiral -->
   <g style="fill: #333333" transform="translate(15.558281 489.430703) rotate(-90) scale(0.11 -0.11)">
    <defs>
     <path id="DejaVuSans-53" d="M 3425 4513 
L 3425 3897 
Q 3066 4069 2747 4153 
Q 2428 4238 2131 4238 
Q 1616 4238 1336 4038 
Q 1056 3838 1056 3469 
Q 1056 3159 1242 3001 
Q 1428 2844 1947 2747 
L 2328 2669 
Q 3034 2534 3370 2195 
Q 3706 1856 3706 1288 
Q 3706 609 3251 259 
Q 2797 -91 1919 -91 
Q 1588 -91 1214 -16 
Q 841 59 441 206 
L 441 856 
Q 825 641 1194 531 
Q 1563 422 1919 422 
Q 2459 422 2753 634 
Q 3047 847 3047 1241 
Q 3047 1584 2836 1778 
Q 2625 1972 2144 2069 
L 1759 2144 
Q 1053 2284 737 2584 
Q 422 2884 422 3419 
Q 422 4038 858 4394 
Q 1294 4750 2059 4750 
Q 2388 4750 2728 4690 
Q 3069 4631 3425 4513 
z
" transform="scale(0.015625)"/>
     <path id="DejaVuSans-70" d="M 1159 525 
L 1159 -1331 
L 581 -1331 
L 581 3500 
L 1159 3500 
L 1159 2969 
Q 1341 3281 1617 3432 
Q 1894 3584 2278 3584 
Q 2916 3584 3314 3078 
Q 3713 2572 3713 1747 
Q 3713 922 3314 415 
Q 2916 -91 2278 -91 
Q 1894 -91 1617 61 
Q 1341 213 1159 525 
z
M 3116 1747 
Q 3116 2381 2855 2742 
Q 2594 3103 2138 3103 
Q 1681 3103 1420 2742 
Q 1159 2381 1159 1747 
Q 1159 1113 1420 752 
Q 1681 391 2138 391 
Q 2594 391 2855 752 
Q 3116 1113 3116 1747 
z
" transform="scale(0.015625)"/>
     <path id="DejaVuSans-69" d="M 603 3500 
L 1178 3500 
L 1178 0 
L 603 0 
L 603 3500 
z
M 603 4863 
L 1178 4863 
L 1178 4134 
L 603 4134 
L 603 4863 
z
" transform="scale(0.015625)"/>
    </defs>
    <use xlink:href="#DejaVuSans-53"/>
    <use xlink:href="#DejaVuSans-70" x="63.476562"/>
    <use xlink:href="#DejaVuSans-69" x="126.953125"/>
    <use xlink:href="#DejaVuSans-72" x="154.736328"/>
    <use xlink:href="#DejaVuSans-61" x="195.849609"/>
    <use xlink:href="#DejaVuSans-6c" x="257.128906"/>
   </g>
  </g>
  <g id="text_4">
   <!-- Stage 1 -->
   <g style="fill: #333333" transform="translate(83.978516 36) scale(0.11 -0.11)">
    <defs>
     <path id="DejaVuSans-74" d="M 1172 4494 
L 1172 3500 
L 2356 3500 
L 2356 3053 
L 1172 3053 
L 1172 1153 
Q 1172 725 1289 603 
Q 1406 481 1766 481 
L 2356 481 
L 2356 0 
L 1766 0 
Q 1100 0 847 248 
Q 594 497 594 1153 
L 594 3053 
L 172 3053 
L 172 3500 
L 594 3500 
L 594 4494 
L 1172 4494 
z
" transform="scale(0.015625)"/>
     <path id="DejaVuSans-67" d="M 2906 1791 
Q 2906 2416 2648 2759 
Q 2391 3103 1925 3103 
Q 1463 3103 1205 2759 
Q 947 2416 947 1791 
Q 947 1169 1205 825 
Q 1463 481 1925 481 
Q 2391 481 2648 825 
Q 2906 1169 2906 1791 
z
M 3481 434 
Q 3481 -459 3084 -895 
Q 2688 -1331 1869 -1331 
Q 1566 -1331 1297 -1286 
Q 1028 -1241 775 -1147 
L 775 -588 
Q 1028 -725 1275 -790 
Q 1522 -856 1778 -856 
Q 2344 -856 2625 -561 
Q 2906 -266 2906 331 
L 2906 616 
Q 2728 306 2450 153 
Q 2172 0 1784 0 
Q 1141 0 747 490 
Q 353 981 353 1791 
Q 353 2603 747 3093 
Q 1141 3584 1784 3584 
Q 2172 3584 2450 3431 
Q 2728 3278 2906 2969 
L 2906 3500 
L 3481 3500 
L 3481 434 
z
" transform="scale(0.015625)"/>
     <path id="DejaVuSans-20" transform="scale(0.015625)"/>
     <path id="DejaVuSans-31" d="M 794 531 
L 1825 531 
L 1825 4091 
L 703 3866 
L 703 4441 
L 1819 4666 
L 2450 4666 
L 2450 531 
L 3481 531 
L 3481 0 
L 794 0 
L 794 531 
z
" transform="scale(0.015625)"/>
    </defs>
    <use xlink:href="#DejaVuSans-53"/>
    <use xlink:href="#DejaVuSans-74" x="63.476562"/>
    <use xlink:href="#DejaVuSans-61" x="102.685547"/>
    <use xlink:href="#DejaVuSans-67" x="163.964844"/>
    <use xlink:href="#DejaVuSans-65" x="227.441406"/>
    <use xlink:href="#DejaVuSans-20" x="288.964844"/>
    <use xlink:href="#DejaVuSans-31" x="320.751953"/>
   </g>
  </g>
  <g id="text_5">
   <!-- Stage 2 -->
   <g style="fill: #333333" transform="translate(245.258516 36) scale(0.11 -0.11)">
    <defs>
     <path id="DejaVuSans-32" d="M 1228 531 
L 3431 531 
L 3431 0 
L 469 0 
L 469 531 
Q 828 903 1448 1529 
Q 2069 2156 2228 2338 
Q 2531 2678 2651 2914 
Q 2772 3150 2772 3378 
Q 2772 3750 2511 3984 
Q 2250 4219 1831 4219 
Q 1534 4219 1204 4116 
Q 875 4013 500 3803 
L 500 4441 
Q 881 4594 1212 4672 
Q 1544 4750 1819 4750 
Q 2544 4750 2975 4387 
Q 3406 4025 3406 3419 
Q 3406 3131 3298 2873 
Q 3191 2616 2906 2266 
Q 2828 2175 2409 1742 
Q 1991 1309 1228 531 
z
" transform="scale(0.015625)"/>
    </defs>
    <use xlink:href="#DejaVuSans-53"/>
    <use xlink:href="#DejaVuSans-74" x="63.476562"/>
    <use xlink:href="#DejaVuSans-61" x="102.685547"/>
    <use xlink:href="#DejaVuSans-67" x="163.964844"/>
    <use xlink:href="#DejaVuSans-65" x="227.441406"/>
    <use xlink:href="#DejaVuSans-20" x="288.964844"/>
    <use xlink:href="#DejaVuSans-32" x="320.751953"/>
   </g>
  </g>
  <g id="text_6">
   <!-- Stage 3 -->
   <g style="fill: #333333" transform="translate(406.538516 36) scale(0.11 -0.11)">
    <defs>
     <path id="DejaVuSans-33" d="M 2597 2516 
Q 3050 2419 3304 2112 
Q 3559 1806 3559 1356 
Q 3559 666 3084 287 
Q 2609 -91 1734 -91 
Q 1441 -91 1130 -33 
Q 819 25 488 141 
L 488 750 
Q 750 597 1062 519 
Q 1375 441 1716 441 
Q 2309 441 2620 675 
Q 2931 909 2931 1356 
Q 2931 1769 2642 2001 
Q 2353 2234 1838 2234 
L 1294 2234 
L 1294 2753 
L 1863 2753 
Q 2328 2753 2575 2939 
Q 2822 3125 2822 3475 
Q 2822 3834 2567 4026 
Q 2313 4219 1838 4219 
Q 1578 4219 1281 4162 
Q 984 4106 628 3988 
L 628 4550 
Q 988 4650 1302 4700 
Q 1616 4750 1894 4750 
Q 2613 4750 3031 4423 
Q 3450 4097 3450 3541 
Q 3450 3153 3228 2886 
Q 3006 2619 2597 2516 
z
" transform="scale(0.015625)"/>
    </defs>
    <use xlink:href="#DejaVuSans-53"/>
    <use xlink:href="#DejaVuSans-74" x="63.476562"/>
    <use xlink:href="#DejaVuSans-61" x="102.685547"/>
    <use xlink:href="#DejaVuSans-67" x="163.964844"/>
    <use xlink:href="#DejaVuSans-65" x="227.441406"/>
    <use xlink:href="#DejaVuSans-20" x="288.964844"/>
    <use xlink:href="#DejaVuSans-33" x="320.751953"/>
   </g>
  </g>
  <g id="text_7">
   <!-- Figure 4 — Pulse → Trace → Spiral Matrix -->
   <g style="fill: #333333" transform="translate(135.158906 17.077969) scale(0.13 -0.13)">
    <defs>
     <path id="DejaVuSans-46" d="M 628 4666 
L 3309 4666 
L 3309 4134 
L 1259 4134 
L 1259 2759 
L 3109 2759 
L 3109 2228 
L 1259 2228 
L 1259 0 
L 628 0 
L 628 4666 
z
" transform="scale(0.015625)"/>
     <path id="DejaVuSans-34" d="M 2419 4116 
L 825 1625 
L 2419 1625 
L 2419 4116 
z
M 2253 4666 
L 3047 4666 
L 3047 1625 
L 3713 1625 
L 3713 1100 
L 3047 1100 
L 3047 0 
L 2419 0 
L 2419 1100 
L 313 1100 
L 313 1709 
L 2253 4666 
z
" transform="scale(0.015625)"/>
     <path id="DejaVuSans-2014" d="M 313 1978 
L 6088 1978 
L 6088 1528 
L 313 1528 
L 313 1978 
z
" transform="scale(0.015625)"/>
     <path id="DejaVuSans-2192" d="M 5050 2147 
L 5050 1866 
L 3822 638 
L 3447 1013 
L 4175 1741 
L 366 1741 
L 366 2272 
L 4175 2272 
L 3447 3000 
L 3822 3375 
L 5050 2147 
z
" transform="scale(0.015625)"/>
     <path id="DejaVuSans-4d" d="M 628 4666 
L 1569 4666 
L 2759 1491 
L 3956 4666 
L 4897 4666 
L 4897 0 
L 4281 0 
L 4281 4097 
L 3078 897 
L 2444 897 
L 1241 4097 
L 1241 0 
L 628 0 
L 628 4666 
z
" transform="scale(0.015625)"/>
     <path id="DejaVuSans-78" d="M 3513 3500 
L 2247 1797 
L 3578 0 
L 2900 0 
L 1881 1375 
L 863 0 
L 184 0 
L 1544 1831 
L 300 3500 
L 978 3500 
L 1906 2253 
L 2834 3500 
L 3513 3500 
z
" transform="scale(0.015625)"/>
    </defs>
    <use xlink:href="#DejaVuSans-46"/>
    <use xlink:href="#DejaVuSans-69" x="50.269531"/>
    <use xlink:href="#DejaVuSans-67" x="78.052734"/>
    <use xlink:href="#DejaVuSans-75" x="141.529297"/>
    <use xlink:href="#DejaVuSans-72" x="204.908203"/>
    <use xlink:href="#DejaVuSans-65" x="243.771484"/>
    <use xlink:href="#DejaVuSans-20" x="305.294922"/>
    <use xlink:href="#DejaVuSans-34" x="337.082031"/>
    <use xlink:href="#DejaVuSans-20" x="400.705078"/>
    <use xlink:href="#DejaVuSans-2014" x="432.492188"/>
    <use xlink:href="#DejaVuSans-20" x="532.492188"/>
    <use xlink:href="#DejaVuSans-50" x="564.279297"/>
    <use xlink:href="#DejaVuSans-75" x="622.832031"/>
    <use xlink:href="#DejaVuSans-6c" x="686.210938"/>
    <use xlink:href="#DejaVuSans-73" x="713.994141"/>
    <use xlink:href="#DejaVuSans-65" x="766.09375"/>
    <use xlink:href="#DejaVuSans-20" x="827.617188"/>
    <use xlink:href="#DejaVuSans-2192" x="859.404297"/>
    <use xlink:href="#DejaVuSans-20" x="943.193359"/>
    <use xlink:href="#DejaVuSans-54" x="974.980469"/>
    <use xlink:href="#DejaVuSans-72" x="1021.314453"/>
    <use xlink:href="#DejaVuSans-61" x="1062.427734"/>
    <use xlink:href="#DejaVuSans-63" x="1123.707031"/>
    <use xlink:href="#DejaVuSans-65" x="1178.6875"/>
    <use xlink:href="#DejaVuSans-20" x="1240.210938"/>
    <use xlink:href="#DejaVuSans-2192" x="1271.998047"/>
    <use xlink:href="#DejaVuSans-20" x="1355.787109"/>
    <use xlink:href="#DejaVuSans-53" x="1387.574219"/>
    <use xlink:href="#DejaVuSans-70" x="1451.050781"/>
    <use xlink:href="#DejaVuSans-69" x="1514.527344"/>
    <use xlink:href="#DejaVuSans-72" x="1542.310547"/>
    <use xlink:href="#DejaVuSans-61" x="1583.423828"/>
    <use xlink:href="#DejaVuSans-6c" x="1644.703125"/>
    <use xlink:href="#DejaVuSans-20" x="1672.486328"/>
    <use xlink:href="#DejaVuSans-4d" x="1704.273438"/>
    <use xlink:href="#DejaVuSans-61" x="1790.552734"/>
    <use xlink:href="#DejaVuSans-74" x="1851.832031"/>
    <use xlink:href="#DejaVuSans-72" x="1891.041016"/>
    <use xlink:href="#DejaVuSans-69" x="1932.154297"/>
    <use xlink:href="#DejaVuSans-78" x="1959.9375"/>
   </g>
  </g>
 </g>
 <defs>
  <clipPath id="p780f6ed728">
   <rect x="35.28" y="69.84" width="162.24" height="146.88"/>
  </clipPath>
  <clipPath id="p3eaa5db90b">
   <rect x="208.32" y="69.84" width="162.24" height="146.88"/>
  </clipPath>
  <clipPath id="p39ae366f47">
   <rect x="381.36" y="69.84" width="162.24" height="146.88"/>
  </clipPath>
  <clipPath id="p7c35b0d687">
   <rect x="35.28" y="227.52" width="162.24" height="146.88"/>
  </clipPath>
  <clipPath id="pe27e59dd92">
   <rect x="208.32" y="227.52" width="162.24" height="146.88"/>
  </clipPath>
  <clipPath id="p6cbf513564">
   <rect x="381.36" y="227.52" width="162.24" height="146.88"/>
  </clipPath>
  <clipPath id="pf21437dce3">
   <rect x="35.28" y="385.2" width="162.24" height="146.88"/>
  </clipPath>
  <clipPath id="p7f80b3e2da">
   <rect x="208.32" y="385.2" width="162.24" height="146.88"/>
  </clipPath>
  <clipPath id="p5314e23156">
   <rect x="381.36" y="385.2" width="162.24" height="146.88"/>
  </clipPath>
 </defs>
</svg>
