<svg viewBox="0 0 760 480" xmlns="http://www.w3.org/2000/svg" width="760" height="480">
  <defs>
    <marker id="ah-life" markerWidth="8" markerHeight="8" refX="6" refY="3" orient="auto">
      <path d="M0,0 L0,6 L8,3 z" fill="#4a7a5a"/>
    </marker>
    <marker id="ah-matter" markerWidth="8" markerHeight="8" refX="6" refY="3" orient="auto">
      <path d="M0,0 L0,6 L8,3 z" fill="#8a4a3a"/>
    </marker>
    <marker id="ah-gray" markerWidth="8" markerHeight="8" refX="6" refY="3" orient="auto">
      <path d="M0,0 L0,6 L8,3 z" fill="#8a8680"/>
    </marker>
    <marker id="ah-virus" markerWidth="8" markerHeight="8" refX="6" refY="3" orient="auto">
      <path d="M0,0 L0,6 L8,3 z" fill="#d4924a"/>
    </marker>
    <marker id="ah-ai" markerWidth="8" markerHeight="8" refX="6" refY="3" orient="auto">
      <path d="M0,0 L0,6 L8,3 z" fill="#7a3a6a"/>
    </marker>
    <marker id="ah-soc" markerWidth="8" markerHeight="8" refX="6" refY="3" orient="auto">
      <path d="M0,0 L0,6 L8,3 z" fill="#5a6a3a"/>
    </marker>
  </defs>

  <!-- background -->
  <rect width="760" height="480" fill="#f4f1eb"/>

  <!-- Title -->
  <text x="380" y="28" font-family="Georgia, serif" font-size="16" fill="#8a8680" text-anchor="middle">Figure 3｜Life Syntax Transition Diagram · EgQE v0.2</text>

  <!-- Z₀ node -->
  <circle cx="80" cy="200" r="28" fill="none" stroke="#0f0e0c" stroke-width="1.5"/>
  <text x="80" y="196" font-family="Georgia, serif" font-size="16" font-style="italic" text-anchor="middle" fill="#0f0e0c">Z₀</text>
  <text x="80" y="212" font-family="Georgia, serif" font-size="7" text-anchor="middle" fill="#8a8680">encounter</text>

  <!-- Z₀ → lag -->
  <line x1="109" y1="200" x2="155" y2="200" stroke="#8a8680" stroke-width="1.2" marker-end="url(#ah-gray)"/>
  <text x="132" y="192" font-family="Georgia, serif" font-size="11" font-style="italic" fill="#8a8680" text-anchor="middle">L</text>

  <!-- lag node -->
  <rect x="160" y="178" width="64" height="44" rx="4" fill="none" stroke="#8a8680" stroke-width="1.2"/>
  <text x="192" y="197" font-family="Georgia, serif" font-size="14" text-anchor="middle" fill="#0f0e0c">lag</text>
  <text x="192" y="211" font-family="Georgia, serif" font-size="7" text-anchor="middle" fill="#8a8680">non-coincidence</text>

  <!-- lag → M (life path) -->
  <line x1="224" y1="190" x2="275" y2="160" stroke="#4a7a5a" stroke-width="1.4" marker-end="url(#ah-life)"/>
  <text x="246" y="167" font-family="Georgia, serif" font-size="11" font-style="italic" fill="#4a7a5a">M</text>

  <!-- lag → ΔZ (matter path, no M) -->
  <line x1="224" y1="212" x2="355" y2="318" stroke="#8a4a3a" stroke-width="1.2" stroke-dasharray="5,3" marker-end="url(#ah-matter)"/>
  <text x="316" y="278" font-family="Georgia, serif" font-size="8" fill="#8a4a3a">no M</text>

  <!-- M diamond -->
  <polygon points="310,128 342,155 310,182 278,155" fill="none" stroke="#1a2a4a" stroke-width="1.6"/>
  <text x="310" y="152" font-family="Georgia, serif" font-size="13" text-anchor="middle" fill="#1a2a4a">M</text>
  <text x="310" y="165" font-family="Georgia, serif" font-size="6.5" text-anchor="middle" fill="#1a2a4a">fold</text>

  <!-- M → ψ -->
  <line x1="342" y1="155" x2="390" y2="155" stroke="#4a7a5a" stroke-width="1.4" marker-end="url(#ah-life)"/>
  <text x="366" y="147" font-family="Georgia, serif" font-size="11" font-style="italic" fill="#4a7a5a">Ψ</text>

  <!-- ψ node -->
  <ellipse cx="428" cy="155" rx="34" ry="26" fill="none" stroke="#4a7a5a" stroke-width="1.5"/>
  <text x="428" y="152" font-family="Georgia, serif" font-size="16" font-style="italic" text-anchor="middle" fill="#4a7a5a">ψₙ</text>
  <text x="428" y="167" font-family="Georgia, serif" font-size="7" text-anchor="middle" fill="#4a7a5a">residueⁿ</text>

  <!-- ψ → Rec -->
  <line x1="462" y1="155" x2="510" y2="155" stroke="#4a7a5a" stroke-width="1.4" marker-end="url(#ah-life)"/>
  <text x="486" y="147" font-family="Georgia, serif" font-size="9" fill="#4a7a5a" text-anchor="middle">Rec</text>

  <!-- Rec node -->
  <rect x="514" y="132" width="60" height="46" rx="4" fill="none" stroke="#4a7a5a" stroke-width="1.5"/>
  <text x="544" y="152" font-family="Georgia, serif" font-size="13" text-anchor="middle" fill="#4a7a5a">Rec</text>
  <text x="544" y="166" font-family="Georgia, serif" font-size="6.5" text-anchor="middle" fill="#4a7a5a">recursion</text>

  <!-- Rec loop back -->
  <path d="M544,132 C544,60 192,60 192,178" fill="none" stroke="#4a7a5a" stroke-width="1.3" stroke-dasharray="6,3" marker-end="url(#ah-life)"/>
  <text x="370" y="56" font-family="Georgia, serif" font-size="12.5" fill="#4a7a5a" text-anchor="middle">L_{n+1} = L(ψₙ)</text>

  <!-- ψ collapse → ΔZ (death) -->
  <line x1="428" y1="181" x2="428" y2="316" stroke="#8a4a3a" stroke-width="1.1" stroke-dasharray="4,4" marker-end="url(#ah-matter)"/>
  <text x="442" y="252" font-family="Georgia, serif" font-size="7.5" fill="#8a4a3a">ψₙ→0</text>
  <text x="442" y="264" font-family="Georgia, serif" font-size="7" fill="#8a8680">collapse</text>

  <!-- ΔZ node -->
  <rect x="270" y="320" width="320" height="46" rx="3" fill="none" stroke="#8a4a3a" stroke-width="1.2" stroke-dasharray="5,3"/>
  <text x="430" y="340" font-family="Georgia, serif" font-size="15" font-style="italic" text-anchor="middle" fill="#8a4a3a">ΔZ</text>
  <text x="430" y="356" font-family="Georgia, serif" font-size="7.5" text-anchor="middle" fill="#8a4a3a">fixed trace  ·  Matter / Death modality</text>

  <!-- Parasitic ψ route (virus) -->
  <path d="M192,222 C192,270 310,280 310,320" fill="none" stroke="#d4924a" stroke-width="1.1" stroke-dasharray="4,3" marker-end="url(#ah-virus)"/>
  <text x="200" y="282" font-family="Georgia, serif" font-size="7.5" fill="#d4924a" transform="rotate(-15,228,272)">Parasitic ψ</text>
  <text x="200" y="293" font-family="Georgia, serif" font-size="6.5" fill="#d4924a" transform="rotate(-15,228,283)">(borrows host Rec)</text>

  <!-- AI route via Mₛ -->
  <path d="M224,200 C280,200 290,110 360,120 C390,120 402,135 428,135" fill="none" stroke="#7a3a6a" stroke-width="1.1" stroke-dasharray="3,3" marker-end="url(#ah-ai)"/>
  <text x="340" y="112" font-family="Georgia, serif" font-size="7.5" fill="#7a3a6a" text-anchor="middle">AI: via Mₛ（構文膜）</text>

  <!-- Social Distributed ψ -->
  <line x1="462" y1="168" x2="618" y2="238" stroke="#5a6a3a" stroke-width="1" stroke-dasharray="3,4" marker-end="url(#ah-soc)"/>
  <text x="586" y="204" font-family="Georgia, serif" font-size="7.5" fill="#5a6a3a">社会: Distributed ψ</text>
  <text x="586" y="215" font-family="Georgia, serif" font-size="6.5" fill="#5a6a3a">(ψ across network)</text>

  <!-- Life label -->
  <text x="576" y="100" font-family="Georgia, serif" font-size="13" font-style="italic" fill="#4a7a5a">Life</text>
  <text x="576" y="114" font-family="Georgia, serif" font-size="7" fill="#8a8680">∀n, ψₙ ≠ 0</text>

  <!-- Matter/Death label -->
  <text x="596" y="344" font-family="Georgia, serif" font-size="13" font-style="italic" fill="#8a4a3a">Matter / Death</text>
  <text x="596" y="358" font-family="Georgia, serif" font-size="7" fill="#8a8680">ΔZ fixed</text>

  <!-- Legend line -->
  <line x1="40" y1="400" x2="80" y2="400" stroke="#4a7a5a" stroke-width="1.3"/>
  <text x="88" y="404" font-family="Georgia, serif" font-size="8" fill="#8a8680">life path</text>
  <line x1="160" y1="400" x2="200" y2="400" stroke="#8a4a3a" stroke-width="1.2" stroke-dasharray="5,3"/>
  <text x="208" y="404" font-family="Georgia, serif" font-size="8" fill="#8a8680">matter / collapse</text>
  <line x1="320" y1="400" x2="360" y2="400" stroke="#d4924a" stroke-width="1.1" stroke-dasharray="4,3"/>
  <text x="368" y="404" font-family="Georgia, serif" font-size="8" fill="#8a8680">Parasitic ψ</text>
  <line x1="460" y1="400" x2="500" y2="400" stroke="#7a3a6a" stroke-width="1.1" stroke-dasharray="3,3"/>
  <text x="508" y="404" font-family="Georgia, serif" font-size="8" fill="#8a8680">AI (Mₛ)</text>
  <line x1="560" y1="400" x2="600" y2="400" stroke="#5a6a3a" stroke-width="1" stroke-dasharray="3,4"/>
  <text x="608" y="404" font-family="Georgia, serif" font-size="8" fill="#8a8680">社会 (Distributed ψ)</text>

  <!-- Caption -->
  <text x="40" y="428" font-family="Georgia, serif" font-size="12" font-style="italic" fill="#6a6660">Main chain: Z₀ → lag → M(fold) → ψ(persistence) → Rec → loop.</text>
  <text x="40" y="445" font-family="Georgia, serif" font-size="12" font-style="italic" fill="#6a6660">Bifurcation: lag without M → ΔZ (Matter).  ψ collapse → ΔZ (Death).</text>
  <text x="40" y="462" font-family="Georgia, serif" font-size="12" font-style="italic" fill="#6a6660">Special routes: Parasitic ψ (virus),  Mₛ path (AI),  Distributed ψ (social systems).</text>
</svg>