<svg xmlns="http://www.w3.org/2000/svg" width="720" height="520" viewBox="0 0 720 520">
    <defs>
    <marker id="rz_arrow" markerWidth="12" markerHeight="12" refX="10" refY="6" orient="auto" markerUnits="strokeWidth">
      <path d="M0,0 L12,6 L0,12 Z" fill="#000"/>
    </marker>
    <marker id="rz_arrowThin" markerWidth="10" markerHeight="10" refX="9" refY="5" orient="auto" markerUnits="strokeWidth">
      <path d="M0,0 L10,5 L0,10 Z" fill="#000"/>
    </marker>
  </defs>
  
  <!-- Boxes -->
  <rect x="150" y="40"  width="420" height="78" fill="#ffffff" stroke="#111111" stroke-width="2" rx="14"/>
  <rect x="150" y="160" width="420" height="88" fill="#ffffff" stroke="#111111" stroke-width="2" rx="14"/>
  <rect x="150" y="300" width="420" height="88" fill="#ffffff" stroke="#111111" stroke-width="2" rx="14"/>
  <rect x="150" y="420" width="420" height="72" fill="#ffffff" stroke="#111111" stroke-width="2" rx="14"/>

  <!-- Text -->
  <text x="360" y="82" text-anchor="middle" font-family="Times New Roman, serif" font-size="24" font-weight="700" fill="#111">S′–O′ lag</text>
  <text x="360" y="106" text-anchor="middle" font-family="Times New Roman, serif" font-size="20" fill="#111">non-synchronous relation</text>

  <text x="360" y="204" text-anchor="middle" font-family="Times New Roman, serif" font-size="24" font-weight="700" fill="#111">R₀</text>
  <text x="360" y="228" text-anchor="middle" font-family="Times New Roman, serif" font-size="20" fill="#111">(generative field)</text>

  <text x="360" y="344" text-anchor="middle" font-family="Times New Roman, serif" font-size="24" font-weight="700" fill="#111">S–O traces</text>
  <text x="360" y="368" text-anchor="middle" font-family="Times New Roman, serif" font-size="22" fill="#111">(φ, π)</text>

  <text x="360" y="466" text-anchor="middle" font-family="Times New Roman, serif" font-size="24" font-weight="700" fill="#111">Observation / Cognition</text>

  <!-- Arrows -->
  <line x1="360" y1="118" x2="360" y2="160" stroke="#111" stroke-width="1.5" marker-end="url(#rz_arrow)"/>
   <line x1="360" y1="248" x2="360" y2="300" stroke="#111" stroke-width="1.5" marker-end="url(#rz_arrow)"/>
  <line x1="360" y1="388" x2="360" y2="420" stroke="#111" stroke-width="1.5" marker-end="url(#rz_arrow)"/>
  
  <!-- Z0 label -->
  <text x="390" y="280" font-family="Times New Roman, serif" font-size="22" fill="#111">Z₀ cut</text>
</svg>
